<svg width="447" height="56" viewBox="0 0 447 56" fill="none" xmlns="http://www.w3.org/2000/svg">
<path d="M3.59359 13.8782C5.98837 9.62856 9.25724 6.30423 13.3979 3.90523C17.5386 1.50736 22.1337 0.307007 27.186 0.307007C33.1232 0.307007 38.3046 1.74196 42.7319 4.60904C47.158 7.47782 50.3877 11.5453 52.419 16.8113H43.9039C42.3923 13.5263 40.2188 10.9975 37.3804 9.22369C34.5415 7.45163 31.143 6.5639 27.186 6.5639C23.3837 6.5639 19.9721 7.45106 16.9523 9.22369C13.9314 10.9969 11.5622 13.5138 9.843 16.7721C8.1244 20.0315 7.2651 23.8512 7.2651 28.2312C7.2651 32.56 8.1244 36.3541 9.843 39.6124C11.5616 42.8718 13.9308 45.3887 16.9523 47.1608C19.9721 48.934 23.3837 49.8206 27.186 49.8206C31.1435 49.8206 34.5415 48.9476 37.3804 47.2001C40.2188 45.4536 42.3923 42.9367 43.9039 39.6517H52.419C50.3877 44.8671 47.158 48.8952 42.7319 51.7367C38.3046 54.5793 33.1232 56 27.186 56C22.1337 56 17.538 54.8145 13.3979 52.4411C9.25724 50.0688 5.98894 46.7701 3.59359 42.5461C1.19711 38.3221 0 33.5508 0 28.2318C0 22.9128 1.19767 18.129 3.59359 13.8782Z" fill="white"/>
<path d="M105.931 55.5308L92.9625 33.2376H84.3695V55.5308H77.2603V1.0108H94.8375C98.9509 1.0108 102.427 1.71463 105.267 3.12282C108.105 4.53102 110.228 6.43518 111.633 8.83305C113.04 11.2321 113.743 13.9699 113.743 17.0465C113.743 20.8013 112.662 24.1131 110.501 26.9808C108.34 29.8495 105.097 31.752 100.775 32.691L114.446 55.5314H105.931L105.931 55.5308ZM84.3695 27.5274H94.8375C98.691 27.5274 101.582 26.5765 103.509 24.6723C105.435 22.7693 106.399 20.2273 106.399 17.0459C106.399 13.8133 105.448 11.3101 103.548 9.53688C101.646 7.76481 98.7433 6.87706 94.837 6.87706H84.369V27.5274H84.3695Z" fill="white"/>
<path d="M146.161 6.79906V25.0248H166.004V30.8916H146.161V49.6645H168.347V55.5314H139.052V0.9328H168.347V6.79963H146.161V6.79906Z" fill="white"/>
<path d="M189.127 55.5308L209.673 1.0108H217.876L238.421 55.5308H230.844L213.735 8.51987L196.627 55.5308H189.127Z" fill="white"/>
<path d="M294.042 1.0108V6.79905H279.199V55.5308H272.09V6.79905H257.169V1.0108H294.042H294.042Z" fill="white"/>
<path d="M324.196 1.0108V55.5308H317.086V1.0108H324.196Z" fill="white"/>
<path d="M395.597 1.0108L375.051 55.5308H366.848L346.303 1.0108H353.881L370.989 48.0217L388.097 1.0108H395.596H395.597Z" fill="white"/>
<path d="M424.813 6.79906V25.0248H444.656V30.8916H424.813V49.6645H446.999V55.5314H417.704V0.9328H446.999V6.79963H424.813V6.79906Z" fill="white"/>
</svg>
