<svg width="157" height="136" viewBox="0 0 157 136" fill="none" xmlns="http://www.w3.org/2000/svg">
<path d="M121.145 72.2975C121.377 72.7087 127.66 69.3473 128.054 69.1213C132.668 66.4717 136.913 62.927 139.742 58.3676C144.574 50.5835 146.327 40.0548 144.663 31.0982C142.631 20.1658 135.935 9.98266 126.349 4.41478C121.996 1.88652 115.954 0 110.838 0H0.545371C0.545371 4.22345 3.94959 7.64743 8.16761 7.64743C41.8037 7.64743 76.302 7.64743 109.797 7.64743C132.827 7.64743 144.767 37.5322 132.079 55.3531C128.674 60.1351 123.581 63.9258 117.664 64.6809L91.4333 64.6849C91.1103 64.0465 90.7992 63.4025 90.4483 62.7784C89.5936 61.2723 88.6342 59.8436 87.6265 58.4553H100.803C108.847 58.4553 116.624 59.8077 122.825 53.3549C129.34 46.5742 131.032 35.9993 126.82 27.5604C123.724 21.3581 116.422 15.8278 109.265 15.8278C73.0257 15.8278 36.7861 15.7777 0.547081 15.7777C0.547081 20.1669 4.10029 23.7253 8.48381 23.7253H48.7834C43.7072 29.4594 25.4833 51.4627 25.4833 51.4627V71.5852C34.4215 68.4345 45.7613 64.4816 54.7996 69.3189C60.9483 72.6096 64.9139 79.2805 65.0896 86.2337C65.246 92.4297 62.2433 98.177 57.1187 101.641C48.1902 107.677 38.0788 104.786 30.3127 98.8774C27.0449 96.3912 22.5579 96.2756 19.1332 98.5403C20.3832 100.394 23.4235 103.264 24.0712 103.89C27.7279 107.389 32.3105 109.962 37.356 111.306C42.2394 112.627 47.3542 112.742 52.1455 111.654C56.3345 110.727 60.1999 108.873 63.3471 106.277C66.7724 103.473 69.3417 99.8813 70.9619 95.6174C72.6714 91.1189 73.0548 86.4467 72.3115 82.0126C70.8385 73.224 64.94 65.3727 56.1724 61.6669C51.4511 59.6739 46.1509 58.9091 40.8506 59.4188C39.6006 59.5577 38.3279 59.9979 37.0779 60.4153C35.6891 60.9016 34.1849 61.4989 33.5599 61.1282V54.135C34.4164 52.3738 35.7585 50.7748 37.1939 49.0597C37.8649 48.2489 57.7693 24.7269 58.6531 23.7253C58.6531 23.7253 77.883 23.7292 77.8585 23.7537C71.6671 29.9531 69.2996 35.1862 59.4515 43.9297L59.5425 49.3769C59.5425 49.3769 65.4883 50.132 68.8384 51.797C73.7713 54.2484 77.7499 58.3631 81.0967 62.7448C87.9637 71.7367 90.8754 83.3075 88.5284 94.4352C86.5846 103.728 81.4231 112.001 73.9937 117.748C62.3894 126.725 46.8583 128.688 33.0344 124.277C26.8328 122.297 21.0833 119.045 16.0975 114.865C13.7647 112.909 11.7931 110.313 8.8546 109.248C6.00429 108.216 2.77523 108.557 0.207569 110.171C-0.230327 111.032 10.6454 120.198 12.0006 121.289C26.2863 132.79 47.0124 136.914 64.4811 131.166C88.575 123.237 101.916 96.4579 94.5447 72.334L111.159 72.3323L143.557 129.961C145.494 133.348 149.095 135.438 152.994 135.438H156.807C156.807 135.438 121.154 72.3101 121.147 72.2975H121.145ZM70.2892 43.8922C72.1409 41.1344 76.7928 35.7117 80.6582 31.2155C83.4357 27.9943 85.4722 25.5844 86.9764 23.7537C92.3773 23.7634 97.7532 23.6905 103.154 23.6996C107.689 23.7076 112.466 23.5857 116.207 26.5343C123.706 32.4438 123.451 43.9377 115.536 49.2915C114.915 49.7157 113.989 50.0995 113.208 50.444H80.2141C77.225 47.8958 73.9141 45.6824 70.2892 43.8922Z" fill="white"/>
</svg>
