<svg width="86" height="73" viewBox="0 0 86 73" fill="none" xmlns="http://www.w3.org/2000/svg">
<g clip-path="url(#clip0_145_350)">
<path d="M3.15456 70.4141V69.6835L5.81972 69.6794V71.9899C5.41056 72.3126 4.98864 72.5555 4.55375 72.7182C4.11885 72.881 3.67228 72.9626 3.21468 72.9626C2.59661 72.9626 2.03499 72.8316 1.53003 72.5697C1.02506 72.3077 0.6438 71.9289 0.386237 71.4335C0.128674 70.9378 0 70.3844 0 69.7728C0 69.1669 0.128025 68.6013 0.384291 68.0761C0.64034 67.5509 1.00884 67.1608 1.48937 66.9059C1.9699 66.651 2.52373 66.5234 3.15023 66.5234C3.60524 66.5234 4.01656 66.5964 4.3842 66.7422C4.75184 66.8881 5.04011 67.0912 5.24902 67.3519C5.45792 67.6123 5.61666 67.9522 5.72543 68.3712L4.97437 68.5752C4.87986 68.258 4.76265 68.0089 4.6223 67.8276C4.48195 67.6463 4.28169 67.5012 4.02132 67.3921C3.76094 67.2832 3.47202 67.2286 3.15434 67.2286C2.77373 67.2286 2.44458 67.2862 2.16734 67.4007C1.88966 67.5154 1.66584 67.6663 1.49564 67.8531C1.32545 68.0399 1.1931 68.2454 1.09859 68.469C0.938344 68.854 0.858328 69.2718 0.858328 69.722C0.858328 70.277 0.954996 70.7414 1.14811 71.115C1.34123 71.4889 1.62237 71.7665 1.99152 71.9475C2.36067 72.1288 2.75253 72.2193 3.16753 72.2193C3.52803 72.2193 3.8801 72.1506 4.2233 72.0132C4.56672 71.8758 4.82688 71.7295 5.00443 71.5737V70.4141H3.15456Z" fill="#F9F9FA"/>
<path d="M7.04028 69.8234C7.04028 68.7899 7.32055 67.9807 7.88153 67.3961C8.4425 66.8114 9.16632 66.519 10.0532 66.519C10.6341 66.519 11.1576 66.6564 11.6241 66.931C12.0906 67.2056 12.4459 67.5887 12.6907 68.0798C12.9355 68.571 13.0577 69.1283 13.0577 69.751C13.0577 70.3824 12.929 70.9476 12.6714 71.4458C12.4139 71.944 12.049 72.3213 11.5769 72.5777C11.1049 72.8341 10.5956 72.9623 10.0489 72.9623C9.45653 72.9623 8.92713 72.8208 8.46088 72.5377C7.99441 72.2545 7.64105 71.8678 7.40079 71.3781C7.16052 70.8883 7.04028 70.3699 7.04028 69.8236V69.8234ZM7.89861 69.836C7.89861 70.5863 8.10254 71.1776 8.51019 71.6093C8.91805 72.0411 9.42929 72.2571 10.0445 72.2571C10.671 72.2571 11.1868 72.039 11.5917 71.6029C11.9965 71.1669 12.1989 70.5482 12.1989 69.747C12.1989 69.2402 12.1124 68.7976 11.9394 68.4197C11.7662 68.0417 11.5129 67.7485 11.1797 67.5405C10.8464 67.3325 10.4723 67.2283 10.0573 67.2283C9.46778 67.2283 8.96065 67.4288 8.53592 67.8294C8.11119 68.2301 7.89861 68.8991 7.89861 69.8362V69.836Z" fill="#F9F9FA"/>
<path d="M14.3422 72.856V66.6294H15.1748V72.1211H18.2736V72.856H14.3422Z" fill="#F9F9FA"/>
<path d="M19.511 72.856V66.6294H21.6784C22.1676 66.6294 22.541 66.6591 22.7986 66.7186C23.1591 66.8008 23.4666 66.9496 23.7214 67.1649C24.0533 67.4424 24.3014 67.7968 24.466 68.2287C24.6305 68.6604 24.7129 69.1539 24.7129 69.7088C24.7129 70.1818 24.6571 70.6008 24.5455 70.9659C24.4339 71.3312 24.2908 71.6336 24.1163 71.8726C23.9417 72.1121 23.7508 72.3002 23.5434 72.4374C23.336 72.575 23.0856 72.6788 22.7923 72.7497C22.4991 72.8205 22.1619 72.8558 21.7815 72.8558H19.511V72.856ZM20.3436 72.1211H21.687C22.1018 72.1211 22.4273 72.083 22.6634 72.0066C22.8996 71.9302 23.0875 71.8224 23.2279 71.6839C23.4253 71.4885 23.5791 71.2259 23.6892 70.8959C23.7992 70.5659 23.8544 70.1661 23.8544 69.696C23.8544 69.0447 23.7462 68.5441 23.5302 68.1947C23.3142 67.845 23.0516 67.6106 22.7428 67.4916C22.5196 67.4067 22.1604 67.3641 21.6656 67.3641H20.3436V72.1211Z" fill="#F9F9FA"/>
<path d="M32.291 72.121C32.0363 72.4014 31.7588 72.6115 31.4584 72.7517C31.1581 72.8919 30.8332 72.9621 30.4842 72.9621C29.8404 72.9621 29.3296 72.747 28.952 72.3164C28.6458 71.9652 28.4927 71.5732 28.4927 71.14C28.4927 70.755 28.6179 70.4072 28.8683 70.0971C29.1187 69.7873 29.4929 69.5146 29.9907 69.2796C29.7074 68.9569 29.5186 68.6949 29.4241 68.4938C29.3296 68.2926 29.2824 68.0989 29.2824 67.9121C29.2824 67.5382 29.4306 67.2133 29.7266 66.9373C30.0227 66.6612 30.3953 66.5229 30.8447 66.5229C31.2738 66.5229 31.6252 66.6533 31.8983 66.9137C32.1714 67.1744 32.3081 67.4871 32.3081 67.8524C32.3081 68.4441 31.9119 68.9496 31.1193 69.3686L32.248 70.7914C32.3769 70.5423 32.477 70.2534 32.5484 69.9249L33.3509 70.0948C33.2136 70.6384 33.0276 71.0859 32.793 71.4368C33.0819 71.8163 33.4095 72.1349 33.7759 72.3924L33.2566 72.9998C32.9448 72.8018 32.6228 72.5086 32.2908 72.1206L32.291 72.121ZM31.8062 71.518L30.3899 69.7808C29.9721 70.0272 29.6903 70.2557 29.5443 70.4667C29.3986 70.6777 29.3255 70.8866 29.3255 71.0931C29.3255 71.3452 29.4271 71.6072 29.6302 71.879C29.8333 72.1508 30.1209 72.2867 30.4928 72.2867C30.7247 72.2867 30.9641 72.2154 31.2117 72.0722C31.4591 71.9293 31.6574 71.7446 31.8062 71.518ZM30.7201 68.8762C31.0549 68.6808 31.2716 68.5094 31.3704 68.3622C31.4693 68.2149 31.5186 68.0521 31.5186 67.8738C31.5186 67.6613 31.4504 67.4879 31.3146 67.3535C31.1786 67.2191 31.0091 67.1517 30.806 67.1517C30.5971 67.1517 30.4232 67.2183 30.2844 67.3514C30.1455 67.4845 30.0761 67.6474 30.0761 67.8398C30.0761 67.9361 30.1012 68.0373 30.1512 68.1434C30.2011 68.2496 30.2764 68.3622 30.3765 68.4811L30.7201 68.8762Z" fill="#F9F9FA"/>
<path d="M37.5902 72.856V66.6294H39.7575C40.2467 66.6294 40.6202 66.6591 40.8778 66.7186C41.2383 66.8008 41.5458 66.9496 41.8005 67.1649C42.1325 67.4424 42.3805 67.7968 42.5453 68.2287C42.7097 68.6604 42.7921 69.1539 42.7921 69.7088C42.7921 70.1818 42.7363 70.6008 42.6247 70.9659C42.5131 71.3312 42.3699 71.6336 42.1954 71.8726C42.0209 72.1121 41.8299 72.3002 41.6226 72.4374C41.4152 72.575 41.1647 72.6788 40.8715 72.7497C40.5782 72.8205 40.2411 72.8558 39.8607 72.8558H37.5902V72.856ZM38.4228 72.1211H39.7662C40.181 72.1211 40.5064 72.083 40.7426 72.0066C40.9788 71.9302 41.1667 71.8224 41.307 71.6839C41.5045 71.4885 41.6582 71.2259 41.7683 70.8959C41.8784 70.5659 41.9335 70.1661 41.9335 69.696C41.9335 69.0447 41.8254 68.5441 41.6094 68.1947C41.3933 67.845 41.1308 67.6106 40.822 67.4916C40.5988 67.4067 40.2396 67.3641 39.7448 67.3641H38.4228V72.1211Z" fill="#F9F9FA"/>
<path d="M44.3257 72.856V66.6294H45.1583V72.856H44.3257Z" fill="#F9F9FA"/>
<path d="M46.1813 72.856L48.5977 66.6294H49.4948L52.0698 72.856H51.1213L50.3873 70.9702H47.7565L47.0656 72.856H46.1813ZM47.9968 70.2992H50.1299L49.4734 68.575C49.2731 68.0511 49.1241 67.6207 49.027 67.2836C48.947 67.683 48.8339 68.0795 48.6879 68.4729L47.9968 70.2992Z" fill="#F9F9FA"/>
<path d="M52.9553 72.856V66.6294H54.2085L55.6979 71.038C55.8352 71.4487 55.9354 71.7558 55.9985 71.9598C56.0701 71.7333 56.1815 71.4005 56.3331 70.9616L57.8395 66.6294H58.9597V72.856H58.1572V67.6447L56.3289 72.856H55.5779L53.7581 67.5554V72.856H52.9553Z" fill="#F9F9FA"/>
<path d="M60.296 69.8234C60.296 68.7899 60.5765 67.9807 61.1372 67.3961C61.6978 66.8114 62.4218 66.519 63.3089 66.519C63.8896 66.519 64.4133 66.6564 64.8798 66.931C65.346 67.2056 65.7016 67.5887 65.9462 68.0798C66.1908 68.571 66.3132 69.1283 66.3132 69.751C66.3132 70.3824 66.1843 70.9476 65.9267 71.4458C65.6694 71.944 65.3043 72.3213 64.8322 72.5777C64.3601 72.8341 63.8508 72.9623 63.3044 72.9623C62.712 72.9623 62.1826 72.8208 61.7164 72.5377C61.2499 72.2545 60.8965 71.8678 60.6563 71.3781C60.416 70.8883 60.2958 70.3699 60.2958 69.8236L60.296 69.8234ZM61.1543 69.836C61.1543 70.5863 61.3583 71.1776 61.7659 71.6093C62.1735 72.0411 62.6852 72.2571 63.3003 72.2571C63.927 72.2571 64.4425 72.039 64.8476 71.6029C65.2524 71.1669 65.4548 70.5482 65.4548 69.747C65.4548 69.2402 65.3683 68.7976 65.1951 68.4197C65.0221 68.0417 64.7689 67.7485 64.4356 67.5405C64.1024 67.3325 63.7282 67.2283 63.3134 67.2283C62.7239 67.2283 62.2168 67.4288 61.7918 67.8294C61.3671 68.2301 61.1545 68.8991 61.1545 69.8362L61.1543 69.836Z" fill="#F9F9FA"/>
<path d="M67.6237 72.856V66.6294H68.4777L71.7825 71.518V66.6294H72.5807V72.856H71.7267L68.4219 67.9631V72.856H67.6237Z" fill="#F9F9FA"/>
<path d="M74.2261 72.856V66.6294H76.3934C76.8828 66.6294 77.2561 66.6591 77.5136 66.7186C77.8741 66.8008 78.1819 66.9496 78.4366 67.1649C78.7684 67.4424 79.0166 67.7968 79.1812 68.2287C79.3456 68.6604 79.4279 69.1539 79.4279 69.7088C79.4279 70.1818 79.3722 70.6008 79.2606 70.9659C79.149 71.3312 79.0058 71.6336 78.8315 71.8726C78.657 72.1121 78.466 72.3002 78.2584 72.4374C78.051 72.575 77.8008 72.6788 77.5074 72.7497C77.2139 72.8205 76.8772 72.8558 76.4966 72.8558H74.2263L74.2261 72.856ZM75.0587 72.1211H76.4021C76.8168 72.1211 77.1423 72.083 77.3785 72.0066C77.6146 71.9302 77.8025 71.8224 77.9429 71.6839C78.1403 71.4885 78.2941 71.2259 78.4042 70.8959C78.5143 70.5661 78.5694 70.1661 78.5694 69.696C78.5694 69.0447 78.4613 68.5441 78.2452 68.1947C78.0292 67.845 77.7666 67.6106 77.4576 67.4916C77.2344 67.4067 76.8752 67.3641 76.3804 67.3641H75.0585V72.1211H75.0587Z" fill="#F9F9FA"/>
<path d="M80.5367 70.8554L81.3221 70.7875C81.3593 71.0989 81.4458 71.3544 81.5819 71.5541C81.7177 71.7536 81.9285 71.9152 82.2148 72.0384C82.501 72.1615 82.8227 72.2231 83.1806 72.2231C83.4983 72.2231 83.7786 72.1762 84.0219 72.0829C84.265 71.9894 84.4458 71.8614 84.5647 71.6984C84.6834 71.5357 84.7427 71.3579 84.7427 71.1653C84.7427 70.9699 84.6856 70.7993 84.5712 70.6536C84.4566 70.5076 84.2678 70.3852 84.0046 70.2861C83.8357 70.2211 83.4624 70.1198 82.8844 69.9824C82.3063 69.845 81.9015 69.7156 81.6699 69.5938C81.3693 69.438 81.1454 69.2447 80.9982 69.014C80.8507 68.7833 80.7772 68.525 80.7772 68.2391C80.7772 67.9247 80.8673 67.6311 81.0477 67.3576C81.2278 67.0845 81.491 66.8771 81.8375 66.7355C82.1837 66.594 82.5684 66.5229 82.9919 66.5229C83.4581 66.5229 83.8696 66.5972 84.2258 66.746C84.5822 66.8947 84.856 67.1134 85.0476 67.4021C85.2392 67.691 85.3424 68.018 85.3566 68.3833L84.5584 68.4428C84.5154 68.0493 84.3703 67.7518 84.1227 67.5508C83.8751 67.3499 83.5096 67.2493 83.026 67.2493C82.5224 67.2493 82.1554 67.3407 81.9251 67.5235C81.6947 67.7062 81.5795 67.9262 81.5795 68.1839C81.5795 68.4075 81.6612 68.5916 81.8243 68.736C81.9845 68.8803 82.403 69.0284 83.0794 69.1799C83.7563 69.3312 84.2204 69.4637 84.4724 69.5769C84.8385 69.744 85.1088 69.9557 85.2835 70.2118C85.4581 70.468 85.5454 70.7631 85.5454 71.0974C85.5454 71.4285 85.4494 71.7407 85.2578 72.0339C85.0662 72.3271 84.7907 72.555 84.4317 72.7177C84.0725 72.8806 83.6685 72.9621 83.2191 72.9621C82.6497 72.9621 82.1727 72.8799 81.7877 72.7158C81.4028 72.5516 81.1011 72.3047 80.8823 71.9746C80.6634 71.6446 80.5481 71.2716 80.5367 70.8554Z" fill="#F9F9FA"/>
<path fill-rule="evenodd" clip-rule="evenodd" d="M51.7618 13.0493C58.6031 13.0493 64.1488 18.5376 64.1488 25.3074C64.1488 32.0772 58.6031 37.5657 51.7618 37.5657C45.6687 37.5657 40.6033 33.2123 39.5683 27.4775L41.1602 27.8344C42.3096 32.5743 46.6198 36.0974 51.762 36.0974C57.7837 36.0974 62.6651 31.2667 62.6651 25.3076C62.6651 19.3485 57.7837 14.5179 51.762 14.5179C50.0049 14.5179 48.3451 14.9298 46.8752 15.6605L46.2167 14.3443C47.8852 13.5161 49.7685 13.0493 51.7622 13.0493H51.7618Z" fill="white"/>
<path d="M51.7618 37.714C45.6787 37.714 40.4885 33.4199 39.4208 27.5034C39.4119 27.4544 39.4286 27.4043 39.4649 27.3701C39.5012 27.3358 39.5525 27.3217 39.6016 27.3326L41.1933 27.6896C41.2488 27.702 41.2925 27.7448 41.3059 27.7996C41.8598 30.0833 43.1919 32.1528 45.0574 33.6271C46.979 35.1459 49.2973 35.9487 51.762 35.9487C57.6914 35.9487 62.5152 31.1749 62.5152 25.3072C62.5152 19.4395 57.6914 14.6658 51.762 14.6658C50.0683 14.6658 48.4468 15.0448 46.9423 15.7925C46.9066 15.8103 46.8653 15.8133 46.8274 15.8007C46.7896 15.7882 46.7584 15.7613 46.7407 15.7258L46.0822 14.4096C46.0454 14.3364 46.0755 14.2478 46.1492 14.2112C47.9016 13.3415 49.7899 12.9004 51.762 12.9004C58.6749 12.9004 64.2989 18.4659 64.2989 25.3068C64.2989 32.1476 58.6749 37.7134 51.762 37.7134L51.7618 37.714ZM39.7577 27.672C40.8875 33.3328 45.8999 37.4174 51.7618 37.4174C58.5093 37.4174 63.999 31.985 63.999 25.3074C63.999 18.6299 58.5095 13.1977 51.7618 13.1977C49.887 13.1977 48.0897 13.606 46.4172 14.4115L46.9427 15.4619C48.4511 14.7368 50.0713 14.3696 51.7618 14.3696C57.8564 14.3696 62.8147 19.2764 62.8147 25.3076C62.8147 31.3389 57.8564 36.2457 51.7618 36.2457C49.2285 36.2457 46.8454 35.4205 44.8701 33.8593C42.9774 32.3633 41.6186 30.271 41.0365 27.959L39.7577 27.6722V27.672Z" fill="white"/>
<path fill-rule="evenodd" clip-rule="evenodd" d="M51.9517 16.6401C56.6681 16.6401 60.4913 20.4572 60.4913 25.1657C60.4913 29.1833 57.7074 32.5512 53.9607 33.4532L54.4227 32.2578C57.2851 31.1239 59.2958 28.452 59.2958 25.336C59.2958 21.1926 55.7403 17.8337 51.3542 17.8337C51.2173 17.8337 51.0813 17.8371 50.9461 17.8435L49.9651 16.8726C50.6027 16.7208 51.2677 16.6401 51.9519 16.6401H51.9517Z" fill="white"/>
<path d="M53.9605 33.6014C53.9181 33.6014 53.8768 33.5834 53.8481 33.5511C53.8113 33.5098 53.8007 33.4516 53.8206 33.4002L54.2825 32.2048C54.2975 32.1662 54.3282 32.1354 54.3669 32.12C57.2701 30.9701 59.146 28.3072 59.146 25.3361C59.146 21.281 55.6506 17.9821 51.3542 17.9821C51.2223 17.9821 51.0875 17.9853 50.9535 17.9917C50.9111 17.9941 50.8702 17.978 50.8404 17.9485L49.8592 16.9775C49.8209 16.9396 49.8062 16.884 49.8209 16.8324C49.8356 16.7808 49.8774 16.741 49.9301 16.7284C50.5901 16.5713 51.2703 16.4917 51.9519 16.4917C56.7433 16.4917 60.6414 20.3828 60.6414 25.1655C60.6414 29.1881 57.9088 32.6553 53.9962 33.5973C53.9845 33.6001 53.9726 33.6016 53.9607 33.6016L53.9605 33.6014ZM54.5392 32.3708L54.2047 33.2365C57.8326 32.2326 60.3414 28.9542 60.3414 25.1653C60.3414 20.5461 56.5779 16.7881 51.9517 16.7881C51.384 16.7881 50.8177 16.8452 50.2638 16.9582L51.0054 17.6921C51.1221 17.6874 51.2391 17.685 51.354 17.685C55.8156 17.685 59.4455 21.1171 59.4455 25.3359C59.4455 28.408 57.5219 31.1625 54.539 32.3708H54.5392Z" fill="white"/>
<path fill-rule="evenodd" clip-rule="evenodd" d="M41.8436 0.85498H56.9875C59.897 0.85498 62.2778 3.21081 62.2778 6.09032V7.0478C62.2778 9.92731 59.897 12.2831 56.9875 12.2831H45.3312L44.7272 11.0701H56.4979C58.79 11.0701 60.6649 9.21444 60.6649 6.94636V6.19197C60.6649 3.92389 58.7896 2.34342 56.4979 2.34984L50.001 2.36868L42.1225 2.31239C42.0291 2.31175 41.9357 2.3156 41.8436 2.32181V0.85498Z" fill="white"/>
<path d="M56.9875 12.4318H45.3312C45.2741 12.4318 45.2219 12.3997 45.1966 12.349L44.5924 11.136C44.5695 11.09 44.5723 11.0356 44.5996 10.9922C44.6268 10.9485 44.675 10.9222 44.7267 10.9222H56.4974C58.7126 10.9222 60.5146 9.13883 60.5146 6.9465V6.19212C60.5146 5.20382 60.152 4.32359 59.4658 3.64668C58.7152 2.90599 57.6663 2.4983 56.5119 2.4983C56.5072 2.4983 56.5026 2.4983 56.4979 2.4983L50.001 2.51713L42.1212 2.46085C42.0414 2.46063 41.956 2.4632 41.8531 2.46983C41.8113 2.47283 41.7711 2.45806 41.7408 2.43024C41.7106 2.40221 41.6935 2.36304 41.6935 2.32195V0.85534C41.6935 0.773374 41.7605 0.707031 41.8434 0.707031H56.9875C59.9872 0.707031 62.4277 3.12214 62.4277 6.09068V7.04816C62.4277 10.0167 59.9872 12.4318 56.9875 12.4318ZM45.4244 12.1352H56.9875C59.822 12.1352 62.1279 9.85319 62.1279 7.04816V6.09068C62.1279 3.28564 59.822 1.00365 56.9875 1.00365H41.9932V2.16594C42.0386 2.16444 42.081 2.16401 42.1234 2.16423L50.0019 2.22051L56.4974 2.20168H56.5123C57.747 2.20168 58.8706 2.63976 59.6779 3.43652C60.4111 4.15987 60.8148 5.13854 60.8148 6.19212V6.9465C60.8148 9.30233 58.8782 11.2188 56.4979 11.2188H44.9681L45.4244 12.1352Z" fill="white"/>
<path fill-rule="evenodd" clip-rule="evenodd" d="M39.4438 0.148438L52.0198 26.0101L49.5037 27.67L39.633 5.89889L38.7941 7.43121L48.149 26.7762L45.5684 28.053L37.633 9.28261L25.4395 33.799L22.519 33.6839L39.4438 0.148438Z" fill="white"/>
<path d="M25.4395 33.9474C25.4376 33.9474 25.4354 33.9474 25.4335 33.9474L22.5129 33.8322C22.4621 33.8303 22.4158 33.8029 22.3899 33.7595C22.3639 33.7162 22.362 33.6628 22.3849 33.6178L39.3097 0.0821717C39.3352 0.0316653 39.3878 -0.00300441 39.4448 0.000205744C39.5019 0.000633765 39.5541 0.0331633 39.5789 0.0843118L52.155 25.946C52.1874 26.0125 52.1651 26.0926 52.1031 26.1336L49.5869 27.7935C49.5501 27.8177 49.5045 27.8245 49.4623 27.8126C49.42 27.8006 49.3851 27.7706 49.3672 27.7308L39.6204 6.23347L38.9624 7.43557L48.2842 26.7123C48.3194 26.7853 48.2891 26.8728 48.2161 26.909L45.6354 28.1858C45.5982 28.2042 45.555 28.2066 45.5163 28.1922C45.4776 28.1779 45.4462 28.1483 45.4302 28.1105L37.622 9.64094L25.574 33.8648C25.5487 33.9155 25.4966 33.9476 25.4395 33.9476V33.9474ZM22.7566 33.5448L25.3481 33.6469L37.4985 9.21699C37.5245 9.16477 37.5777 9.13245 37.6376 9.13438C37.6964 9.13609 37.7485 9.17162 37.7712 9.22534L45.6447 27.8494L47.9503 26.7087L38.6592 7.49506C38.6384 7.45226 38.6397 7.40218 38.6624 7.36045L39.5011 5.82814C39.5283 5.77849 39.5822 5.74917 39.6384 5.75045C39.6955 5.75259 39.7463 5.7864 39.7694 5.83798L49.5677 27.4492L51.8282 25.9579L39.4414 0.485367L22.7569 33.5448H22.7566Z" fill="white"/>
<path fill-rule="evenodd" clip-rule="evenodd" d="M33.1723 20.2219C33.2415 20.4554 34.9512 22.6571 35.1391 22.9114L36.6302 24.904C36.7379 25.0513 37.0308 25.4709 37.148 25.5685C37.305 25.4487 39.9254 21.9635 40.1996 21.6153C40.3931 21.3699 41.1574 20.4209 41.2166 20.221L39.7829 18.8184C39.3908 18.4341 39.5331 18.5342 38.6241 18.5342H35.7639C34.8416 18.5342 34.9901 18.4409 34.6046 18.8178L33.1721 20.2217L33.1723 20.2219ZM35.608 19.9968L35.2568 18.9111L36.7083 18.9075C36.468 19.2833 35.9408 19.6871 35.608 19.9968ZM37.6802 18.9075L39.1282 18.9115L38.7638 19.9936L37.68 18.9075H37.6802ZM34.8853 19.1001L35.2358 20.0948H35.026L34.1035 20.0952L33.8905 20.0875L34.8853 19.1001ZM37.1865 19.0031L38.2894 20.086L38.071 20.0973L36.3177 20.0954L36.0982 20.0909L37.1865 19.0031ZM39.5011 19.1007L40.4941 20.0856L39.1445 20.0959C39.2132 19.8007 39.332 19.3149 39.5013 19.1007H39.5011ZM33.8079 20.4702L35.3491 20.4753L36.571 24.1317C36.4726 24.1088 36.2829 23.7989 36.1964 23.6912L35.1722 22.3318C34.7112 21.7101 34.2382 21.1135 33.8079 20.4702ZM35.7667 20.4826L38.5831 20.4738C38.4875 20.9739 37.5636 23.4513 37.2647 24.3699L37.1276 24.6333L35.7667 20.4826ZM37.7483 24.1657L39 20.4791L40.5746 20.4732C40.4682 20.6865 38.7634 22.8594 38.4728 23.2397C38.2249 23.5639 38.0102 23.8885 37.7483 24.1657Z" fill="white"/>
<path d="M37.1462 25.6639L37.0999 25.6254C37.0028 25.5445 36.8171 25.2911 36.6354 25.0386L36.5697 24.9476L35.079 22.9556C35.0425 22.9062 34.9488 22.7837 34.821 22.6168C33.8238 21.3126 33.1498 20.4099 33.1003 20.243L33.0877 20.2006L34.611 18.7077C34.8729 18.4496 34.8932 18.4423 35.3273 18.4539C35.4386 18.4569 35.5799 18.4605 35.7641 18.4605H38.6243C38.8127 18.4605 38.9544 18.4562 39.0679 18.4528C39.4922 18.44 39.5121 18.4475 39.7882 18.7195L41.3014 20.2L41.2889 20.2426C41.2387 20.4121 40.801 20.9781 40.3356 21.5645L40.2588 21.6615C40.1823 21.7586 39.9167 22.1083 39.5804 22.5511C38.3865 24.1239 37.3054 25.5426 37.1938 25.6277L37.146 25.6641L37.1462 25.6639ZM33.2614 20.2392C33.4181 20.5356 34.5144 21.9692 34.9408 22.5272C35.0693 22.6951 35.1634 22.8182 35.1999 22.8676L36.7576 24.9525C36.861 25.0961 37.0398 25.3448 37.1471 25.4627C37.4237 25.1449 38.7336 23.4198 39.461 22.4617C39.7978 22.0182 40.0635 21.6681 40.141 21.5699L40.218 21.4725C40.4215 21.2161 41.0146 20.4686 41.1288 20.2392L39.6827 18.8241C39.5238 18.6676 39.3205 18.5931 39.0726 18.6007C38.9578 18.6041 38.8151 18.6086 38.6246 18.6086H35.7643C35.5784 18.6086 35.4358 18.6048 35.3234 18.6018C35.0686 18.5951 34.8665 18.6653 34.717 18.8124L33.2614 20.2392ZM37.1118 24.8258L35.6638 20.4091L38.6734 20.3997L38.6566 20.4878C38.5945 20.8123 38.1923 21.9478 37.8374 22.9498C37.635 23.5212 37.4438 24.0607 37.3359 24.3929L37.3311 24.404L37.1118 24.8258ZM35.8699 20.5565L37.1434 24.441L37.1953 24.3413C37.3043 24.007 37.4946 23.4694 37.6962 22.9006C38.0216 21.9816 38.3871 20.9499 38.4894 20.5484L35.8699 20.5565ZM36.6843 24.2343L36.5539 24.2039C36.4607 24.1821 36.3616 24.0505 36.2213 23.8521C36.1888 23.8061 36.1599 23.765 36.1378 23.7376L35.1121 22.3763C34.9808 22.1993 34.8491 22.0249 34.7174 21.8507C34.3915 21.4194 34.0546 20.9734 33.7453 20.5112L33.6679 20.3956L35.4032 20.4016L36.6841 24.2345L36.6843 24.2343ZM33.9484 20.545C34.2337 20.9627 34.5401 21.3685 34.8374 21.7618C34.9694 21.9363 35.1015 22.1111 35.2326 22.2879L36.2565 23.6469C36.2786 23.6742 36.3095 23.7179 36.3441 23.7669C36.3577 23.7862 36.3746 23.8101 36.3932 23.8358L35.2948 20.5493L33.9484 20.545ZM37.803 24.2165L37.6771 24.1423L38.9459 20.4055L40.6952 20.3988L40.6416 20.5063C40.5618 20.6659 39.6991 21.7813 38.8968 22.8141C38.7284 23.0309 38.5962 23.2011 38.5324 23.2845C38.4609 23.3781 38.3921 23.4716 38.3242 23.564C38.1533 23.7967 37.9922 24.0162 37.803 24.2165ZM39.054 20.5533L37.9444 23.8215C38.0314 23.7108 38.1161 23.5957 38.2033 23.4769C38.2718 23.3838 38.341 23.2895 38.4131 23.1951C38.4771 23.1114 38.6094 22.941 38.7781 22.7238C39.2852 22.0711 40.1766 20.9236 40.4381 20.5482L39.054 20.5533ZM38.0748 20.1715L35.9222 20.1617L37.186 18.8986L38.4624 20.1516L38.0748 20.1715ZM36.2743 20.0204L36.3193 20.0213L38.0709 20.0232L38.1164 20.0209L37.1867 19.1083L36.2743 20.0204ZM39.0499 20.1707L39.0714 20.0791C39.1622 19.6896 39.2774 19.2635 39.442 19.055L39.4941 18.9889L40.6732 20.1585L39.0497 20.1709L39.0499 20.1707ZM39.5123 19.2171C39.3886 19.4266 39.293 19.7945 39.2387 20.0211L40.3146 20.013L39.5123 19.2171ZM34.1035 20.1696L33.7162 20.1555L34.9166 18.9641L35.3413 20.1692H35.026L34.1035 20.1696ZM34.0645 20.0198L34.1061 20.0213L35.0258 20.0207H35.13L34.8535 19.2363L34.0641 20.0198H34.0645ZM38.7965 20.1317L37.5002 18.8329L39.232 18.8378L38.7965 20.1317ZM37.8599 18.9823L38.7314 19.8554L39.0244 18.9855L37.8601 18.9823H37.8599ZM35.5729 20.1315L35.1543 18.8372L36.8448 18.8329L36.7717 18.947C36.5865 19.2363 36.2436 19.5359 35.9406 19.8004C35.8396 19.8886 35.7431 19.9727 35.6592 20.0508L35.5727 20.1313L35.5729 20.1315ZM35.3595 18.9851L35.6437 19.8636C35.7059 19.8077 35.7728 19.7495 35.8415 19.6894C36.0959 19.4674 36.3794 19.2198 36.5641 18.9821L35.3595 18.9851Z" fill="white"/>
<path fill-rule="evenodd" clip-rule="evenodd" d="M35.7667 20.4829L37.1276 24.6336L37.2647 24.3702C37.5636 23.4519 38.4875 20.9745 38.5831 20.4741L35.7667 20.4829Z" fill="white"/>
<path fill-rule="evenodd" clip-rule="evenodd" d="M37.7483 24.1657C38.0102 23.8883 38.2249 23.5639 38.4728 23.2397C38.7634 22.8596 40.4682 20.6867 40.5746 20.4731L39 20.4791L37.7483 24.1657Z" fill="white"/>
<path fill-rule="evenodd" clip-rule="evenodd" d="M33.8079 20.4702C34.2382 21.1133 34.7112 21.7102 35.1722 22.3319L36.1964 23.6913C36.2829 23.7989 36.4728 24.1088 36.571 24.1317L35.3491 20.4754L33.8079 20.4702Z" fill="white"/>
<path fill-rule="evenodd" clip-rule="evenodd" d="M36.0982 20.091L36.3177 20.0955L38.0709 20.0977L38.2893 20.0863L37.1864 19.0034L36.0982 20.091Z" fill="white"/>
<path fill-rule="evenodd" clip-rule="evenodd" d="M35.608 19.997C35.9408 19.6874 36.468 19.2835 36.7083 18.9077L35.2568 18.9114L35.608 19.997Z" fill="white"/>
<path fill-rule="evenodd" clip-rule="evenodd" d="M37.6802 18.9077L38.7641 19.9936L39.1282 18.9118L37.6802 18.9077Z" fill="white"/>
<path fill-rule="evenodd" clip-rule="evenodd" d="M39.5011 19.1011C39.3319 19.3153 39.2132 19.8011 39.1442 20.0962L40.4939 20.0859L39.5011 19.1011Z" fill="white"/>
<path fill-rule="evenodd" clip-rule="evenodd" d="M33.8904 20.0875L34.1035 20.0952L35.026 20.0948H35.236L34.8852 19.1001L33.8904 20.0875Z" fill="white"/>
<path d="M13.7573 45.8451C13.5151 45.208 13.3144 44.6997 13.155 44.3196C12.9956 43.9397 12.8005 43.5892 12.5704 43.256C12.3401 42.923 12.0389 42.654 11.6669 42.4436C11.2889 42.2332 10.8224 42.1279 10.2615 42.1279C9.71217 42.1279 9.2457 42.2332 8.87373 42.4436C8.49571 42.654 8.19468 42.9285 7.96437 43.2675C7.73405 43.6065 7.51563 44.0331 7.31473 44.5473C7.11404 45.0616 6.93671 45.5059 6.78922 45.874L1.7104 58.6378C1.50366 59.152 1.35011 59.5494 1.26166 59.8358C1.173 60.1221 1.12585 60.3967 1.12585 60.6657C1.12585 61.1333 1.3207 61.5483 1.7104 61.9106C2.1001 62.2787 2.54299 62.4658 3.05098 62.4658C3.64742 62.4658 4.07864 62.2905 4.33837 61.9457C4.60415 61.6009 4.91708 60.9405 5.28926 59.9528L6.24014 57.4339H14.3131L15.2639 59.9002C15.3879 60.2041 15.5414 60.5546 15.7187 60.9521C15.8958 61.3495 16.0613 61.6476 16.2148 61.8404C16.3684 62.0332 16.5574 62.1852 16.7819 62.2963C17.0063 62.4073 17.278 62.4658 17.5969 62.4658C18.1402 62.4658 18.6008 62.2729 18.9847 61.8931C19.3685 61.5132 19.5634 61.0925 19.5634 60.6366C19.5634 60.1983 19.3566 59.497 18.9492 58.5327L13.7581 45.8449L13.7573 45.8451ZM7.29051 54.4419L10.2314 46.33L13.2315 54.4419H7.29051Z" fill="white"/>
<path d="M24.6707 42.1279C24.0801 42.1279 23.6018 42.3325 23.2357 42.7299C22.8637 43.1331 22.6747 43.7409 22.6747 44.5415V60.0346C22.6747 60.8412 22.8637 61.4488 23.2417 61.8522C23.6137 62.2614 24.092 62.4658 24.6707 62.4658C25.273 62.4658 25.7633 62.2612 26.1413 61.858C26.5133 61.4548 26.7023 60.847 26.7023 60.0346V44.5415C26.7023 43.7292 26.5133 43.1214 26.1413 42.7239C25.7633 42.3265 25.2732 42.1279 24.6707 42.1279Z" fill="white"/>
<path d="M43.7694 51.7185C45.7537 50.8068 46.7518 49.3691 46.7518 47.3996C46.7518 46.8269 46.6514 46.2833 46.4624 45.769C46.2734 45.2548 45.996 44.7872 45.6357 44.3606C45.2754 43.9399 44.8621 43.5891 44.3896 43.3088C43.8403 42.9816 43.2144 42.7536 42.5174 42.6368C41.8265 42.5257 40.9997 42.4673 40.0549 42.4673H33.6178C32.7555 42.4673 32.1355 42.6543 31.7517 43.0342C31.3678 43.4141 31.173 44.0394 31.173 44.9042V59.6842C31.173 60.5375 31.362 61.157 31.7398 61.5427C32.1118 61.9343 32.7378 62.1271 33.6178 62.1271H39.6888C40.7342 62.1271 41.6554 62.0745 42.4407 61.9752C43.2261 61.8699 43.9229 61.6946 44.5254 61.4434C45.494 61.0226 46.2617 60.374 46.8285 59.4914C47.4014 58.6148 47.6849 57.6211 47.6849 56.5224C47.6849 54.1439 46.3798 52.5425 43.7696 51.7185H43.7694ZM35.2003 45.4536H38.4661C39.9306 45.4536 41.0173 45.6173 41.7318 45.9445C42.4463 46.2717 42.8066 46.9322 42.8066 47.9256C42.8066 48.3872 42.6885 48.808 42.464 49.1821C42.1747 49.7139 41.7553 50.0704 41.2121 50.2575C40.6628 50.4445 39.8893 50.538 38.8854 50.538H35.2003V45.4536ZM39.5231 59.1348H35.2003V53.3959H39.3873C40.7869 53.3959 41.844 53.6181 42.5469 54.0679C43.2497 54.512 43.6039 55.2309 43.6039 56.2245C43.6039 58.1647 42.2456 59.1348 39.5231 59.1348Z" fill="white"/>
<path d="M61.3207 45.8451C61.0726 45.208 60.8719 44.6997 60.7184 44.3196C60.559 43.9397 60.3642 43.5892 60.1338 43.256C59.9035 42.923 59.6023 42.654 59.2245 42.4436C58.8525 42.2332 58.38 42.1279 57.8248 42.1279C57.2697 42.1279 56.8091 42.2332 56.4311 42.4436C56.0591 42.654 55.7579 42.9285 55.5275 43.2675C55.2972 43.6065 55.0788 44.0331 54.8721 44.5473C54.6712 45.0616 54.5001 45.5059 54.3524 45.874L49.2677 58.6378C49.061 59.152 48.9135 59.5494 48.8248 59.8358C48.7303 60.1221 48.689 60.3967 48.689 60.6657C48.689 61.1333 48.8839 61.5483 49.2677 61.9106C49.6574 62.2787 50.1064 62.4658 50.6142 62.4658C51.2106 62.4658 51.6358 62.2905 51.9015 61.9457C52.1615 61.6009 52.4802 60.9405 52.8464 59.9528L53.7973 57.4339H61.876L62.8208 59.9002C62.9508 60.2041 63.1044 60.5546 63.2756 60.9521C63.4527 61.3495 63.6182 61.6476 63.7717 61.8404C63.9253 62.0332 64.1143 62.1852 64.3446 62.2963C64.5691 62.4073 64.8407 62.4658 65.1536 62.4658C65.6969 62.4658 66.1575 62.2729 66.5413 61.8931C66.9252 61.5132 67.1201 61.0925 67.1201 60.6366C67.1201 60.1983 66.9191 59.497 66.5117 58.5327L61.3207 45.8449V45.8451ZM54.8541 54.4419L57.795 46.33L60.7891 54.4419H54.8539H54.8541Z" fill="white"/>
<path d="M84.4523 58.5909L77.9587 51.6495L85.0907 45.5878C85.699 45.0151 86 44.4425 86 43.858C86 43.3788 85.8229 42.9696 85.4626 42.6306C85.1082 42.2974 84.6417 42.1279 84.063 42.1279C83.6201 42.1279 83.2657 42.2214 83.0001 42.4085C82.7343 42.6013 82.4095 42.8877 82.0315 43.2851L74.2183 50.4559L74.1296 50.5377V44.5415C74.1296 43.7292 73.9406 43.1214 73.5626 42.7239C73.1906 42.3265 72.7004 42.1279 72.092 42.1279C71.4779 42.1279 70.9937 42.3325 70.6392 42.7299C70.2789 43.1331 70.1018 43.7409 70.1018 44.5415V59.1638C70.1018 59.7891 70.1137 60.2683 70.1431 60.6015C70.1667 60.9287 70.2435 61.2211 70.3734 61.4723C70.5447 61.7762 70.7867 62.0159 71.1057 62.197C71.4186 62.3722 71.7493 62.4658 72.0918 62.4658C72.6883 62.4658 73.1785 62.2612 73.5563 61.8638C73.9343 61.4663 74.1292 60.8585 74.1292 60.0346V53.3956C74.1292 53.3956 75.9235 55.1676 78.5504 57.8789L82.1221 61.6159C82.7004 62.2184 83.2788 62.5169 83.8695 62.5176C84.3537 62.518 84.7674 62.3431 85.1101 61.9868C85.4471 61.6365 85.6188 61.1748 85.6192 60.6022C85.6196 60.1639 85.5253 59.8131 85.3365 59.5499C85.1419 59.2866 84.8528 58.965 84.4516 58.5907L84.4523 58.5909Z" fill="white"/>
</g>
<defs>
<clipPath id="clip0_145_350">
<rect width="86" height="73" fill="white"/>
</clipPath>
</defs>
</svg>
