<svg width="214" height="37" viewBox="0 0 214 37" fill="none" xmlns="http://www.w3.org/2000/svg">
<g clip-path="url(#clip0_145_236)">
<path d="M54.24 21.0245V20.9704C55.1885 19.2976 55.4257 18.3534 55.4257 16.1411V6.15904C55.4257 3.91986 55.1885 3.00247 54.24 1.32972V1.2756C58.5676 1.2756 59.6055 1.16769 62.0068 1.16769C68.4096 1.1408 69.5362 3.7306 69.5362 5.78085C69.5362 7.88523 68.3209 9.69278 65.5048 10.556C69.329 11.0956 70.6628 13.2806 70.6628 15.5202C70.6628 18.5957 68.2024 21.0238 62.0368 21.0238H54.2404L54.24 21.0245ZM62.2735 10.4761C65.2677 10.4492 66.2753 8.07484 66.2753 5.94357C66.2753 3.21897 64.5559 1.70791 61.5026 1.70791C60.3465 1.70791 59.5161 1.81582 58.8346 1.97751V10.4757H62.2732L62.2735 10.4761ZM67.0754 15.656C67.0754 12.9583 65.623 11.0156 62.5398 11.0156H58.8346V20.1612C59.5461 20.3233 60.4946 20.485 61.6212 20.485C65.2673 20.485 67.0754 18.5426 67.0754 15.656Z" fill="white"/>
<path d="M72.9463 20.9709C73.3315 20.2155 73.5986 19.2981 73.5986 17.2751V4.99943C73.5986 3.246 72.9762 2.2207 72.2648 1.51913V1.465L76.5628 0.0356445V17.2479C76.5628 19.2712 76.8299 20.2424 77.2447 20.9709V21.025H72.9463V20.9709Z" fill="white"/>
<path d="M86.8794 19.6483C85.9604 20.5926 84.4781 21.429 82.6105 21.429C80.8616 21.429 79.4387 20.6736 79.4387 19.1357C79.4387 16.4111 83.7076 15.0889 86.8199 14.6304V11.6897C86.8199 10.2868 86.1975 9.36945 84.0928 9.36945C82.9663 9.36945 81.4249 9.63905 80.1501 10.5833L80.002 10.4213C81.2176 8.85646 83.3223 7.75049 85.9009 7.75049C88.8951 7.75049 89.7845 9.28844 89.7845 10.9608V18.6496C89.7845 19.3239 90.0808 19.8366 90.9407 19.8366C91.385 19.8366 91.8597 19.7018 92.3934 19.3239L92.4525 19.378C92.0082 20.2413 91.1187 21.3476 89.3402 21.3476C87.8579 21.3476 87.0874 20.5654 86.8798 19.648L86.8794 19.6483ZM86.8196 19.1898V15.0889C84.4777 15.5747 82.2249 16.4648 82.2249 18.2455C82.2249 19.2977 82.9958 19.972 84.3887 19.972C85.3967 19.972 86.3157 19.6214 86.8196 19.1898Z" fill="white"/>
<path d="M105.082 18.0025C104.311 20.0527 102.473 21.4286 99.5383 21.4286C95.507 21.4286 92.8981 18.8116 92.8981 14.819C92.8981 10.7185 96.5146 7.75049 100.398 7.75049C102.443 7.75049 103.629 8.15523 104.311 8.45206L104.696 11.4466L104.43 11.5007C103.629 10.2058 101.584 8.23625 99.9531 8.23625C97.4336 8.23625 95.8028 10.3675 95.8028 13.6858C95.8028 17.2199 97.8484 19.1353 100.961 19.1353C102.384 19.1353 103.955 18.7847 104.903 17.8942L105.082 18.0025Z" fill="white"/>
<path d="M106.921 20.9709C107.306 20.2155 107.573 19.2981 107.573 17.2751V4.99943C107.573 3.246 106.95 2.2207 106.239 1.51913V1.465L110.537 0.0356445V17.2479C110.537 19.2712 110.833 20.2424 111.248 20.9709V21.025H106.921V20.9709ZM115.873 21.0247L110.774 14.334L114.183 10.9616C115.131 10.0446 115.487 8.88412 115.013 8.21012V8.156H118.867V8.21012C117.088 8.93859 115.813 10.0983 114.598 11.2857L113.057 12.8236L117.414 18.5431C118.304 19.7032 118.956 20.4586 119.993 20.9712V21.0253H115.873V21.0247Z" fill="white"/>
<path d="M120.468 21.0241V20.97C121.98 19.0818 122.336 18.0834 122.336 15.6553V5.05301C122.217 3.32648 121.713 2.51699 120.231 1.33V1.27588H125.626L133.245 16.6268L140.567 1.27588H145.814V1.33C144.124 2.67903 143.709 3.54229 143.709 5.83526V16.141C143.709 18.3802 143.946 19.2976 144.895 20.9703V21.0245H139.114V20.9703C140.062 19.2976 140.3 18.3533 140.3 16.141V3.38026L132.148 20.4305H131.525L122.929 3.27201L123.018 15.6553C123.047 18.0834 123.432 19.0814 125.152 20.97V21.0241H120.468Z" fill="white"/>
<path d="M155.213 19.6483C154.294 20.5926 152.811 21.429 150.944 21.429C149.195 21.429 147.772 20.6736 147.772 19.1357C147.772 16.4111 152.041 15.0889 155.153 14.6304V11.6897C155.153 10.2868 154.531 9.36945 152.426 9.36945C151.3 9.36945 149.758 9.63905 148.484 10.5833L148.335 10.4213C149.551 8.85646 151.656 7.75049 154.234 7.75049C157.228 7.75049 158.118 9.28844 158.118 10.9608V18.6496C158.118 19.3239 158.414 19.8366 159.274 19.8366C159.718 19.8366 160.193 19.7018 160.727 19.3239L160.786 19.378C160.342 20.2413 159.452 21.3476 157.674 21.3476C156.191 21.3476 155.421 20.5654 155.213 19.648L155.213 19.6483ZM155.153 19.1898V15.0889C152.811 15.5747 150.559 16.4648 150.559 18.2455C150.559 19.2977 151.33 19.972 152.722 19.972C153.73 19.972 154.649 19.6214 155.153 19.1898Z" fill="white"/>
<path d="M166.301 21.0243H162.002V20.9701C162.566 19.4863 162.684 18.1645 162.684 15.7902V12.6067C162.684 10.8264 162.061 9.82801 161.35 9.09955V9.04542L165.53 7.61572V10.2055L165.648 10.2324C166.834 8.61379 168.316 7.75018 170.184 7.75018C172.348 7.75018 173.445 8.74859 173.682 10.2052L173.771 10.2321C174.986 8.61345 176.468 7.74984 178.336 7.74984C180.796 7.74984 181.923 9.12576 181.923 11.338V15.7626C181.923 18.1907 181.982 19.4856 182.575 20.9695V21.0236H178.306V20.9695C178.84 19.4856 178.958 18.0559 178.958 15.7895V11.9586C178.958 10.5827 178.484 9.3957 176.765 9.3957C175.787 9.3957 174.571 9.77355 173.771 10.8526V15.7626C173.771 18.1907 173.83 19.4856 174.453 20.9695V21.0236H170.154V20.9695C170.718 19.4856 170.806 18.0559 170.806 15.7895V11.9586C170.806 10.5827 170.362 9.3957 168.613 9.3957C167.635 9.3957 166.419 9.77355 165.648 10.8526V15.7626C165.648 18.1097 165.708 19.4856 166.301 20.9695V21.0236V21.0243Z" fill="white"/>
<path d="M187.319 20.0804L185.837 21.2943H185.718V4.99943C185.718 3.246 185.096 2.2207 184.385 1.49224V1.43811L188.683 0.0356445V10.0177H188.742C189.75 8.9117 191.44 7.7516 193.722 7.7516C197.279 7.7516 199.414 10.5576 199.414 14.4423C199.414 18.3001 196.983 21.4297 192.092 21.4297C189.957 21.4297 188.356 20.8092 187.319 20.0807L187.319 20.0804ZM196.301 14.9546C196.301 11.0968 194.523 9.50502 191.944 9.50502C190.402 9.50502 189.335 10.0715 188.683 10.611V16.0336C188.683 19.7566 190.788 20.9436 192.389 20.9436C194.701 20.9436 196.301 18.6503 196.301 14.9546Z" fill="white"/>
<path d="M208.427 19.6483C207.508 20.5926 206.026 21.429 204.158 21.429C202.409 21.429 200.987 20.6736 200.987 19.1357C200.987 16.4111 205.255 15.0889 208.368 14.6304V11.6897C208.368 10.2868 207.745 9.36945 205.641 9.36945C204.514 9.36945 202.973 9.63905 201.698 10.5833L201.55 10.4213C202.765 8.85646 204.87 7.75049 207.449 7.75049C210.443 7.75049 211.332 9.28844 211.332 10.9608V18.6496C211.332 19.3239 211.629 19.8366 212.489 19.8366C212.933 19.8366 213.408 19.7018 213.941 19.3239L214 19.378C213.556 20.2413 212.667 21.3476 210.888 21.3476C209.406 21.3476 208.635 20.5654 208.428 19.648L208.427 19.6483ZM208.367 19.1898V15.0889C206.026 15.5747 203.773 16.4648 203.773 18.2455C203.773 19.2977 204.544 19.972 205.937 19.972C206.945 19.972 207.864 19.6214 208.367 19.1898Z" fill="white"/>
<path d="M53.924 29.1698H55.8282C56.1857 29.1698 56.5415 29.1888 56.8957 29.2273C57.2495 29.2654 57.5671 29.3485 57.848 29.4761C58.1281 29.6038 58.3563 29.7907 58.5317 30.0364C58.7067 30.2822 58.7946 30.6158 58.7946 31.0369C58.7946 31.5346 58.6297 31.9369 58.3002 32.2433C57.9703 32.5497 57.5143 32.7444 56.9327 32.8271L59.0471 35.9483H57.9635L55.9437 32.9037H54.8078V35.9483H53.9243V29.1694L53.924 29.1698ZM54.8078 32.1568H55.5966C55.842 32.1568 56.0963 32.1504 56.3593 32.1378C56.6222 32.1252 56.8646 32.0836 57.0849 32.0132C57.306 31.943 57.4881 31.8331 57.6321 31.683C57.7758 31.5332 57.848 31.3177 57.848 31.0369C57.848 30.7945 57.7952 30.5998 57.6901 30.4528C57.585 30.306 57.4462 30.1927 57.2746 30.1127C57.1025 30.033 56.9095 29.9803 56.6959 29.9547C56.482 29.9292 56.2662 29.9163 56.0492 29.9163H54.8078V32.1568Z" fill="white"/>
<path d="M69.8201 29.1694H74.5015V29.9163H70.7039V32.0418H74.2494V32.7886H70.7039V35.2014H74.6911V35.9483H69.8204L69.8201 29.1694Z" fill="white"/>
<path d="M87.9466 29.1694H88.7777L91.9447 35.9483H90.9134L90.156 34.2823H86.4321L85.6639 35.9483H84.6644L87.9466 29.1694ZM88.3464 30.2036H88.3255L86.7789 33.5355H89.8194L88.3464 30.2036Z" fill="white"/>
<path d="M102.402 29.1694H103.285V35.2014H106.694V35.9483H102.401V29.1694H102.402Z" fill="white"/>
<path d="M129.523 29.1694H134.205V29.9163H130.407V32.0418H133.953V32.7886H130.407V35.2014H134.394V35.9483H129.524L129.523 29.1694Z" fill="white"/>
<path d="M148.765 30.3667C148.618 30.1495 148.421 29.9916 148.176 29.8925C147.931 29.7935 147.674 29.7441 147.408 29.7441C147.212 29.7441 147.019 29.7666 146.829 29.8112C146.64 29.8558 146.47 29.9228 146.319 30.012C146.168 30.1015 146.047 30.2197 145.956 30.3664C145.865 30.5131 145.819 30.6857 145.819 30.8834C145.819 31.0366 145.845 31.1724 145.898 31.2902C145.951 31.4083 146.037 31.5152 146.156 31.6109C146.275 31.7065 146.436 31.7961 146.64 31.8791C146.843 31.9622 147.092 32.0452 147.387 32.128C147.674 32.211 147.953 32.3002 148.223 32.3962C148.493 32.4919 148.731 32.6134 148.938 32.7601C149.145 32.9072 149.31 33.0906 149.433 33.3105C149.555 33.5308 149.617 33.8068 149.617 34.1387C149.617 34.4771 149.543 34.7705 149.396 35.0197C149.248 35.2685 149.054 35.4745 148.812 35.6372C148.57 35.7999 148.291 35.9211 147.976 36.0011C147.66 36.0811 147.334 36.1209 146.997 36.1209C146.78 36.1209 146.562 36.1032 146.345 36.0681C146.127 36.0331 145.919 35.9786 145.719 35.9054C145.519 35.8322 145.331 35.7363 145.156 35.6181C144.981 35.5 144.83 35.355 144.703 35.1824L145.461 34.6173C145.622 34.8662 145.847 35.0548 146.135 35.1824C146.422 35.3101 146.727 35.3737 147.049 35.3737C147.239 35.3737 147.43 35.3482 147.623 35.2971C147.816 35.2461 147.989 35.1712 148.144 35.0721C148.298 34.9731 148.424 34.8505 148.522 34.7035C148.621 34.5564 148.67 34.3876 148.67 34.1959C148.67 33.9852 148.631 33.8143 148.554 33.6836C148.477 33.5529 148.358 33.4395 148.197 33.3436C148.035 33.2479 147.832 33.1618 147.586 33.0852C147.341 33.0086 147.053 32.9194 146.723 32.8169C146.457 32.7404 146.212 32.6529 145.987 32.5538C145.762 32.4548 145.568 32.3336 145.403 32.1899C145.238 32.0463 145.108 31.874 145.014 31.6728C144.919 31.472 144.871 31.231 144.871 30.9498C144.871 30.6244 144.942 30.3405 145.082 30.0978C145.222 29.8554 145.412 29.6525 145.65 29.4898C145.888 29.3271 146.158 29.2042 146.46 29.1212C146.762 29.0385 147.077 28.9966 147.407 28.9966C147.828 28.9966 148.212 29.0558 148.559 29.1739C148.906 29.2921 149.216 29.498 149.49 29.7914L148.764 30.366L148.765 30.3667Z" fill="white"/>
<path d="M165.545 29.9163H163.084V35.9483H162.2V29.9163H159.738V29.1694H165.545V29.9163Z" fill="white"/>
<path d="M177.507 29.1694H178.338L181.505 35.9483H180.474L179.717 34.2823H175.993L175.224 35.9483H174.225L177.507 29.1694ZM177.907 30.2036H177.886L176.339 33.5355H179.38L177.907 30.2036Z" fill="white"/>
<path d="M195.991 29.9163H193.53V35.9483H192.646V29.9163H190.184V29.1694H195.991V29.9163Z" fill="white"/>
<path d="M206.501 29.1694H211.183V29.9163H207.385V32.0418H210.931V32.7886H207.385V35.2014H211.372V35.9483H206.502L206.501 29.1694Z" fill="white"/>
<path d="M32.5886 15.9806C36.6125 14.6966 39.2779 11.7004 39.3303 7.70472C39.3826 1.47429 35.0449 0 29.0349 0H5.44226V0.475545C6.69678 0.475545 7.74183 1.33166 7.74183 2.42538V9.49525C7.81926 9.55516 11.2634 12.6304 11.557 12.8898V1.37898H26.5263C31.6999 1.37898 35.5671 2.18744 35.5151 7.70472C35.4594 12.1916 32.5681 14.0434 28.9223 14.795V17.107C33.3846 17.9111 36.8216 20.0788 36.8216 25.8735C36.8216 32.0089 32.7977 34.7196 26.4739 34.7196H11.557V18.9306C9.80389 18.4938 7.74183 16.446 7.74183 16.446V33.9584C7.74183 34.8146 6.33097 35.623 5.44226 35.623V36.0986H28.2506C35.6191 36.0986 40.636 33.0073 40.636 25.8728C40.636 20.5935 38.1797 17.264 32.5883 15.98L32.5886 15.9806Z" fill="white"/>
<path d="M27.3125 26.9505C27.1045 26.5049 27.0244 26.0199 27.0244 25.5358C27.0244 23.1394 27.0237 12.4554 27.0147 10.3973C27.0136 10.01 27.0099 9.68385 27.0039 9.43297C27.1138 8.92747 27.8772 8.32428 28.4544 8.22352C28.5464 8.20752 28.613 8.13501 28.613 8.04991C28.613 8.00089 28.5913 7.9563 28.5561 7.9243C28.521 7.8923 28.472 7.87256 28.4181 7.87256H25.4621C25.2721 7.87256 25.1356 7.97945 24.9826 8.08395C24.5375 8.45635 24.0965 8.86994 23.6604 9.28728C23.3537 9.56709 23.0488 9.85031 22.7455 10.1362C21.2471 11.5517 19.7779 13.0205 18.2051 14.297C17.1847 15.1245 15.9522 15.5916 14.6932 15.6399C13.435 15.5912 12.2033 15.1242 11.184 14.297C8.98396 12.5119 6.98661 10.349 4.82768 8.48495C4.67993 8.35253 4.53144 8.22249 4.38258 8.09825C4.22997 7.99374 4.09345 7.88686 3.90344 7.88686H0.947806C0.893945 7.88686 0.844946 7.90626 0.809787 7.9386C0.774254 7.9706 0.752934 8.01519 0.752934 8.06421C0.752934 8.14931 0.819512 8.22181 0.911525 8.23781C1.53504 8.34674 2.377 9.04185 2.377 9.56641V9.89218C2.35568 11.8682 2.36914 23.3378 2.37213 25.6151C2.37251 25.9719 2.32127 26.3262 2.1997 26.6653C1.89112 27.5255 1.2605 28.2264 0 28.6206C0.304839 28.9988 1.06974 28.9419 1.52569 28.9419C4.93129 28.9419 4.91782 26.0066 4.91782 26.0066C4.91782 25.947 4.94475 12.1089 4.90286 11.7869C6.50149 13.1127 7.9419 14.6493 9.52968 15.9783C10.8717 17.1016 12.1562 17.8086 14.0372 17.8995C14.2601 17.9104 15.1316 17.9101 15.3534 17.8995C17.2344 17.8086 18.5189 17.102 19.8605 15.979C21.4487 14.6497 22.8887 13.1134 24.4874 11.7876C24.4518 12.0626 24.4791 25.9351 24.4795 26.0124C24.4795 26.0124 24.4657 28.9477 27.8716 28.9477C28.3276 28.9477 29.0925 29.0045 29.3973 28.6264C28.2767 28.2761 27.654 27.6831 27.3125 26.9516V26.9505Z" fill="white"/>
</g>
<defs>
<clipPath id="clip0_145_236">
<rect width="214" height="36.121" fill="white"/>
</clipPath>
</defs>
</svg>
