<svg width="121" height="95" viewBox="0 0 121 95" fill="none" xmlns="http://www.w3.org/2000/svg">
<path d="M16.0085 16.6445L32.5165 48.8223H30.5827L13.255 15.7248L16.0085 16.6445ZM21.0032 18.5862L34.5528 48.8223H36.6915L23.7438 19.6081L20.9904 18.5862H21.0032ZM27.9316 21.3454L38.843 48.8223H40.9818L30.2753 22.3673L27.9316 21.3454ZM33.9508 23.1848L42.4161 48.8223H44.4524L35.795 21.3454L33.9637 23.1848H33.9508ZM38.1899 19.4037L46.1813 48.8223H48.1152L39.8548 17.5643L38.1899 19.4037ZM49.3446 48.8223H51.5858L44.4524 13.6937L42.8132 15.3416L49.3446 48.8223ZM47.6029 10.5258L52.7 48.8223H54.5314L49.3318 8.89071L47.6029 10.5258ZM52.8025 5.92714L55.6584 48.8223H57.4898L54.5314 3.98549L52.8025 5.92714ZM102.531 16.6445L86.0233 48.8223H87.9572L105.285 15.7248L102.531 16.6445ZM94.7832 19.6081L81.8355 48.8223H83.9742L97.5238 18.5862L94.7704 19.6081H94.7832ZM88.2645 22.3673L77.558 48.8223H79.6968L90.6082 21.3454L88.2645 22.3673ZM82.7576 21.3454L74.1002 48.8223H76.1365L84.6018 23.1848L82.7704 21.3454H82.7576ZM78.685 17.5643L70.4246 48.8223H72.3585L80.3499 19.4037L78.685 17.5643ZM75.7267 15.3416L74.0874 13.6937L66.954 48.8223H69.1952L75.7267 15.3416ZM69.1952 8.89071L63.9956 48.8223H65.827L70.9241 10.5258L69.1952 8.89071ZM64.0084 3.98549L61.0501 48.8223H62.8814L65.7373 5.92714L64.0084 3.98549ZM60.4481 0.779215L59.3724 0L58.2966 0.830311V48.8223H60.4353V0.779215H60.4481ZM7.68408 60.0889C8.74705 60.0889 9.70756 60.3955 10.5656 61.0087L12.5379 59.0287C11.1291 57.9046 9.50265 57.3425 7.68408 57.3425C6.64673 57.3425 5.6478 57.5341 4.7001 57.9301C3.75239 58.3261 2.93276 58.8499 2.254 59.5269C1.57524 60.1911 1.02454 60.9959 0.614727 61.9028C0.204909 62.8226 0 63.7934 0 64.8025V64.8281C0 65.8372 0.204909 66.8081 0.614727 67.7278C1.02454 68.6475 1.57524 69.4395 2.254 70.1038C2.93276 70.768 3.75239 71.3045 4.7001 71.6877C5.6478 72.0837 6.64673 72.2753 7.68408 72.2753C9.51546 72.2753 11.1291 71.7133 12.5379 70.5892L10.5656 68.6092C9.70756 69.2351 8.74705 69.5417 7.68408 69.5417C6.35218 69.5417 5.21237 69.0818 4.26467 68.1621C3.31696 67.2424 2.84311 66.131 2.8303 64.8281C2.8303 63.5251 3.30416 62.4138 4.25186 61.4941C5.19956 60.5743 6.35218 60.1145 7.68408 60.1145M36.6403 61.7496C36.6403 60.536 36.2048 59.4886 35.334 58.6199C34.4631 57.7513 33.4258 57.317 32.1963 57.317H24.2433V72.2498H26.9968V66.1438H31.8761L34.1045 72.2498H36.858L34.4119 65.5562C35.0907 65.173 35.6285 64.6365 36.0255 63.9595C36.4226 63.2824 36.6275 62.5415 36.6275 61.7368M32.2219 60.0889C32.683 60.0889 33.08 60.255 33.4002 60.5743C33.7203 60.8937 33.8868 61.2897 33.8868 61.7496C33.8868 62.2094 33.7203 62.6054 33.4002 62.9248C33.08 63.2441 32.683 63.4102 32.2219 63.4102H27.0096V60.0762H32.2219V60.0889ZM56.0938 57.3298C54.7363 57.3298 53.4812 57.6619 52.3414 58.3389C51.1888 59.0031 50.2795 59.9229 49.6136 61.0725C48.9476 62.2222 48.6018 63.474 48.6018 64.8281C48.6018 65.8372 48.8067 66.8081 49.2038 67.7278C49.6008 68.6475 50.1386 69.4523 50.8046 70.1165C51.4706 70.7808 52.2646 71.3173 53.1867 71.7133C54.1088 72.1093 55.0821 72.3009 56.0938 72.3009C57.4513 72.3009 58.7064 71.9688 59.859 71.2917C61.0116 70.6275 61.9209 69.7205 62.5997 68.5709C63.2656 67.4212 63.6114 66.1694 63.6114 64.8281C63.6114 63.8189 63.4065 62.8481 63.0095 61.9284C62.6125 61.0087 62.0746 60.2039 61.4086 59.5397C60.7427 58.8754 59.9487 58.3389 59.0138 57.9429C58.0789 57.5469 57.1184 57.3425 56.0938 57.3425M52.7384 68.1493C51.8163 67.2296 51.3553 66.1183 51.3553 64.8153C51.3553 63.5124 51.8163 62.3883 52.7512 61.4685C53.6733 60.5488 54.8003 60.0889 56.0938 60.0889C57.3873 60.0889 58.5143 60.5488 59.4364 61.4685C60.3713 62.3883 60.8323 63.5124 60.8323 64.8153C60.8323 66.1183 60.3713 67.2296 59.4492 68.1493C58.5271 69.0691 57.4001 69.5289 56.0938 69.5289C54.7875 69.5289 53.6605 69.0691 52.7384 68.1493ZM85.716 57.317H82.6679L79.6583 65.4412L76.6487 57.317H73.6776L79.6583 72.2626L84.192 60.932L88.7256 72.2626L94.7064 57.317H91.7352L88.7256 65.4412L85.716 57.317ZM106.437 57.317V72.2626H109.191V64.2149L118.54 72.2626V57.317H115.774V65.5434L106.437 57.317Z" fill="white"/>
<path d="M6.89064 81.7136C6.6973 81.3069 6.4173 80.9936 6.05064 80.7736C5.68397 80.5469 5.2573 80.4336 4.77064 80.4336C4.28397 80.4336 3.84397 80.5469 3.45064 80.7736C3.06397 80.9936 2.7573 81.3136 2.53064 81.7336C2.31064 82.1469 2.20064 82.6269 2.20064 83.1736C2.20064 83.7202 2.31064 84.2002 2.53064 84.6136C2.7573 85.0269 3.06397 85.3469 3.45064 85.5736C3.84397 85.7936 4.28397 85.9036 4.77064 85.9036C5.45064 85.9036 6.01064 85.7002 6.45064 85.2936C6.89064 84.8869 7.1473 84.3369 7.22064 83.6436H4.44064V82.9036H8.19064V83.6036C8.1373 84.1769 7.9573 84.7036 7.65064 85.1836C7.34397 85.6569 6.94064 86.0336 6.44064 86.3136C5.94064 86.5869 5.38397 86.7236 4.77064 86.7236C4.12397 86.7236 3.53397 86.5736 3.00064 86.2736C2.4673 85.9669 2.04397 85.5436 1.73064 85.0036C1.42397 84.4636 1.27064 83.8536 1.27064 83.1736C1.27064 82.4936 1.42397 81.8836 1.73064 81.3436C2.04397 80.7969 2.4673 80.3736 3.00064 80.0736C3.53397 79.7669 4.12397 79.6136 4.77064 79.6136C5.51064 79.6136 6.16397 79.7969 6.73064 80.1636C7.30397 80.5302 7.72064 81.0469 7.98064 81.7136H6.89064ZM14.3538 86.7336C13.7072 86.7336 13.1172 86.5836 12.5838 86.2836C12.0505 85.9769 11.6272 85.5536 11.3138 85.0136C11.0072 84.4669 10.8538 83.8536 10.8538 83.1736C10.8538 82.4936 11.0072 81.8836 11.3138 81.3436C11.6272 80.7969 12.0505 80.3736 12.5838 80.0736C13.1172 79.7669 13.7072 79.6136 14.3538 79.6136C15.0072 79.6136 15.6005 79.7669 16.1338 80.0736C16.6672 80.3736 17.0872 80.7936 17.3938 81.3336C17.7005 81.8736 17.8538 82.4869 17.8538 83.1736C17.8538 83.8602 17.7005 84.4736 17.3938 85.0136C17.0872 85.5536 16.6672 85.9769 16.1338 86.2836C15.6005 86.5836 15.0072 86.7336 14.3538 86.7336ZM14.3538 85.9436C14.8405 85.9436 15.2772 85.8302 15.6638 85.6036C16.0572 85.3769 16.3638 85.0536 16.5838 84.6336C16.8105 84.2136 16.9238 83.7269 16.9238 83.1736C16.9238 82.6136 16.8105 82.1269 16.5838 81.7136C16.3638 81.2936 16.0605 80.9702 15.6738 80.7436C15.2872 80.5169 14.8472 80.4036 14.3538 80.4036C13.8605 80.4036 13.4205 80.5169 13.0338 80.7436C12.6472 80.9702 12.3405 81.2936 12.1138 81.7136C11.8938 82.1269 11.7838 82.6136 11.7838 83.1736C11.7838 83.7269 11.8938 84.2136 12.1138 84.6336C12.3405 85.0536 12.6472 85.3769 13.0338 85.6036C13.4272 85.8302 13.8672 85.9436 14.3538 85.9436ZM21.7652 85.9236H24.2052V86.6636H20.8552V79.6936H21.7652V85.9236ZM29.1416 79.6936C29.9016 79.6936 30.5582 79.8369 31.1116 80.1236C31.6716 80.4036 32.0982 80.8069 32.3916 81.3336C32.6916 81.8602 32.8416 82.4802 32.8416 83.1936C32.8416 83.9069 32.6916 84.5269 32.3916 85.0536C32.0982 85.5736 31.6716 85.9736 31.1116 86.2536C30.5582 86.5269 29.9016 86.6636 29.1416 86.6636H26.9716V79.6936H29.1416ZM29.1416 85.9136C30.0416 85.9136 30.7282 85.6769 31.2016 85.2036C31.6749 84.7236 31.9116 84.0536 31.9116 83.1936C31.9116 82.3269 31.6716 81.6502 31.1916 81.1636C30.7182 80.6769 30.0349 80.4336 29.1416 80.4336H27.8816V85.9136H29.1416ZM45.6579 86.6636L44.7479 85.7436C44.4079 86.0969 44.0446 86.3602 43.6579 86.5336C43.2712 86.7002 42.8346 86.7836 42.3479 86.7836C41.8679 86.7836 41.4412 86.6969 41.0679 86.5236C40.7012 86.3502 40.4146 86.1036 40.2079 85.7836C40.0079 85.4636 39.9079 85.0902 39.9079 84.6636C39.9079 84.1769 40.0446 83.7502 40.3179 83.3836C40.5979 83.0102 41.0079 82.7169 41.5479 82.5036C41.3346 82.2502 41.1812 82.0169 41.0879 81.8036C40.9946 81.5902 40.9479 81.3569 40.9479 81.1036C40.9479 80.8102 41.0212 80.5469 41.1679 80.3136C41.3212 80.0736 41.5379 79.8869 41.8179 79.7536C42.0979 79.6202 42.4212 79.5536 42.7879 79.5536C43.1479 79.5536 43.4612 79.6236 43.7279 79.7636C43.9946 79.9036 44.1946 80.1002 44.3279 80.3536C44.4612 80.6002 44.5212 80.8769 44.5079 81.1836H43.5979C43.6046 80.9102 43.5279 80.6969 43.3679 80.5436C43.2079 80.3836 43.0012 80.3036 42.7479 80.3036C42.4812 80.3036 42.2646 80.3802 42.0979 80.5336C41.9379 80.6802 41.8579 80.8702 41.8579 81.1036C41.8579 81.3036 41.9112 81.4969 42.0179 81.6836C42.1312 81.8702 42.3179 82.1002 42.5779 82.3736L44.6579 84.4636L44.8379 84.1836L45.5179 83.0436H46.4979L45.6779 84.4636C45.5646 84.6636 45.4312 84.8736 45.2779 85.0936L46.8479 86.6636H45.6579ZM42.3479 86.0036C42.7079 86.0036 43.0312 85.9336 43.3179 85.7936C43.6112 85.6536 43.8879 85.4369 44.1479 85.1436L42.0979 83.0836C41.2446 83.4102 40.8179 83.9269 40.8179 84.6336C40.8179 85.0269 40.9579 85.3536 41.2379 85.6136C41.5246 85.8736 41.8946 86.0036 42.3479 86.0036ZM56.1365 79.6936C56.8965 79.6936 57.5532 79.8369 58.1065 80.1236C58.6665 80.4036 59.0932 80.8069 59.3865 81.3336C59.6865 81.8602 59.8365 82.4802 59.8365 83.1936C59.8365 83.9069 59.6865 84.5269 59.3865 85.0536C59.0932 85.5736 58.6665 85.9736 58.1065 86.2536C57.5532 86.5269 56.8965 86.6636 56.1365 86.6636H53.9665V79.6936H56.1365ZM56.1365 85.9136C57.0365 85.9136 57.7232 85.6769 58.1965 85.2036C58.6698 84.7236 58.9065 84.0536 58.9065 83.1936C58.9065 82.3269 58.6665 81.6502 58.1865 81.1636C57.7132 80.6769 57.0298 80.4336 56.1365 80.4336H54.8765V85.9136H56.1365ZM63.7468 79.6936V86.6636H62.8368V79.6936H63.7468ZM71.2177 85.1136H68.1777L67.6177 86.6636H66.6577L69.1777 79.7336H70.2277L72.7377 86.6636H71.7777L71.2177 85.1136ZM70.9577 84.3736L69.6977 80.8536L68.4377 84.3736H70.9577ZM82.706 79.7436V86.6636H81.796V81.5036L79.496 86.6636H78.856L76.546 81.4936V86.6636H75.636V79.7436H76.616L79.176 85.4636L81.736 79.7436H82.706ZM89.2093 86.7336C88.5626 86.7336 87.9726 86.5836 87.4393 86.2836C86.906 85.9769 86.4826 85.5536 86.1693 85.0136C85.8626 84.4669 85.7093 83.8536 85.7093 83.1736C85.7093 82.4936 85.8626 81.8836 86.1693 81.3436C86.4826 80.7969 86.906 80.3736 87.4393 80.0736C87.9726 79.7669 88.5626 79.6136 89.2093 79.6136C89.8626 79.6136 90.456 79.7669 90.9893 80.0736C91.5226 80.3736 91.9426 80.7936 92.2493 81.3336C92.556 81.8736 92.7093 82.4869 92.7093 83.1736C92.7093 83.8602 92.556 84.4736 92.2493 85.0136C91.9426 85.5536 91.5226 85.9769 90.9893 86.2836C90.456 86.5836 89.8626 86.7336 89.2093 86.7336ZM89.2093 85.9436C89.696 85.9436 90.1326 85.8302 90.5193 85.6036C90.9126 85.3769 91.2193 85.0536 91.4393 84.6336C91.666 84.2136 91.7793 83.7269 91.7793 83.1736C91.7793 82.6136 91.666 82.1269 91.4393 81.7136C91.2193 81.2936 90.916 80.9702 90.5293 80.7436C90.1426 80.5169 89.7026 80.4036 89.2093 80.4036C88.716 80.4036 88.276 80.5169 87.8893 80.7436C87.5026 80.9702 87.196 81.2936 86.9693 81.7136C86.7493 82.1269 86.6393 82.6136 86.6393 83.1736C86.6393 83.7269 86.7493 84.2136 86.9693 84.6336C87.196 85.0536 87.5026 85.3769 87.8893 85.6036C88.2826 85.8302 88.7226 85.9436 89.2093 85.9436ZM101.191 86.6636H100.281L96.6206 81.1136V86.6636H95.7106V79.6836H96.6206L100.281 85.2236V79.6836H101.191V86.6636ZM106.712 79.6936C107.472 79.6936 108.129 79.8369 108.682 80.1236C109.242 80.4036 109.669 80.8069 109.962 81.3336C110.262 81.8602 110.412 82.4802 110.412 83.1936C110.412 83.9069 110.262 84.5269 109.962 85.0536C109.669 85.5736 109.242 85.9736 108.682 86.2536C108.129 86.5269 107.472 86.6636 106.712 86.6636H104.542V79.6936H106.712ZM106.712 85.9136C107.612 85.9136 108.299 85.6769 108.772 85.2036C109.245 84.7236 109.482 84.0536 109.482 83.1936C109.482 82.3269 109.242 81.6502 108.762 81.1636C108.289 80.6769 107.605 80.4336 106.712 80.4336H105.452V85.9136H106.712ZM115.622 86.7336C115.162 86.7336 114.749 86.6536 114.382 86.4936C114.022 86.3269 113.739 86.1002 113.532 85.8136C113.326 85.5202 113.219 85.1836 113.212 84.8036H114.182C114.216 85.1302 114.349 85.4069 114.582 85.6336C114.822 85.8536 115.169 85.9636 115.622 85.9636C116.056 85.9636 116.396 85.8569 116.642 85.6436C116.896 85.4236 117.022 85.1436 117.022 84.8036C117.022 84.5369 116.949 84.3202 116.802 84.1536C116.656 83.9869 116.472 83.8602 116.252 83.7736C116.032 83.6869 115.736 83.5936 115.362 83.4936C114.902 83.3736 114.532 83.2536 114.252 83.1336C113.979 83.0136 113.742 82.8269 113.542 82.5736C113.349 82.3136 113.252 81.9669 113.252 81.5336C113.252 81.1536 113.349 80.8169 113.542 80.5236C113.736 80.2302 114.006 80.0036 114.352 79.8436C114.706 79.6836 115.109 79.6036 115.562 79.6036C116.216 79.6036 116.749 79.7669 117.162 80.0936C117.582 80.4202 117.819 80.8536 117.872 81.3936H116.872C116.839 81.1269 116.699 80.8936 116.452 80.6936C116.206 80.4869 115.879 80.3836 115.472 80.3836C115.092 80.3836 114.782 80.4836 114.542 80.6836C114.302 80.8769 114.182 81.1502 114.182 81.5036C114.182 81.7569 114.252 81.9636 114.392 82.1236C114.539 82.2836 114.716 82.4069 114.922 82.4936C115.136 82.5736 115.432 82.6669 115.812 82.7736C116.272 82.9002 116.642 83.0269 116.922 83.1536C117.202 83.2736 117.442 83.4636 117.642 83.7236C117.842 83.9769 117.942 84.3236 117.942 84.7636C117.942 85.1036 117.852 85.4236 117.672 85.7236C117.492 86.0236 117.226 86.2669 116.872 86.4536C116.519 86.6402 116.102 86.7336 115.622 86.7336Z" fill="#E5E0DA"/>
</svg>
