<svg width="182" height="51" viewBox="0 0 182 51" fill="none" xmlns="http://www.w3.org/2000/svg">
<path d="M54.6593 24.1882C54.5195 22.9839 54.4077 21.7796 54.184 20.5754C54.0162 19.6792 53.7367 18.811 53.4291 17.9708C52.0871 14.1899 49.9343 10.9412 46.6072 8.58869C44.4264 7.04835 42.0499 6.3762 39.3379 6.06813C39.1981 6.06813 39.0304 6.06814 38.8347 6.01213C39.1143 6.40422 39.3659 6.71228 39.5896 7.02035C40.9036 9.0368 41.7983 11.2213 42.4413 13.5178C42.7489 14.6661 43.0844 15.8143 43.3081 16.9626C43.5317 18.0828 43.6715 19.2311 43.8113 20.3793C43.9232 21.4996 44.007 22.6198 44.0629 23.7401C44.0629 24.1602 44.0629 24.5803 44.0629 25.0004C43.8672 25.0004 43.6715 24.9724 43.4758 24.9443C42.8048 24.8603 42.1058 24.8323 41.4348 24.6923C40.7918 24.5803 40.1487 24.4122 39.5057 24.2162C38.8067 23.9641 38.1916 23.544 37.7163 22.8719C37.0453 21.9197 36.8216 20.7994 36.6259 19.6232C36.5421 19.091 36.5141 18.5309 36.4582 17.9988C36.4023 17.2986 36.3463 16.6265 36.2904 15.9263C36.2625 15.4782 36.2625 15.0301 36.2345 14.554C36.2345 14.526 36.2345 14.47 36.2066 14.442C36.1506 14.526 36.1227 14.638 36.1227 14.7221C36.0668 15.5062 36.0388 16.2624 35.9829 17.0466C35.927 17.8027 35.871 18.5589 35.7592 19.2871C35.6753 19.9312 35.5355 20.6034 35.3678 21.2475C35.0602 22.5078 34.3892 23.46 33.2988 23.9641C32.8235 24.1882 32.2923 24.3562 31.7891 24.4963C30.9783 24.7203 30.1675 24.8323 29.3287 24.8883C29.0771 24.8883 28.8534 24.9163 28.6018 24.9443V4.61182C24.9951 7.04836 21.2766 9.17683 17.2785 10.9412C18.285 11.6694 18.7044 12.6776 19.0119 13.7418C19.3754 14.9461 19.4593 16.2064 19.4872 17.4667C19.4872 26.4287 19.4872 35.3907 19.4872 44.3527V44.9408H28.6018V25.3644C28.7695 25.3644 28.9373 25.3644 29.105 25.4205C29.776 25.5045 30.4191 25.5605 31.0901 25.6725C31.7611 25.7565 32.4042 25.9246 33.0193 26.2046C33.9698 26.5967 34.6968 27.2969 35.1441 28.3331C35.6474 29.5094 35.7872 30.7696 35.899 32.0299C35.9549 32.506 35.9829 33.0101 36.0388 33.4863C36.0668 34.1304 36.0947 34.8025 36.1227 35.4747C36.1227 35.6147 36.1506 35.7828 36.1786 35.9228C36.2345 35.8668 36.2625 35.8108 36.2625 35.7828C36.2625 35.5027 36.2625 35.1946 36.3184 34.9146C36.3463 34.2144 36.4023 33.5423 36.4582 32.8421C36.5141 32.254 36.57 31.6939 36.6259 31.1057C36.7098 30.2375 36.8776 29.3973 37.1851 28.6132C37.4367 27.913 37.8002 27.3249 38.3314 26.8768C38.8626 26.4287 39.4498 26.1486 40.0928 25.9806C40.7079 25.8405 41.295 25.7285 41.9101 25.5885C42.1897 25.5325 42.4693 25.5045 42.7489 25.4765C43.1962 25.4205 43.6436 25.3924 44.0629 25.3644C44.0629 25.7005 44.0629 26.0366 44.0629 26.3727C44.007 27.5489 43.9511 28.7252 43.8672 29.9015C43.8113 30.7136 43.7274 31.5538 43.5877 32.366C43.336 33.7103 43.0844 35.0826 42.7489 36.4269C42.1058 39.0035 41.1832 41.496 39.7293 43.7365C39.4777 44.1286 39.1981 44.5207 38.8906 44.9688C39.2261 44.9408 39.4777 44.9128 39.7853 44.8848C41.0993 44.7168 42.3575 44.5767 43.5597 44.0726C46.6351 42.8403 49.0396 40.7399 50.9128 38.0513C52.5904 35.6427 53.7367 32.9821 54.2679 30.0975C54.5754 28.4731 54.7152 26.8208 54.7152 25.1684C54.7152 24.8603 54.6873 24.5523 54.6593 24.2722" fill="white"/>
<path d="M11.0409 39.7356C10.6591 38.5744 10.3863 37.3579 10.1681 36.1414C9.97722 35.0632 9.86813 33.9573 9.84086 32.8514C9.81358 31.469 9.84086 30.0866 9.97722 28.7043C10.0863 27.5984 10.3045 26.4925 10.55 25.4142C10.9318 23.7554 11.5045 22.1518 12.4864 20.7418C12.8955 20.1612 13.3591 19.6083 13.7955 19.0553C12.4591 18.9724 11.15 19.0553 9.8954 19.3871C8.9681 19.6359 8.01353 19.9677 7.14078 20.41C2.99521 22.5389 0.56787 25.9395 0.0496738 30.6396C-0.0594202 31.7178 0.0224003 32.8514 0.186041 33.9296C0.376956 35.1461 0.813334 36.335 1.38608 37.4409C2.94067 40.4268 5.368 42.445 8.44991 43.6615C9.43175 44.0486 10.4409 44.3527 11.5045 44.3804C12.2682 44.408 13.0319 44.3804 13.8228 44.3804C13.7682 44.2974 13.7137 44.2145 13.6591 44.1592C12.4318 42.915 11.5864 41.3944 11.0409 39.7632" fill="white"/>
<path d="M86.8308 9.76349V20.1879C86.8308 22.2673 87.3345 22.623 87.95 22.6504C88.062 22.6504 88.1459 22.7324 88.1459 22.8419C88.1459 22.9513 88.062 23.0608 87.9221 23.0608H84.3125C84.2005 23.0608 84.0886 22.9513 84.0886 22.8419C84.0886 22.7324 84.1726 22.6504 84.2845 22.6504C84.9281 22.5956 85.4038 22.2399 85.4038 20.1879V9.76349C85.4038 7.68407 84.9001 7.35574 84.2845 7.32838C84.1726 7.32838 84.0886 7.21894 84.0886 7.1095C84.0886 7.00005 84.2005 6.91797 84.3125 6.91797H87.9221C88.062 6.91797 88.1459 7.00005 88.1459 7.1095C88.1459 7.21894 88.062 7.30102 87.95 7.32838C87.3065 7.3831 86.8308 7.71144 86.8308 9.76349ZM97.9114 14.9894C97.9114 19.4492 94.7495 23.0608 89.6569 23.0608H88.9014C88.7895 23.0608 88.7055 22.9513 88.7055 22.8419C88.7055 22.7324 88.7895 22.6504 88.9014 22.6504C91.2239 22.5956 93.0426 21.7475 94.2738 20.4068C95.589 19.0387 96.2605 17.0961 96.2605 14.9894C96.2605 10.8032 94.1339 7.41046 88.9014 7.32838C88.7895 7.32838 88.7055 7.21894 88.7055 7.1095C88.7055 7.00005 88.7895 6.91797 88.9014 6.91797H89.6569C92.455 6.91797 94.5257 7.82086 95.8688 9.27098C97.2399 10.7211 97.9114 12.7458 97.9114 14.962" fill="white"/>
<path d="M103.925 22.8419C103.925 22.9513 103.845 23.0608 103.738 23.0608H100.255C100.148 23.0608 100.068 22.9513 100.068 22.8419C100.068 22.7324 100.148 22.6504 100.255 22.6504C100.872 22.5956 101.327 22.2399 101.327 20.1879V16.0291L98.6213 10.0644C97.7909 8.09448 97.0408 7.43782 96.3711 7.32838C96.264 7.32838 96.1836 7.21893 96.1836 7.13685C96.1836 7.00005 96.2907 6.91797 96.3979 6.91797H100.068C100.175 6.91797 100.255 7.00005 100.255 7.1095C100.255 7.2463 100.175 7.30102 100.095 7.32838C99.8 7.3831 99.5321 7.62935 99.5321 8.1492C99.5321 8.66905 99.6661 9.0521 100.014 9.79084L102.506 15.2903L102.586 15.5092C102.666 15.7008 102.72 15.8923 102.72 16.0838V20.2153C102.72 22.2947 103.202 22.6504 103.791 22.6777C103.899 22.6777 103.979 22.7598 103.979 22.8692M107.515 6.94532C107.622 6.94532 107.703 7.02742 107.703 7.16422C107.703 7.30102 107.649 7.32837 107.542 7.35573C106.952 7.43781 106.31 7.93031 105.56 9.68139L103.095 14.8252C103.041 14.9073 102.988 14.962 102.907 14.962C102.827 14.962 102.774 14.9073 102.747 14.8526C102.747 14.7978 102.747 14.7978 102.747 14.7431C102.747 14.6884 102.747 14.6884 102.747 14.661L104.917 9.59931C105.184 8.99738 105.292 8.53225 105.292 8.20392C105.292 7.68407 105.051 7.43781 104.783 7.35573C104.702 7.35573 104.622 7.27366 104.622 7.19158V7.13685C104.622 7.02741 104.702 6.94532 104.809 6.94532H107.542H107.515Z" fill="white"/>
<path d="M112.454 22.8419C112.454 22.9513 112.339 23.0608 112.224 23.0608H108.509C108.394 23.0608 108.278 22.9513 108.278 22.8419C108.278 22.7324 108.365 22.6504 108.48 22.6504C109.142 22.5956 109.632 22.2399 109.632 20.1879V9.76349C109.632 7.68407 109.114 7.35574 108.48 7.32838C108.365 7.32838 108.278 7.21894 108.278 7.1095C108.278 7.00005 108.394 6.91797 108.509 6.91797H112.224C112.339 6.91797 112.454 7.00005 112.454 7.1095C112.454 7.21894 112.368 7.30102 112.252 7.32838C111.59 7.3831 111.101 7.71144 111.101 9.76349V20.1879C111.101 22.2673 111.619 22.623 112.252 22.6504C112.368 22.6504 112.454 22.7324 112.454 22.8419ZM112.857 7.1095C112.857 7.00005 112.972 6.91797 113.088 6.91797H113.923C117.033 6.91797 118.559 8.9153 118.559 11.3504C118.559 13.7855 117.033 15.7555 113.923 15.7555H111.821C111.705 15.7555 111.619 15.6734 111.619 15.5639C111.619 15.4545 111.705 15.3724 111.821 15.3724H112.886C115.766 15.3724 117.033 13.5666 117.033 11.3504C117.033 9.13419 115.852 7.41046 113.088 7.32838C112.972 7.32838 112.857 7.21894 112.857 7.1095ZM119.221 22.8419C119.221 22.9513 119.106 23.0608 118.991 23.0608H117.004C116.687 23.0608 116.371 22.8419 116.227 22.5683L113.577 16.248C113.577 16.248 113.577 16.1932 113.577 16.1659C113.577 16.0838 113.635 16.0291 113.692 15.9743C113.75 15.9743 113.779 15.9743 113.808 15.9743C113.865 15.9743 113.952 16.0291 113.98 16.0838L116.63 20.2973C117.638 21.8843 118.444 22.5409 119.02 22.6504C119.135 22.6504 119.221 22.7598 119.221 22.8692" fill="white"/>
<path d="M122.726 22.8426C122.726 22.9517 122.645 23.0608 122.509 23.0608H120.014C119.879 23.0608 119.797 22.9517 119.797 22.8426C119.797 22.7336 119.852 22.6518 119.96 22.6245C120.448 22.4881 120.991 21.7519 121.56 20.0067L125.004 9.18123C125.059 9.07216 125.086 9.04489 125.14 9.04489C125.194 9.04489 125.248 9.09942 125.248 9.18123V9.23577L122.32 19.734C122.075 20.5248 121.967 21.1247 121.967 21.5338C121.967 22.2427 122.238 22.5427 122.536 22.6245C122.645 22.6245 122.699 22.7336 122.699 22.8426M131.892 22.8426C131.892 22.9517 131.811 23.0608 131.675 23.0608H127.797C127.662 23.0608 127.581 22.9517 127.581 22.8426C127.581 22.7336 127.635 22.6518 127.743 22.6245C128.177 22.5427 128.665 22.1336 128.665 21.1793C128.665 20.2249 128.611 20.443 128.448 19.9249L127.96 18.207L123.187 18.1525C123.133 18.1525 123.079 18.0979 123.079 18.0161C123.079 17.9343 123.133 17.9071 123.187 17.9071L127.879 17.8525L125.14 8.0087C125.031 7.65421 124.76 7.38153 124.408 7.32699C124.299 7.32699 124.245 7.21792 124.245 7.13611C124.245 6.99977 124.326 6.91797 124.462 6.91797H125.872C126.116 6.91797 126.333 7.08158 126.387 7.32699L129.316 17.8525L129.425 18.2343L129.913 20.034C130.428 21.861 131.025 22.5154 131.703 22.5972C131.784 22.5972 131.865 22.7063 131.865 22.8153" fill="white"/>
<path d="M86.8308 31.1971V41.9939C86.8308 44.1475 87.3345 44.5159 87.95 44.5443C88.062 44.5443 88.1459 44.6293 88.1459 44.7426C88.1459 44.856 88.062 44.9693 87.9221 44.9693H84.3125C84.2005 44.9693 84.0886 44.856 84.0886 44.7426C84.0886 44.6293 84.1726 44.5443 84.2845 44.5443C84.9281 44.4876 85.4038 44.1475 85.4038 41.9939V31.1971C85.4038 29.0434 84.9001 28.7034 84.2845 28.6751C84.1726 28.6751 84.0886 28.5617 84.0886 28.4484C84.0886 28.335 84.2005 28.25 84.3125 28.25H87.9221C88.062 28.25 88.1459 28.335 88.1459 28.4484C88.1459 28.5617 88.062 28.6467 87.95 28.6751C87.3065 28.7317 86.8308 29.0718 86.8308 31.1971ZM97.9114 36.6097C97.9114 41.2287 94.7495 44.9693 89.6569 44.9693H88.9014C88.7895 44.9693 88.7055 44.856 88.7055 44.7426C88.7055 44.6293 88.7895 44.5443 88.9014 44.5443C91.2239 44.4876 93.0426 43.6091 94.2738 42.2206C95.589 40.8037 96.2605 38.7917 96.2605 36.6097C96.2605 32.274 94.1339 28.7601 88.9014 28.6751C88.7895 28.6751 88.7055 28.5617 88.7055 28.4484C88.7055 28.335 88.7895 28.25 88.9014 28.25H89.6569C92.455 28.25 94.5257 29.1851 95.8688 30.687C97.2399 32.189 97.9114 34.286 97.9114 36.5813" fill="white"/>
<path d="M102.323 28.6751C101.707 28.7317 101.203 29.0718 101.203 31.1971V41.9939C101.203 44.1475 101.707 44.5159 102.323 44.5443C102.435 44.5443 102.519 44.6293 102.519 44.7426C102.519 44.856 102.435 44.9693 102.323 44.9693H98.6833C98.5713 44.9693 98.4873 44.856 98.4873 44.7426C98.4873 44.6293 98.5713 44.5443 98.6833 44.5443C99.2992 44.4876 99.8032 44.1192 99.8032 41.9939V31.1971C99.8032 29.0434 99.2992 28.7034 98.6833 28.6751C98.5713 28.6751 98.4873 28.5617 98.4873 28.4484C98.4873 28.335 98.5713 28.25 98.6833 28.25H102.323C102.435 28.25 102.519 28.335 102.519 28.4484C102.519 28.5617 102.435 28.6467 102.323 28.6751Z" fill="white"/>
<path d="M106.03 44.7434C106.03 44.8563 105.949 44.9693 105.813 44.9693H103.312C103.177 44.9693 103.095 44.8563 103.095 44.7434C103.095 44.6304 103.149 44.5457 103.258 44.5174C103.747 44.3762 104.291 43.6137 104.862 41.8062L108.313 30.5941C108.368 30.4811 108.395 30.4529 108.449 30.4529C108.504 30.4529 108.558 30.5094 108.558 30.5941V30.6506L105.623 41.5238C105.378 42.3428 105.269 42.9641 105.269 43.3878C105.269 44.1221 105.541 44.4327 105.84 44.5174C105.949 44.5174 106.003 44.6304 106.003 44.7434M115.19 44.7434C115.19 44.8563 115.108 44.9693 114.972 44.9693H111.086C110.95 44.9693 110.868 44.8563 110.868 44.7434C110.868 44.6304 110.923 44.5457 111.031 44.5174C111.466 44.4327 111.956 44.0091 111.956 43.0206C111.956 42.0321 111.901 42.2581 111.738 41.7215L111.249 39.9422L106.465 39.8857C106.411 39.8857 106.357 39.8293 106.357 39.7445C106.357 39.6598 106.411 39.6316 106.465 39.6316L111.167 39.5751L108.422 29.3797C108.313 29.0125 108.042 28.7301 107.688 28.6736C107.58 28.6736 107.525 28.5607 107.525 28.4759C107.525 28.3347 107.607 28.25 107.743 28.25H109.156C109.401 28.25 109.618 28.4195 109.672 28.6736L112.608 39.5751L112.717 39.9705L113.206 41.8344C113.722 43.7267 114.32 44.4045 115 44.4892C115.081 44.4892 115.163 44.6022 115.163 44.7151" fill="white"/>
<path d="M119.721 44.743C119.721 44.8562 119.638 44.9693 119.527 44.9693H116.536C116.425 44.9693 116.342 44.8562 116.342 44.743C116.342 44.6298 116.425 44.545 116.536 44.545C117.173 44.4884 117.644 44.1206 117.644 41.9989V30.8527C117.644 30.7112 117.755 30.6546 117.865 30.6546C117.976 30.6546 117.948 30.6546 118.004 30.7112C118.059 30.7678 118.059 30.7961 118.059 30.8527L118.447 41.9989C118.447 44.1489 118.946 44.5167 119.555 44.545C119.666 44.545 119.749 44.6298 119.749 44.743M127.117 29.8342L123.544 40.6127L123.045 42.0838C122.99 42.1969 122.907 42.2535 122.824 42.2535C122.741 42.2535 122.63 42.1969 122.602 42.112L117.865 29.4099V29.3533C117.644 28.8441 117.339 28.7026 116.979 28.6743C116.868 28.6743 116.785 28.5612 116.785 28.448C116.785 28.3349 116.896 28.25 117.007 28.25H118.392C118.724 28.25 119.029 28.4763 119.14 28.7875L123.212 39.7923L126.674 29.6362C126.73 29.5231 126.813 29.4948 126.896 29.4948C126.979 29.4948 127.117 29.5796 127.117 29.7211C127.117 29.8625 127.117 29.7777 127.117 29.8059M130.165 44.743C130.165 44.8562 130.054 44.9693 129.943 44.9693H126.37C126.259 44.9693 126.148 44.8562 126.148 44.743C126.148 44.6298 126.231 44.545 126.342 44.545C126.979 44.4884 127.45 44.1206 127.45 41.9989V28.8158C127.45 28.5046 127.671 28.2783 127.976 28.2783H129.915C130.026 28.2783 130.137 28.3632 130.137 28.4763C130.137 28.5895 130.054 28.6744 129.943 28.7026C129.306 28.7592 128.835 29.0987 128.835 31.2204V41.9989C128.835 44.1489 129.334 44.5167 129.943 44.545C130.054 44.545 130.137 44.6298 130.137 44.743" fill="white"/>
<path d="M138.379 28.25C138.516 28.25 138.598 28.333 138.598 28.4438C138.598 28.5545 138.516 28.6375 138.407 28.6652C134.464 28.8867 132.192 32.4575 132.192 36.6097C132.192 40.7618 134.464 44.3327 138.407 44.5541C138.516 44.5541 138.598 44.6372 138.598 44.7479C138.598 44.8586 138.516 44.9693 138.379 44.9693C133.643 44.7479 130.74 40.9833 130.74 36.6097C130.74 32.2361 133.643 28.4438 138.379 28.25ZM139.201 28.25C143.937 28.4438 146.867 32.2084 146.867 36.6097C146.867 41.0109 143.937 44.7479 139.201 44.9693C139.091 44.9693 138.982 44.8586 138.982 44.7479C138.982 44.6372 139.064 44.5541 139.173 44.5541C143.089 44.3327 145.389 40.7618 145.389 36.6097C145.389 32.4575 143.116 28.8867 139.173 28.6652C139.064 28.6652 138.982 28.5545 138.982 28.4438C138.982 28.333 139.091 28.25 139.201 28.25Z" fill="white"/>
<path d="M158.768 28.25C158.879 28.25 158.962 28.335 158.962 28.4484C158.962 28.5617 158.879 28.6467 158.768 28.6751C158.159 28.7317 157.661 29.0718 157.661 31.1971V44.3175C157.661 44.6576 157.384 44.9693 157.024 44.9693C156.664 44.9693 156.581 44.8276 156.47 44.6293L148.523 29.3835C148.468 29.2418 148.385 29.1285 148.329 29.0435C148.135 28.7884 147.914 28.7317 147.637 28.7034C147.526 28.7034 147.443 28.5901 147.443 28.4767C147.443 28.3633 147.526 28.2783 147.665 28.2783H149.575L157.245 43.099V31.2255C157.245 29.0718 156.747 28.7317 156.138 28.7034C156.027 28.7034 155.944 28.5901 155.944 28.4767C155.944 28.3633 156.027 28.2783 156.138 28.2783H158.741L158.768 28.25ZM150.849 44.7426C150.849 44.856 150.766 44.9693 150.655 44.9693H147.665C147.526 44.9693 147.443 44.856 147.443 44.7426C147.443 44.6293 147.526 44.5443 147.637 44.5443C148.274 44.4876 148.745 44.1192 148.745 41.9939V31.5372C148.745 31.4238 148.855 31.3388 148.966 31.3388C149.077 31.3388 149.16 31.4238 149.188 31.5372L149.575 41.9939C149.575 44.1475 150.074 44.5159 150.683 44.5443C150.794 44.5443 150.877 44.6293 150.877 44.7426" fill="white"/>
<path d="M162.28 31.1971V41.9939C162.28 44.1475 162.784 44.5159 163.399 44.5443C163.511 44.5443 163.595 44.6293 163.595 44.7426C163.595 44.856 163.511 44.9693 163.371 44.9693H159.762C159.65 44.9693 159.538 44.856 159.538 44.7426C159.538 44.6293 159.622 44.5443 159.734 44.5443C160.377 44.4876 160.853 44.1475 160.853 41.9939V31.1971C160.853 29.0434 160.349 28.7034 159.734 28.6751C159.622 28.6751 159.538 28.5617 159.538 28.4484C159.538 28.335 159.65 28.25 159.762 28.25H163.371C163.511 28.25 163.595 28.335 163.595 28.4484C163.595 28.5617 163.511 28.6467 163.399 28.6751C162.756 28.7317 162.28 29.0718 162.28 31.1971ZM173.361 36.6097C173.361 41.2287 170.199 44.9693 165.106 44.9693H164.351C164.239 44.9693 164.155 44.856 164.155 44.7426C164.155 44.6293 164.239 44.5443 164.351 44.5443C166.673 44.4876 168.492 43.6091 169.723 42.2206C171.038 40.8037 171.71 38.7917 171.71 36.6097C171.71 32.274 169.583 28.7601 164.351 28.6751C164.239 28.6751 164.155 28.5617 164.155 28.4484C164.155 28.335 164.239 28.25 164.351 28.25H165.106C167.904 28.25 169.975 29.1851 171.318 30.687C172.689 32.189 173.361 34.286 173.361 36.5813" fill="white"/>
<path d="M177.262 44.7202C177.262 44.8586 177.179 44.9417 177.039 44.9417C175.284 44.8032 174.002 43.9175 173.528 43.3915C173.444 43.2531 173.361 43.1701 173.361 43.004V42.9486C173.361 42.6441 173.612 42.4504 173.862 42.4504C174.113 42.4504 174.141 42.5057 174.253 42.6441C174.921 43.5299 175.674 44.388 177.095 44.5264C177.179 44.5264 177.262 44.6372 177.262 44.7202ZM182 40.7341C182 43.4746 179.994 44.8309 177.903 44.9693C177.764 44.9693 177.68 44.8863 177.68 44.7479C177.68 44.6095 177.736 44.5541 177.848 44.5541C178.795 44.4988 180.579 44.0559 180.579 41.3708C180.579 38.6857 179.185 38.2982 177.653 36.9142C177.513 36.8034 177.374 36.6927 177.235 36.5543C175.479 34.9488 173.64 33.3433 173.64 31.378C173.64 29.4126 175.005 28.3884 177.012 28.25C177.151 28.25 177.235 28.333 177.235 28.4438C177.235 28.5822 177.179 28.6652 177.067 28.6652C176.231 28.7483 175.033 29.1635 175.033 30.8243C175.033 32.4852 176.036 33.2879 177.235 34.4229C177.374 34.5613 177.513 34.672 177.653 34.8104C179.603 36.582 181.972 38.4089 181.972 40.7618M177.68 28.4714C177.68 28.3607 177.736 28.2777 177.848 28.2777H177.903C178.99 28.3607 180.021 28.7759 180.718 29.3295C180.857 29.4403 181.025 29.634 181.025 29.8555C181.025 30.0769 181.025 29.9939 180.969 30.0769C180.885 30.2153 180.718 30.2984 180.551 30.2984C180.384 30.2984 180.189 30.2153 180.077 30.0216C179.659 29.3019 178.767 28.7759 177.876 28.6652C177.764 28.6652 177.708 28.5822 177.708 28.4714" fill="white"/>
<path d="M69.6898 0H69.1139V50.7345H69.6898V0Z" fill="white"/>
</svg>
