<svg width="207" height="46" viewBox="0 0 207 46" fill="none" xmlns="http://www.w3.org/2000/svg">
<path d="M35.9548 16.3771L35.465 15.6636L32.5521 11.4304H17.3688L14.453 15.6636L13.9632 16.3771L11.5773 19.8453L14.4472 22.875L19.2592 27.9517L22.0919 24.9583L16.8331 19.4069L19.4081 15.6636H30.5099L33.0849 19.4038L24.959 27.982H24.9561L22.1234 30.9754L19.262 33.9961L12.0384 26.3734L9.16844 23.3437L5.25588 19.2103L7.66185 15.7119L7.61602 15.6636H7.69622L10.0478 12.2438L10.6092 11.4304L14.1465 6.2932H20.74L18.6462 4.07987L20.5595 2.06006H12.1014L9.18849 6.2932L7.17779 9.21406L5.65401 11.4304L4.79187 12.6822L2.74108 15.6636L2.38591 16.1806L0 19.6488L2.8671 22.6785L9.65249 29.8415L16.4264 36.9895L19.262 39.9829L22.0976 36.9895L38.3407 19.8423L35.9548 16.3771ZM47.535 16.1836L47.1798 15.6636L45.1261 12.6822L44.264 11.4304L42.7402 9.21406L40.7295 6.2932L37.8166 2.06006H29.3212L31.2747 4.1222L29.2153 6.2932H35.7715L39.3088 11.4304L39.8702 12.2438L42.2218 15.6636H42.302L42.2562 15.7119L44.665 19.2133L40.7496 23.3437L37.8796 26.3734L30.6588 33.9991L27.8204 36.9925L24.9619 40.0132L22.1234 43.0066L24.9619 46L27.7975 43.0066L30.6588 39.986L40.2684 29.8415L43.1355 26.8118L47.0509 22.6815L49.9209 19.6488L47.535 16.1836Z" fill="white"/>
<path d="M28.8442 4.12066L26.0301 7.08748L24.976 8.20019L23.9223 7.08748L21.0767 4.07954L24.9408 0L28.8442 4.12066Z" fill="white"/>
<path d="M80.7285 0.275079L79.2183 1.86938L80.6679 3.39971L82.1781 1.8054L80.7285 0.275079Z" fill="white"/>
<path d="M104.273 1.69927L102.748 3.30933L104.197 4.83965L105.722 3.22959L104.273 1.69927Z" fill="white"/>
<path d="M107.369 1.69878L105.844 3.30884L107.294 4.83916L108.819 3.22911L107.369 1.69878Z" fill="white"/>
<path d="M116.172 -0.000107031L114.647 1.60962L116.112 3.15602L117.637 1.54629L116.172 -0.000107031Z" fill="white"/>
<path d="M79.1801 3.22401L77.6553 4.83374L79.1201 6.38014L80.645 4.77041L79.1801 3.22401Z" fill="white"/>
<path d="M82.2763 3.22377L80.7515 4.8335L82.2163 6.3799L83.7412 4.77017L82.2763 3.22377Z" fill="white"/>
<path d="M94.345 16.7054L92.8198 18.3154L94.2847 19.8618L95.8099 18.2518L94.345 16.7054Z" fill="white"/>
<path d="M97.4383 16.7137L95.9131 18.3237L97.3627 19.8541L98.8879 18.2441L97.4383 16.7137Z" fill="white"/>
<path d="M116.132 3.86795C115.192 3.79835 114.339 4.09068 113.592 4.74495C112.673 5.53379 112.181 6.63816 112.137 8.10448C112.097 9.16245 112.396 10.0905 113.033 10.8793C113.719 11.7099 114.594 12.1415 115.64 12.1415H117.477V12.7725C117.455 13.4686 117.178 13.8073 116.625 13.8073H110.537C109.618 13.8073 108.871 13.7424 108.295 13.6264C109.297 12.5684 109.789 11.3944 109.789 10.0673C109.789 8.82836 109.381 7.85855 108.572 7.13467C107.847 6.4804 106.928 6.14166 105.838 6.14166C104.748 6.14166 103.829 6.4804 103.104 7.13467C102.313 7.85855 101.908 8.82836 101.908 10.0673C101.908 11.3944 102.418 12.5916 103.425 13.6264C102.888 13.7424 102.141 13.8073 101.223 13.8073H100.647V13.8083H99.3443C98.917 13.8083 98.5329 13.6055 98.1698 13.1772C97.7214 12.7039 97.5078 12.0723 97.5078 11.2835C97.4652 9.7731 97.4436 8.60098 97.4436 7.76667H95.2015L95.2441 12.2306C95.2441 12.7489 95.0305 13.1544 94.5821 13.4477C94.2406 13.6955 93.8775 13.8083 93.4718 13.8083H89.3053C88.8995 13.8083 88.5149 13.6277 88.1519 13.2449C87.7246 12.8162 87.4899 12.2524 87.4683 11.5536C87.4468 9.81811 87.4257 8.55551 87.4257 7.76621H85.1835C85.2051 10.9898 85.2051 12.5456 85.2051 12.4779C85.2051 13.4927 84.7778 13.9883 83.9022 13.9883C83.3255 13.9883 82.8772 13.7855 82.5141 13.3795C82.1084 12.9512 81.9163 12.3201 81.8948 11.4858C81.8732 10.0654 81.8521 9.05109 81.8521 8.42002H79.61C79.6315 10.7875 79.6315 12.1401 79.6315 12.4552C79.6315 13.47 79.2042 13.9883 78.3286 13.9883C77.7519 13.9883 77.2821 13.7855 76.919 13.3795C76.5344 12.9285 76.3423 12.2974 76.3212 11.4631V8.41955H74.079C74.079 8.98334 74.1005 11.012 74.1216 14.5289C74.1216 15.611 73.7801 16.5353 73.0966 17.3019C72.4346 18.0684 71.6232 18.4522 70.6834 18.4522C69.7226 18.4522 68.9111 18.0689 68.2487 17.3019C67.5868 16.5581 67.2452 15.6337 67.2452 14.5744C67.2237 13.2217 67.2237 11.6659 67.2237 9.92995H64.938L65.0233 14.5289C65.0233 16.3103 65.5784 17.7979 66.6892 19.0378C67.7995 20.2781 69.1239 20.9087 70.6826 20.9087C72.2412 20.9087 73.5867 20.2781 74.6759 19.0378C75.6583 17.9334 76.2135 16.6258 76.3203 15.1154C76.9181 15.927 77.7511 16.3325 78.8403 16.3103C80.1858 16.2875 81.104 15.6787 81.5524 14.5289C82.1501 15.7465 83.1115 16.3325 84.4139 16.3103C85.9088 16.2875 86.8486 15.566 87.2543 14.1683C87.4464 14.7321 87.7668 15.1832 88.2152 15.521C88.6209 15.837 89.0481 15.9947 89.4538 15.9947H94.3254C95.4999 15.972 96.6102 15.2732 96.9733 14.1683C97.0801 14.5066 97.2722 14.8221 97.5074 15.1377C97.9557 15.7015 98.5109 15.9947 99.1518 15.9947H100.647V15.997H102.379C103.508 15.997 104.682 15.7465 105.86 15.2268C107.033 15.7465 108.207 15.997 109.381 15.997H117.86C119.165 15.997 119.803 15.3428 119.785 14.011V7.44974C119.763 5.26419 118.545 4.06701 116.132 3.86748V3.86795ZM106.818 11.9837C106.435 12.4802 106.114 12.7261 105.859 12.7261C105.6 12.7261 105.284 12.4802 104.897 11.9837C104.404 11.3526 104.171 10.6752 104.171 9.97449C104.171 8.87011 104.813 7.94671 105.859 7.94671C106.369 7.94671 106.778 8.15088 107.095 8.57778C107.376 8.96292 107.525 9.41302 107.525 9.97449C107.525 10.6752 107.288 11.3526 106.818 11.9837ZM115.982 9.97403C115.042 9.97403 114.316 9.07382 114.338 7.96945C114.422 6.50313 115.064 5.55653 116.066 5.55653C116.514 5.55653 116.879 5.76069 117.134 6.1644C117.349 6.47993 117.455 6.7305 117.455 6.93468C117.455 7.111 117.455 8.12722 117.477 9.97403H115.982Z" fill="white"/>
<path d="M137.936 7.76611L138 12.5455C138 13.3799 137.722 13.8082 137.167 13.8082H131.743C130.419 13.8082 129.437 13.1093 128.817 11.734C128.326 10.6746 128.091 9.36653 128.091 7.76611H125.849C125.806 9.95305 126.169 11.7567 126.959 13.2221C127.963 15.0703 129.522 15.9951 131.636 15.9951H138.256C139.346 15.9951 140.093 15.3186 140.242 14.2365C140.242 11.0806 140.221 8.91642 140.2 7.76657L137.936 7.76611Z" fill="white"/>
<path d="M131.759 5.05748L130.234 6.66724L131.684 8.19753L133.208 6.58778L131.759 5.05748Z" fill="white"/>
<path d="M134.855 5.05724L133.331 6.66699L134.78 8.19729L136.305 6.58753L134.855 5.05724Z" fill="white"/>
<path d="M145.262 1.40918H143.02L143.126 15.9953H145.369L145.262 1.40918Z" fill="white"/>
<path d="M162.647 6.63965C160.96 6.63965 159.123 7.13522 157.158 8.10457C157.649 9.23214 157.97 9.95324 158.119 10.2915C158.482 10.111 158.909 9.93096 159.379 9.72772C159.208 10.2238 159.123 10.7876 159.123 11.3964C159.123 12.2757 159.357 13.065 159.827 13.8083H153.804C152.907 13.8083 152.053 12.7717 151.946 11.5314V7.76676H149.682V14.1471C149.682 16.9646 147.696 18.9711 145.005 19.0165C145.625 19.8054 146.095 20.4369 146.415 20.8875C149.533 20.617 151.754 18.1145 151.968 14.5972C152.458 15.5215 153.121 15.9953 153.953 15.9953H170.483C170.483 13.6956 169.864 11.6441 168.625 9.86322C167.152 7.72175 165.145 6.63965 162.646 6.63965H162.647ZM162.86 13.7861C162.454 13.7861 162.091 13.5828 161.792 13.1773C161.472 12.749 161.301 12.1406 161.301 11.3964C161.301 10.6521 161.472 10.0665 161.792 9.59269C162.07 9.20941 162.39 9.00617 162.796 9.00617C163.202 9.00617 163.565 9.20941 163.864 9.59269C164.205 10.0665 164.376 10.6521 164.376 11.3964C164.376 12.9295 163.735 13.7861 162.86 13.7861ZM165.893 13.7861C166.256 13.1323 166.427 12.3652 166.427 11.4414C166.427 11.1931 166.405 10.9676 166.363 10.7421C167.153 11.6219 167.665 12.6358 167.9 13.7861H165.893Z" fill="white"/>
<path d="M189.51 16.7142L187.984 18.3242L189.434 19.8546L190.959 18.2445L189.51 16.7142Z" fill="white"/>
<path d="M205.66 8.87119C204.869 7.96959 203.866 7.51855 202.627 7.51855C200.171 7.51855 198.741 9.14171 198.741 11.7569C198.741 12.4785 198.89 13.1546 199.189 13.8084H194.917C194.661 11.9825 194.105 10.5171 193.23 9.45771C192.205 8.17236 190.838 7.5413 189.108 7.5413C187.442 7.5413 186.182 7.92412 185.328 8.71342L186.204 10.5616C186.802 10.0433 187.742 9.79552 189.044 9.79552C191.094 9.79552 192.333 11.1254 192.76 13.8079H180.95V11.2832C180.95 9.11897 179.604 7.72134 177.277 7.72134C175.077 7.72134 173.283 9.41223 173.283 11.9597C173.283 14.1012 174.735 15.9949 176.85 15.9949H178.345C177.661 17.8658 175.974 19.0161 174.031 19.0161C174.629 19.805 175.099 20.4365 175.419 20.8871C178.131 20.6393 180.074 18.7901 180.736 15.9949H202.884C205.276 15.9949 206.686 14.3717 206.686 11.7565C206.686 10.6516 206.344 9.6823 205.661 8.87072L205.66 8.87119ZM177.169 13.8084C176.272 13.8084 175.546 12.9291 175.546 11.847C175.546 10.3593 176.294 9.38949 177.276 9.38949C178.023 9.38949 178.664 10.2688 178.664 10.7649C178.664 10.9454 178.664 11.9597 178.686 13.8084H177.17H177.169ZM202.82 14.0562C202.371 14.0562 201.966 13.8757 201.645 13.4929C201.282 13.0646 201.09 12.478 201.09 11.7797C201.09 11.0581 201.239 10.4943 201.56 10.0665C201.859 9.68322 202.243 9.50272 202.734 9.50272C203.183 9.50272 203.588 9.68322 203.909 10.0665C204.272 10.4948 204.464 11.0813 204.464 11.7797C204.464 13.2223 203.759 14.0562 202.82 14.0562Z" fill="white"/>
<path d="M64.9443 36.7663V23.9082H73.7091V26.2441H67.2445V29.7577H73.3605V32.0017H67.2445V36.7663H64.9443Z" fill="white"/>
<path d="M81.8645 27.6973H83.9031V36.7662H81.8992L81.7946 35.4419C81.3067 36.5091 79.9651 37.0237 79.0065 37.0423C76.4623 37.0604 74.5806 35.4052 74.5806 32.2225C74.5806 29.0954 76.5493 27.4584 79.0588 27.4765C80.2086 27.4765 81.3067 28.0467 81.7946 28.9483L81.8645 27.6973ZM76.7063 32.2225C76.7063 33.9519 77.839 34.9816 79.2504 34.9816C82.5959 34.9816 82.5959 29.4815 79.2504 29.4815C77.839 29.4815 76.7063 30.494 76.7063 32.2225Z" fill="white"/>
<path d="M92.3893 40.5555V35.6995C91.7796 36.693 90.4377 36.9867 89.5317 36.9867C86.7788 36.9867 85.1929 34.8893 85.1929 32.2407C85.1929 29.5735 86.9529 27.4946 89.6016 27.4946C90.5774 27.4946 91.7273 27.9359 92.3897 28.948L92.5291 27.6969H94.5154V40.555H92.3897L92.3893 40.5555ZM92.1976 32.2411C92.1976 30.8245 91.2913 29.6658 89.7581 29.6658C88.2249 29.6658 87.3186 30.8245 87.3186 32.2411C87.3186 33.6578 88.312 34.8165 89.7581 34.8165C91.2042 34.8165 92.1976 33.6578 92.1976 32.2411Z" fill="white"/>
<path d="M98.1048 33.0319C98.2441 34.1544 99.1676 34.9636 100.666 34.9636C101.45 34.9636 102.478 34.6509 102.966 34.1177L104.325 35.5339C103.419 36.5274 101.938 37.0058 100.631 37.0058C97.6692 37.0058 95.9092 35.0741 95.9092 32.1679C95.9092 29.4088 97.6863 27.4214 100.474 27.4214C103.35 27.4214 105.144 29.2979 104.813 33.0319H98.1048ZM102.775 31.1739C102.635 29.9967 101.764 29.4083 100.544 29.4083C99.3944 29.4083 98.4533 29.9967 98.1395 31.1739H102.775Z" fill="white"/>
<path d="M108.177 33.0319C108.316 34.1544 109.239 34.9636 110.738 34.9636C111.522 34.9636 112.55 34.6509 113.038 34.1177L114.397 35.5339C113.491 36.5274 112.01 37.0058 110.703 37.0058C107.741 37.0058 105.981 35.0741 105.981 32.1679C105.981 29.4088 107.758 27.4214 110.546 27.4214C113.421 27.4214 115.216 29.2979 114.885 33.0319H108.177ZM112.847 31.1739C112.707 29.9967 111.836 29.4083 110.617 29.4083C109.467 29.4083 108.526 29.9967 108.212 31.1739H112.847Z" fill="white"/>
<path d="M122.047 30.1072C121.437 29.4998 120.74 29.2979 119.921 29.2979C118.911 29.2979 118.353 29.6292 118.353 30.1991C118.353 30.7879 118.859 31.1187 119.956 31.1925C121.577 31.303 123.633 31.689 123.633 34.0992C123.633 35.6996 122.396 37.0791 119.939 37.0791C118.58 37.0791 117.221 36.8397 115.966 35.4606L117.012 33.8602C117.621 34.5776 119.016 35.1112 119.974 35.1293C120.775 35.1479 121.525 34.7061 121.525 34.0439C121.525 33.4184 121.037 33.1614 119.817 33.0871C118.196 32.9586 116.262 32.3331 116.262 30.2728C116.262 28.1759 118.318 27.4404 119.887 27.4404C121.228 27.4404 122.239 27.7165 123.232 28.6362L122.047 30.1072Z" fill="white"/>
<path d="M127.031 23.8892V28.9294C127.798 27.8807 128.739 27.5679 129.715 27.5679C132.154 27.5679 133.234 29.3159 133.234 31.9831V36.7658H131.109V32.0012C131.109 30.346 130.29 29.6468 129.157 29.6468C127.903 29.6468 127.031 30.7688 127.031 32.1302V36.7658H124.906V23.8892H127.031H127.031Z" fill="white"/>
<path d="M148.76 31.2657C148.76 34.5956 146.756 37.0233 143.393 37.0233C140.274 37.0233 138.043 35.0554 138.043 31.4128H140.309C140.309 33.6202 141.319 34.7427 143.393 34.7427C145.484 34.7427 146.46 33.2156 146.46 31.2657V26.1517H142.783V23.8892H148.76V31.2657Z" fill="white"/>
<path d="M152.489 33.0319C152.628 34.1544 153.552 34.9636 155.05 34.9636C155.835 34.9636 156.863 34.6509 157.351 34.1177L158.71 35.5339C157.803 36.5274 156.322 37.0058 155.016 37.0058C152.053 37.0058 150.293 35.0741 150.293 32.1679C150.293 29.4088 152.071 27.4214 154.859 27.4214C157.734 27.4214 159.529 29.2979 159.198 33.0319H152.489ZM157.159 31.1739C157.02 29.9967 156.148 29.4083 154.929 29.4083C153.779 29.4083 152.838 29.9967 152.524 31.1739H157.159Z" fill="white"/>
<path d="M168.642 27.679L170.524 34.5033L172.493 27.679H174.846L171.849 36.8026H169.375L168.486 34.1173L167.719 31.0821L166.953 34.1173L166.064 36.8026H163.59L160.575 27.679H162.945L164.914 34.5033L166.779 27.679H168.643H168.642Z" fill="white"/>
<path d="M178.366 33.0319C178.505 34.1544 179.428 34.9636 180.927 34.9636C181.711 34.9636 182.739 34.6509 183.227 34.1177L184.586 35.5339C183.68 36.5274 182.199 37.0058 180.892 37.0058C177.93 37.0058 176.17 35.0741 176.17 32.1679C176.17 29.4088 177.947 27.4214 180.735 27.4214C183.61 27.4214 185.405 29.2979 185.074 33.0319H178.366ZM183.035 31.1739C182.896 29.9967 182.025 29.4083 180.805 29.4083C179.655 29.4083 178.714 29.9967 178.4 31.1739H183.035Z" fill="white"/>
<path d="M188.734 23.9082V36.7663H186.625V23.9082H188.734Z" fill="white"/>
<path d="M192.48 27.6975L192.637 28.7462C193.299 27.6242 194.188 27.459 195.059 27.459C195.948 27.459 196.801 27.8265 197.272 28.323L196.314 30.2728C195.878 29.8868 195.477 29.684 194.78 29.684C193.665 29.684 192.637 30.3099 192.637 31.9837V36.7664H190.511V27.6975H192.48Z" fill="white"/>
<path d="M206.646 27.6975L201.402 40.5556H199.067L200.67 36.6193L197.237 27.6975H199.711L201.018 31.6157L201.837 34.1725L202.726 31.6709L204.294 27.6975H206.646Z" fill="white"/>
</svg>
