<svg width="156" height="38" viewBox="0 0 156 38" fill="none" xmlns="http://www.w3.org/2000/svg">
<g clip-path="url(#clip0_145_217)">
<path d="M18.8836 37.8144C8.47124 37.8144 0 29.3329 0 18.9066C0 8.48025 8.47124 0 18.8836 0C29.2959 0 37.7672 8.48155 37.7672 18.9066C37.7672 29.3316 29.2959 37.8131 18.8836 37.8131M18.8836 2.12949C9.64318 2.12949 2.1256 9.65622 2.1256 18.9079C2.1256 28.1595 9.64318 35.6862 18.8836 35.6862C28.124 35.6862 35.6416 28.1595 35.6416 18.9079C35.6416 9.65622 28.124 2.12949 18.8836 2.12949Z" fill="white"/>
<path d="M53.3821 21.5382C53.3821 21.0205 53.4821 20.5262 53.6822 20.0553C53.8823 19.5843 54.1578 19.172 54.5112 18.8194C54.8633 18.4669 55.2751 18.1833 55.7455 17.9726C56.2158 17.7606 56.7212 17.6552 57.2617 17.6552H66.3605V20.1619H56.9096C55.9222 20.1619 55.088 20.5027 54.4059 21.1857C53.7238 21.8686 53.3834 22.7038 53.3834 23.6924V31.4247H48.4813V6.39111H66.3605V8.89785H53.3834V21.5382H53.3821Z" fill="white"/>
<path d="M85.1908 17.8308L94.3597 31.4247H88.118L81.8062 22.0677L74.3653 31.4247H70.9443L80.2536 19.7378L71.2263 6.39111H77.4679L83.6395 15.5361L90.9388 6.39111H94.3597L85.1908 17.8308Z" fill="white"/>
<path d="M113.19 17.6537H118.092V31.4232H106.808C105.632 31.4232 104.521 31.1995 103.475 30.752C102.43 30.3058 101.519 29.6931 100.743 28.9165C99.9674 28.1399 99.3554 27.228 98.9098 26.1795C98.4629 25.1323 98.2394 24.0084 98.2394 22.8077V15.0052C98.2394 13.8045 98.4629 12.6806 98.9098 11.6334C99.3567 10.5862 99.9674 9.6743 100.743 8.89639C101.519 8.11978 102.43 7.50838 103.475 7.06089C104.521 6.61339 105.632 6.38965 106.808 6.38965H118.092V8.89639H109.205C108.359 8.89639 107.571 9.05509 106.842 9.3725C106.113 9.68991 105.472 10.1257 104.92 10.6786C104.368 11.2314 103.933 11.8792 103.616 12.6207C103.299 13.3622 103.14 14.157 103.14 15.0039V22.8064C103.14 23.6532 103.299 24.4481 103.616 25.1895C103.933 25.931 104.368 26.5789 104.92 27.1317C105.472 27.6846 106.113 28.1204 106.842 28.4378C107.571 28.7552 108.358 28.9139 109.205 28.9139H113.19V17.6511V17.6537Z" fill="white"/>
<path d="M132.175 18.6246H133.28V21.7271H130.737C130.472 21.7271 130.223 21.6763 129.986 21.5762C129.751 21.476 129.546 21.3381 129.37 21.1625C129.195 20.9882 129.057 20.7827 128.957 20.5459C128.857 20.3105 128.806 20.0568 128.806 19.7862V18.0288C128.806 17.7582 128.857 17.5045 128.957 17.2691C129.057 17.0336 129.195 16.8281 129.37 16.6525C129.546 16.4781 129.75 16.3403 129.986 16.2388C130.221 16.1386 130.472 16.0879 130.737 16.0879H133.28V16.6525H131.278C131.087 16.6525 130.91 16.6889 130.745 16.7604C130.581 16.832 130.436 16.9295 130.312 17.0544C130.187 17.1793 130.09 17.325 130.019 17.4915C129.947 17.658 129.911 17.8375 129.911 18.0288V19.7862C129.911 19.9774 129.946 20.1557 130.019 20.3235C130.091 20.4913 130.187 20.637 130.312 20.7605C130.437 20.8854 130.581 20.983 130.745 21.0545C130.909 21.1261 131.087 21.1625 131.278 21.1625H132.175V18.6259V18.6246Z" fill="white"/>
<path d="M140.532 16.6913C140.701 16.8617 140.836 17.0621 140.938 17.2962C141.038 17.5291 141.088 17.7788 141.088 18.0442V19.7861C141.088 20.041 141.04 20.2843 140.945 20.5184C140.851 20.7526 140.713 20.9607 140.532 21.1467C140.4 21.2794 140.237 21.39 140.044 21.4772C139.85 21.5643 139.641 21.6294 139.416 21.6723C139.191 21.7152 138.957 21.736 138.717 21.736C138.477 21.736 138.243 21.7152 138.018 21.6723C137.793 21.6294 137.584 21.5643 137.391 21.4772C137.197 21.39 137.035 21.2794 136.902 21.1467C136.732 20.9724 136.598 20.7695 136.497 20.5379C136.397 20.3077 136.346 20.0566 136.346 19.7861V18.0442C136.346 17.7892 136.394 17.546 136.489 17.3118C136.584 17.079 136.721 16.8721 136.902 16.6913C137.035 16.5586 137.197 16.4494 137.391 16.3609C137.584 16.2738 137.793 16.2074 138.018 16.1619C138.243 16.1164 138.477 16.0942 138.717 16.0942C138.957 16.0942 139.191 16.1164 139.416 16.1619C139.641 16.2074 139.85 16.2738 140.044 16.3609C140.237 16.4481 140.4 16.5586 140.532 16.6913ZM140.009 19.7848V18.0429C140.009 17.7515 139.945 17.5057 139.818 17.3066C139.69 17.1076 139.532 16.9606 139.341 16.8656C139.15 16.7707 138.942 16.7225 138.717 16.7225C138.492 16.7225 138.284 16.7707 138.093 16.8656C137.902 16.9606 137.744 17.1089 137.617 17.3066C137.489 17.5057 137.426 17.7515 137.426 18.0429V19.7848C137.426 20.0813 137.489 20.3285 137.617 20.5249C137.744 20.7214 137.902 20.8671 138.093 20.962C138.284 21.057 138.492 21.1064 138.717 21.109C138.942 21.1116 139.15 21.0622 139.341 20.962C139.532 20.8619 139.69 20.7136 139.818 20.521C139.945 20.3272 140.009 20.0826 140.009 19.7848Z" fill="white"/>
<path d="M145.212 21.161H148.421V21.7256H144.108V16.0864H145.212V21.161Z" fill="white"/>
<path d="M156 19.7769C156 20.0475 155.948 20.3012 155.845 20.5366C155.743 20.7721 155.602 20.9776 155.428 21.1532C155.253 21.3275 155.048 21.4667 154.812 21.5669C154.577 21.6671 154.327 21.7178 154.061 21.7178H151.519V16.0786H154.061C154.327 16.0786 154.576 16.1293 154.812 16.2295C155.048 16.3297 155.253 16.4676 155.428 16.6432C155.604 16.8175 155.743 17.023 155.845 17.2598C155.948 17.4952 156 17.7489 156 18.0195V19.7769ZM152.624 18.9028V21.1532H153.522C153.713 21.1532 153.891 21.1168 154.059 21.0453C154.225 20.9737 154.371 20.8762 154.495 20.7513C154.62 20.6264 154.718 20.4807 154.789 20.3142C154.861 20.1477 154.897 19.9682 154.897 19.7769V18.0195C154.897 17.8283 154.862 17.65 154.789 17.4822C154.718 17.3157 154.619 17.17 154.495 17.0451C154.371 16.9203 154.225 16.8227 154.059 16.7512C153.893 16.6796 153.713 16.6432 153.522 16.6432H152.624V18.9028Z" fill="white"/>
<path d="M18.9281 14.5708C17.3679 10.9024 13.892 8.23432 9.76099 7.83105V9.60021C14.4194 10.1427 18.0477 14.109 18.0477 18.9065C18.0477 20.4155 17.6883 21.8425 17.0514 23.1069C15.6801 20.102 13.0103 17.8099 9.76099 16.9487V18.7816C12.66 19.7091 14.9508 22.009 15.8611 24.9138C14.3595 26.7051 12.2016 27.9292 9.76099 28.2128V29.9819C12.2615 29.7374 14.5223 28.6642 16.2622 27.0407C16.8274 26.5139 17.338 25.9298 17.7834 25.2963C18.234 24.6563 18.6182 23.9655 18.9281 23.237C19.2381 23.9655 19.621 24.6563 20.0729 25.2963C20.5183 25.9285 21.0288 26.5139 21.594 27.0407C23.3352 28.6642 25.5948 29.7374 28.0952 29.9819V28.2128C25.6547 27.9279 23.4967 26.7038 21.9951 24.9138C22.9054 22.009 25.1949 19.7091 28.0952 18.7816V16.9487C24.8472 17.8099 22.1761 20.102 20.8048 23.1069C20.1679 21.8425 19.8085 20.4155 19.8085 18.9065C19.8085 14.109 23.4368 10.144 28.0952 9.60021V7.83105C23.9642 8.23432 20.487 10.9024 18.9281 14.5708Z" fill="#E8E0D7"/>
<path d="M18.9281 14.5708C17.3679 10.9024 13.892 8.23432 9.76099 7.83105V9.60021C14.4194 10.1427 18.0477 14.109 18.0477 18.9065C18.0477 20.4155 17.6883 21.8425 17.0514 23.1069C15.6801 20.102 13.0103 17.8099 9.76099 16.9487V18.7816C12.66 19.7091 14.9508 22.009 15.8611 24.9138C14.3595 26.7051 12.2016 27.9292 9.76099 28.2128V29.9819C12.2615 29.7374 14.5223 28.6642 16.2622 27.0407C16.8274 26.5139 17.338 25.9298 17.7834 25.2963C18.234 24.6563 18.6182 23.9655 18.9281 23.237C19.2381 23.9655 19.621 24.6563 20.0729 25.2963C20.5183 25.9285 21.0288 26.5139 21.594 27.0407C23.3352 28.6642 25.5948 29.7374 28.0952 29.9819V28.2128C25.6547 27.9279 23.4967 26.7038 21.9951 24.9138C22.9054 22.009 25.1949 19.7091 28.0952 18.7816V16.9487C24.8472 17.8099 22.1761 20.102 20.8048 23.1069C20.1679 21.8425 19.8085 20.4155 19.8085 18.9065C19.8085 14.109 23.4368 10.144 28.0952 9.60021V7.83105C23.9642 8.23432 20.487 10.9024 18.9281 14.5708Z" fill="white"/>
</g>
<defs>
<clipPath id="clip0_145_217">
<rect width="156" height="37.8144" fill="white"/>
</clipPath>
</defs>
</svg>
