<svg width="174" height="107" viewBox="0 0 174 107" fill="none" xmlns="http://www.w3.org/2000/svg">
<g clip-path="url(#clip0_145_464)">
<mask id="mask0_145_464" style="mask-type:luminance" maskUnits="userSpaceOnUse" x="68" y="21" width="45" height="50">
<path d="M68.6307 21.8501L68.7274 28.7532H88.4503C93.4394 28.7532 97.4037 30.3932 100.342 33.6743C103.282 36.9549 104.751 41.1584 104.751 46.2839C104.751 51.5127 103.282 55.7844 100.342 59.0986C97.4037 62.4137 93.4394 64.0877 88.4503 64.0877V64.0195H76.2172L68.6307 70.8539H88.5874C95.8657 70.8539 101.641 68.5646 105.912 63.9848C110.184 59.4064 112.337 53.5287 112.337 46.3524C112.337 39.1762 110.184 33.2643 105.878 28.7192C101.573 24.1744 95.7973 21.8848 88.5874 21.8848V21.8501H68.6307Z" fill="white"/>
</mask>
<g mask="url(#mask0_145_464)">
<path d="M112.337 21.8501H68.6307V70.8539H112.337V21.8501Z" fill="white"/>
</g>
<mask id="mask1_145_464" style="mask-type:luminance" maskUnits="userSpaceOnUse" x="110" y="21" width="52" height="50">
<path d="M154.231 21.8501L137.145 46.4894L119.991 21.8501H110.983V21.8843L137.077 58.5514L153.89 35.0065V70.8539H161.511V21.8501H154.231Z" fill="white"/>
</mask>
<g mask="url(#mask1_145_464)">
<path d="M161.511 21.8501H110.983V70.8539H161.511V21.8501Z" fill="white"/>
</g>
<mask id="mask2_145_464" style="mask-type:luminance" maskUnits="userSpaceOnUse" x="12" y="19" width="54" height="56">
<path d="M20.2586 27.6774C15.0468 32.8542 12.4219 39.2701 12.4219 46.9254C12.4219 54.6535 15.0468 61.1058 20.2957 66.3182C25.5452 71.5314 32.1436 74.1196 40.0537 74.1196C47.7451 74.1196 54.0151 71.8228 58.8996 67.2663C62.0169 64.3582 64.1399 60.8123 65.2676 56.6373L56.8014 56.8361C55.9089 59.0431 54.5444 60.9424 52.7028 62.5278C49.5682 65.225 45.5211 66.5739 40.527 66.5739C34.5129 66.5739 29.6644 64.6415 26.0193 60.814C22.3738 56.9863 20.5505 52.3201 20.5505 46.8524C20.5505 41.4935 22.3372 36.937 25.9091 33.1455C29.482 29.3538 34.0752 27.4586 39.6891 27.4586C43.8814 27.4586 47.4173 28.3697 50.334 30.1931L61.3626 29.98C59.7384 27.8194 57.69 25.9218 55.218 24.2868C50.8076 21.3718 45.5936 19.9131 39.6162 19.9131C31.9245 19.9131 25.4725 22.5012 20.2586 27.6774Z" fill="white"/>
</mask>
<g mask="url(#mask2_145_464)">
<path d="M65.2676 19.9131H12.4219V74.1196H65.2676V19.9131Z" fill="white"/>
</g>
<mask id="mask3_145_464" style="mask-type:luminance" maskUnits="userSpaceOnUse" x="43" y="40" width="32" height="8">
<path d="M49.2507 40.6774L43.5386 47.6662L70.4805 47.4267L74.8266 40.6498V40.6494L49.2507 40.6774Z" fill="white"/>
</mask>
<g mask="url(#mask3_145_464)">
<path d="M74.8291 40.6372H43.536V47.6771H74.8291V40.6372Z" fill="white"/>
</g>
<mask id="mask4_145_464" style="mask-type:luminance" maskUnits="userSpaceOnUse" x="36" y="48" width="35" height="8">
<path d="M42.4653 48.6867L36.7524 55.6762L65.7466 55.354L70.0669 48.5767L42.4653 48.6867Z" fill="white"/>
</mask>
<g mask="url(#mask4_145_464)">
<path d="M70.0696 48.564H36.7499V55.688H70.0696V48.564Z" fill="white"/>
</g>
<mask id="mask5_145_464" style="mask-type:luminance" maskUnits="userSpaceOnUse" x="0" y="0" width="174" height="107">
<path d="M174 0H0V106.459H174V0Z" fill="white"/>
</mask>
<g mask="url(#mask5_145_464)">
<path d="M13.9803 82.6704C14.3996 82.6704 14.7317 82.7682 14.9608 82.98C15.1879 83.1901 15.2997 83.4688 15.2997 83.8062C15.2997 84.1402 15.1887 84.4166 14.9637 84.6265C14.7361 84.8388 14.4025 84.937 13.9803 84.937H13.3339V86.4907H12.7928V82.6704H13.9803ZM13.3339 84.4478H13.9803C14.2547 84.4478 14.4443 84.389 14.5643 84.2866C14.6817 84.1864 14.7469 84.0319 14.7469 83.8062C14.7469 83.5794 14.6842 83.4224 14.5721 83.3188C14.4603 83.2156 14.2701 83.1538 13.9803 83.1538H13.3339V84.4478Z" fill="white" stroke="white" stroke-width="0.17665"/>
<path d="M17.7698 83.416V83.9727H17.5833C17.3353 83.9727 17.1453 84.0394 17.0051 84.1641C16.8724 84.2825 16.7952 84.4904 16.7952 84.8125V86.4902H16.2542V83.4678H16.7952V83.7637C16.8618 83.6896 16.9402 83.6259 17.0295 83.5732C17.2112 83.4662 17.4303 83.416 17.6819 83.416H17.7698Z" fill="white" stroke="white" stroke-width="0.17665"/>
<path d="M19.9809 83.4263C20.2652 83.4263 20.5181 83.4878 20.7368 83.6147L20.8901 83.7173C21.0344 83.8285 21.1505 83.9654 21.2387 84.1265C21.3556 84.34 21.4144 84.5758 21.4145 84.8325C21.4145 84.9585 21.4102 85.0589 21.4028 85.1294L21.395 85.2085H19.0512C19.0698 85.3713 19.1137 85.5104 19.185 85.6265C19.2494 85.7313 19.3287 85.8159 19.4223 85.8813L19.5209 85.9399L19.6274 85.9878C19.7372 86.0282 19.855 86.0483 19.9809 86.0483C20.2025 86.0483 20.3831 85.9942 20.5268 85.8921C20.6711 85.7896 20.7661 85.6529 20.8129 85.478L20.8305 85.4116H21.3969L21.3696 85.522C21.2951 85.8192 21.1354 86.0629 20.892 86.2505C20.6461 86.4401 20.3405 86.5327 19.9809 86.5327C19.6994 86.5327 19.4438 86.4696 19.2172 86.3413C18.9906 86.2131 18.8134 86.03 18.686 85.7954C18.558 85.5597 18.4955 85.2867 18.4955 84.979C18.4955 84.6715 18.557 84.398 18.683 84.1606C18.8087 83.924 18.9859 83.7406 19.2133 83.6138C19.4397 83.4877 19.6966 83.4263 19.9809 83.4263ZM19.9653 83.9155C19.715 83.9155 19.5055 83.9948 19.3315 84.1528C19.1794 84.2912 19.0841 84.4823 19.0512 84.7339H20.8637C20.8555 84.5735 20.8181 84.4382 20.7514 84.3257C20.6713 84.1907 20.5637 84.0888 20.4262 84.02V84.021C20.286 83.9511 20.1329 83.9155 19.9653 83.9155Z" fill="white" stroke="white" stroke-width="0.17665"/>
<path d="M23.7291 83.4263C24.0947 83.4263 24.4038 83.5167 24.65 83.7046C24.8953 83.8919 25.0534 84.1469 25.1236 84.4644L25.147 84.5718H24.5767L24.5601 84.5044C24.516 84.3187 24.4222 84.1761 24.2789 84.0728C24.1354 83.9695 23.9539 83.9156 23.7291 83.9155C23.5519 83.9155 23.3948 83.9549 23.2564 84.0337C23.1199 84.1111 23.0108 84.2279 22.9293 84.3862C22.8487 84.5427 22.8062 84.7391 22.8062 84.979C22.8062 85.2187 22.8486 85.4163 22.9293 85.5747C23.0109 85.7349 23.1202 85.8519 23.2564 85.9292C23.3949 86.0077 23.5519 86.0483 23.7291 86.0483C23.954 86.0483 24.1354 85.9934 24.2789 85.8901C24.4218 85.7873 24.5158 85.6432 24.5601 85.4536L24.5757 85.3862H25.148L25.1236 85.4937C25.0532 85.8052 24.894 86.0573 24.648 86.2476C24.4003 86.4388 24.092 86.5327 23.7291 86.5327C23.4477 86.5327 23.1937 86.4687 22.9703 86.3403C22.7472 86.212 22.5723 86.0297 22.4468 85.7954C22.3206 85.5599 22.2594 85.2865 22.2593 84.979C22.2593 84.6715 22.3207 84.3992 22.4468 84.1636C22.5723 83.9291 22.7471 83.7461 22.9703 83.6177C23.1938 83.4891 23.4477 83.4263 23.7291 83.4263Z" fill="white" stroke="white" stroke-width="0.17665"/>
<path d="M26.6835 83.4683V86.4907H26.1425V83.4683H26.6835ZM26.413 82.394C26.5087 82.394 26.5934 82.4279 26.662 82.4946C26.7323 82.5626 26.7674 82.649 26.7675 82.7476C26.7675 82.8464 26.7324 82.934 26.663 83.0034C26.5946 83.0719 26.5096 83.1069 26.413 83.1069C26.3163 83.1069 26.2315 83.0719 26.163 83.0034C26.0939 82.934 26.0595 82.8464 26.0595 82.7476C26.0596 82.649 26.094 82.5625 26.164 82.4946C26.2327 82.4281 26.3173 82.3941 26.413 82.394Z" fill="white" stroke="white" stroke-width="0.17665"/>
<path d="M29.2028 83.4263C29.484 83.4263 29.741 83.489 29.9723 83.6167C30.2041 83.7446 30.3861 83.927 30.5172 84.1616C30.649 84.3976 30.7135 84.6711 30.7135 84.979C30.7135 85.2836 30.6475 85.5553 30.5143 85.7925L30.5153 85.7935C30.3823 86.03 30.1981 86.2135 29.9645 86.3413C29.7316 86.469 29.4732 86.5327 29.192 86.5327C28.9108 86.5327 28.6545 86.4694 28.4264 86.3413C28.198 86.2134 28.0185 86.0306 27.8873 85.7964C27.7555 85.5606 27.691 85.287 27.691 84.979C27.691 84.6708 27.7563 84.3977 27.8903 84.1616C28.023 83.9275 28.2042 83.7447 28.4342 83.6167C28.664 83.4887 28.9214 83.4263 29.2028 83.4263ZM29.1969 83.9204C29.0234 83.9205 28.8636 83.9597 28.7174 84.0376C28.5738 84.1142 28.4577 84.2297 28.3698 84.3882V84.3892C28.2831 84.5446 28.2379 84.7399 28.2379 84.979C28.2379 85.1583 28.2628 85.3131 28.3121 85.4448L28.3698 85.5698L28.441 85.6802C28.5172 85.7833 28.6081 85.8631 28.7145 85.9204H28.7155C28.86 85.9983 29.0182 86.0376 29.192 86.0376C29.3659 86.0376 29.5251 85.9985 29.6715 85.9204C29.8154 85.8438 29.9334 85.7271 30.025 85.5679L30.0846 85.4438C30.1355 85.3124 30.1617 85.158 30.1617 84.979C30.1617 84.7399 30.115 84.5447 30.027 84.3892C29.9372 84.2303 29.8201 84.1143 29.6764 84.0376V84.0366C29.5299 83.9589 29.3702 83.9204 29.1969 83.9204Z" fill="white" stroke="white" stroke-width="0.17665"/>
<path d="M32.236 83.4683V85.1772C32.236 85.4724 32.3091 85.6841 32.443 85.8257C32.5777 85.968 32.7641 86.0434 33.0123 86.0435C33.2666 86.0435 33.4609 85.9634 33.6051 85.8101C33.7475 85.6583 33.8267 85.4284 33.8268 85.105V83.4683H34.3678V86.4907H33.8268V86.189C33.7545 86.2669 33.6694 86.333 33.5709 86.3862C33.3831 86.4876 33.1737 86.5376 32.9449 86.5376C32.5847 86.5376 32.2837 86.4258 32.0494 86.1978C31.8119 85.9656 31.6998 85.6344 31.6998 85.2192V83.4683H32.236Z" fill="white" stroke="white" stroke-width="0.17665"/>
<path d="M37.6936 85.646C37.6936 85.7736 37.6674 85.8921 37.6145 86.0005L37.553 86.106C37.4596 86.2405 37.3297 86.3443 37.1682 86.4194C37.0051 86.4954 36.8197 86.5317 36.6145 86.5317C36.2746 86.5317 35.9884 86.4531 35.7629 86.2886C35.5354 86.1221 35.4069 85.893 35.3801 85.6079L35.3713 85.5112H35.9231L35.9309 85.5894C35.9454 85.7238 36.0077 85.8317 36.1223 85.9165C36.2361 86.0009 36.396 86.0483 36.6096 86.0483C36.7943 86.0483 36.9273 86.004 37.0198 85.9272C37.1136 85.8492 37.1575 85.7572 37.1575 85.646C37.1574 85.5698 37.1332 85.5135 37.0891 85.4692C37.0366 85.4168 36.9686 85.3729 36.8831 85.3403C36.8374 85.3229 36.7831 85.3047 36.72 85.2856L36.5042 85.2261C36.2901 85.1699 36.1133 85.113 35.9758 85.0552C35.8309 84.9943 35.7079 84.903 35.6067 84.7827C35.4978 84.6534 35.4475 84.4846 35.4475 84.2856C35.4475 84.1276 35.4956 83.9815 35.5891 83.8491C35.6829 83.7161 35.814 83.6126 35.9788 83.5376C36.1448 83.462 36.3313 83.4263 36.5364 83.4263C36.8573 83.4263 37.1262 83.5075 37.3333 83.6782C37.5422 83.8506 37.6523 84.0877 37.6672 84.3804L37.6721 84.4731H37.1311L37.1262 84.3901C37.1172 84.2456 37.0617 84.1331 36.9612 84.0474C36.8619 83.9627 36.7205 83.9156 36.5266 83.9155C36.3562 83.9155 36.2264 83.9554 36.1311 84.0278C36.0356 84.1001 35.9944 84.1834 35.9944 84.2808C35.9944 84.3724 36.0215 84.4409 36.0715 84.4937C36.1296 84.5546 36.203 84.6034 36.2932 84.6392C36.3901 84.6776 36.5229 84.7209 36.6917 84.769H36.6907C36.8972 84.8251 37.0648 84.8797 37.1917 84.9341C37.3257 84.9914 37.4408 85.0761 37.5364 85.187C37.6398 85.3069 37.6898 85.4622 37.6936 85.644V85.646Z" fill="white" stroke="white" stroke-width="0.17665"/>
<path d="M41.2067 82.7168L41.2302 82.7686L42.5417 85.7061L43.8532 82.7686L43.8766 82.7168H44.4128V86.4902H43.8718V83.9434L42.7585 86.4375L42.735 86.4902H42.3542L42.3307 86.4385L41.2175 83.9531V86.4902H40.6765V82.7168H41.2067Z" fill="white" stroke="white" stroke-width="0.17665"/>
<path d="M46.9052 83.4263C47.1894 83.4263 47.4423 83.4878 47.661 83.6147L47.8143 83.7173C47.9587 83.8285 48.0748 83.9654 48.163 84.1265C48.2799 84.34 48.3387 84.5758 48.3387 84.8325C48.3387 84.9585 48.3344 85.0589 48.327 85.1294L48.3192 85.2085H45.9755C45.9941 85.3713 46.0379 85.5104 46.1093 85.6265C46.1736 85.7313 46.2529 85.8159 46.3466 85.8813L46.4452 85.9399L46.5516 85.9878C46.6614 86.0282 46.7792 86.0483 46.9052 86.0483C47.1267 86.0483 47.3073 85.9942 47.451 85.8921C47.5953 85.7896 47.6904 85.6529 47.7372 85.478L47.7548 85.4116H48.3212L48.2938 85.522C48.2193 85.8192 48.0596 86.0629 47.8163 86.2505C47.5703 86.4401 47.2647 86.5327 46.9052 86.5327C46.6236 86.5327 46.3681 86.4696 46.1415 86.3413C45.9149 86.2131 45.7377 86.03 45.6102 85.7954C45.4823 85.5597 45.4198 85.2867 45.4198 84.979C45.4198 84.6715 45.4813 84.398 45.6073 84.1606C45.733 83.924 45.9101 83.7406 46.1376 83.6138C46.364 83.4877 46.6209 83.4263 46.9052 83.4263ZM46.8895 83.9155C46.6393 83.9155 46.4297 83.9948 46.2557 84.1528C46.1037 84.2912 46.0083 84.4823 45.9755 84.7339H47.788C47.7798 84.5735 47.7424 84.4382 47.6757 84.3257C47.5956 84.1907 47.4879 84.0888 47.3505 84.02V84.021C47.2103 83.9511 47.0571 83.9155 46.8895 83.9155Z" fill="white" stroke="white" stroke-width="0.17665"/>
<path d="M50.0008 82.7539V83.4678H50.783V83.9521H50.0008V85.6309C50.0008 85.7992 50.0342 85.888 50.074 85.9277C50.1145 85.9683 50.201 86.001 50.3611 86.001H50.783V86.4912H50.3035C50.0345 86.4912 49.8168 86.4281 49.6688 86.2861C49.5185 86.1422 49.4539 85.9155 49.4539 85.6309V83.9521H49.0584V83.4678H49.4539V82.7539H50.0008Z" fill="white" stroke="white" stroke-width="0.17665"/>
<path d="M53.0089 83.4263C53.2942 83.4263 53.5451 83.4919 53.7579 83.6274C53.8708 83.6995 53.9669 83.7836 54.0469 83.8784V83.4673H54.5889V86.4907H54.0469V86.0698C53.9652 86.1669 53.8678 86.2534 53.753 86.3276C53.5401 86.4652 53.2893 86.5327 53.004 86.5327C52.7322 86.5327 52.4848 86.4675 52.2637 86.3374C52.0422 86.2072 51.8688 86.023 51.7452 85.7866C51.621 85.5497 51.5606 85.2778 51.5606 84.9741C51.5606 84.6703 51.6209 84.3992 51.7452 84.1636C51.8689 83.929 52.042 83.7462 52.2637 83.6177C52.4849 83.4894 52.7344 83.4263 53.0089 83.4263ZM53.0772 83.9204C52.8892 83.9204 52.7234 83.9623 52.5782 84.0444C52.4339 84.1262 52.32 84.245 52.2354 84.4028C52.1514 84.5596 52.1075 84.7492 52.1075 84.9741C52.1075 85.1952 52.151 85.3845 52.2354 85.5454C52.3202 85.7072 52.435 85.8278 52.5792 85.9106V85.9116C52.7243 85.9953 52.8896 86.0376 53.0772 86.0376C53.2569 86.0376 53.4199 85.9944 53.5674 85.9087C53.7141 85.8235 53.8305 85.7018 53.9171 85.5415C54.0028 85.3825 54.0469 85.1961 54.0469 84.979C54.0469 84.7619 54.0028 84.5755 53.9171 84.4165C53.8305 84.2562 53.7141 84.1345 53.5674 84.0493C53.4199 83.9637 53.2569 83.9204 53.0772 83.9204Z" fill="white" stroke="white" stroke-width="0.17665"/>
<path d="M56.3087 82.457V86.4912H55.7676V82.457H56.3087Z" fill="white" stroke="white" stroke-width="0.17665"/>
<path d="M59.6293 85.646C59.6293 85.7736 59.6031 85.8921 59.5502 86.0005L59.4886 86.106C59.3953 86.2405 59.2654 86.3443 59.1039 86.4194C58.9407 86.4954 58.7554 86.5317 58.5502 86.5317C58.2103 86.5317 57.9241 86.4531 57.6986 86.2886C57.471 86.1221 57.3425 85.893 57.3158 85.6079L57.307 85.5112H57.8588L57.8666 85.5894C57.8811 85.7238 57.9434 85.8317 58.058 85.9165C58.1718 86.0009 58.3317 86.0483 58.5453 86.0483C58.73 86.0483 58.863 86.004 58.9554 85.9272C59.0493 85.8492 59.0931 85.7572 59.0931 85.646C59.0931 85.5699 59.069 85.5135 59.0248 85.4692C58.9725 85.4168 58.9044 85.373 58.8187 85.3403C58.7731 85.3229 58.7188 85.3047 58.6556 85.2856L58.4398 85.2261C58.2258 85.1699 58.049 85.113 57.9115 85.0552C57.7666 84.9943 57.6435 84.903 57.5424 84.7827C57.4335 84.6534 57.3832 84.4846 57.3832 84.2856C57.3832 84.1276 57.4313 83.9815 57.5248 83.8491C57.6185 83.7161 57.7497 83.6126 57.9144 83.5376C58.0805 83.462 58.2669 83.4263 58.472 83.4263C58.793 83.4263 59.0619 83.5075 59.2689 83.6782C59.4778 83.8506 59.588 84.0877 59.6029 84.3804L59.6078 84.4731H59.0668L59.0619 84.3901C59.0529 84.2456 58.9974 84.1331 58.8969 84.0474C58.7976 83.9627 58.6562 83.9156 58.4623 83.9155C58.2919 83.9155 58.1621 83.9554 58.0668 84.0278C57.9712 84.1001 57.9301 84.1834 57.9301 84.2808C57.9301 84.3724 57.9572 84.4409 58.0072 84.4937C58.0653 84.5546 58.1387 84.6034 58.2289 84.6392C58.3257 84.6776 58.4586 84.7209 58.6273 84.769H58.6263C58.8329 84.8251 59.0004 84.8797 59.1273 84.9341C59.2613 84.9914 59.3764 85.0761 59.472 85.187C59.5754 85.3069 59.6255 85.4622 59.6293 85.644V85.646Z" fill="white" stroke="white" stroke-width="0.17665"/>
<path d="M63.7946 82.6704C64.2142 82.6704 64.5476 82.77 64.78 82.9849V82.9858C65.01 83.1991 65.1237 83.479 65.1237 83.8169C65.1236 84.099 65.042 84.344 64.8766 84.5474C64.7319 84.7253 64.5299 84.8456 64.277 84.9126L65.153 86.3569L65.2341 86.4907H64.5886L64.5632 86.4468L63.6862 84.9683H63.153V86.4907H62.612V82.6704H63.7946ZM63.153 84.4946H63.7995C64.0712 84.4946 64.2606 84.4283 64.3825 84.311C64.5064 84.1915 64.5719 84.0298 64.572 83.8169C64.572 83.595 64.5081 83.4351 64.3913 83.3257C64.2759 83.2174 64.0833 83.1538 63.7946 83.1538H63.153V84.4946Z" fill="white" stroke="white" stroke-width="0.17665"/>
<path d="M67.5115 83.4263C67.7958 83.4263 68.0487 83.4878 68.2674 83.6147L68.4207 83.7173C68.5651 83.8285 68.6812 83.9654 68.7693 84.1265C68.8863 84.34 68.9451 84.5758 68.9451 84.8325C68.9451 84.9585 68.9408 85.0589 68.9334 85.1294L68.9256 85.2085H66.5818C66.6005 85.3713 66.6443 85.5104 66.7156 85.6265C66.78 85.7313 66.8593 85.8159 66.9529 85.8813L67.0516 85.9399L67.158 85.9878C67.2678 86.0282 67.3856 86.0483 67.5115 86.0483C67.7331 86.0483 67.9137 85.9942 68.0574 85.8921C68.2017 85.7896 68.2968 85.6529 68.3436 85.478L68.3611 85.4116H68.9276L68.9002 85.522C68.8257 85.8192 68.666 86.0629 68.4227 86.2505C68.1767 86.4401 67.8711 86.5327 67.5115 86.5327C67.23 86.5327 66.9745 86.4696 66.7479 86.3413C66.5213 86.2131 66.344 86.03 66.2166 85.7954C66.0886 85.5597 66.0262 85.2867 66.0262 84.979C66.0262 84.6715 66.0876 84.398 66.2137 84.1606C66.3394 83.924 66.5165 83.7406 66.744 83.6138C66.9704 83.4877 67.2273 83.4263 67.5115 83.4263ZM67.4959 83.9155C67.2457 83.9155 67.0361 83.9948 66.8621 84.1528C66.7101 84.2912 66.6147 84.4823 66.5818 84.7339H68.3943C68.3862 84.5735 68.3488 84.4382 68.282 84.3257C68.202 84.1907 68.0943 84.0888 67.9568 84.02V84.021C67.8167 83.9511 67.6635 83.9155 67.4959 83.9155Z" fill="white" stroke="white" stroke-width="0.17665"/>
<path d="M71.2327 82.3682V82.8574H71.1448C70.9148 82.8574 70.7775 82.9024 70.7073 82.9688C70.6377 83.0347 70.5921 83.1565 70.5921 83.3584V83.4678H71.2542V83.9521H70.5921V86.4912H70.0501V83.9521H69.6546V83.4678H70.0501V83.3584C70.0501 83.0355 70.133 82.7791 70.3157 82.6104C70.4978 82.4421 70.7817 82.3682 71.1448 82.3682H71.2327Z" fill="white" stroke="white" stroke-width="0.17665"/>
<path d="M72.7131 83.4683V86.4907H72.1721V83.4683H72.7131ZM72.4426 82.394C72.5385 82.394 72.623 82.428 72.6916 82.4946C72.7619 82.5626 72.797 82.649 72.7971 82.7476C72.7971 82.8464 72.762 82.934 72.6926 83.0034C72.6242 83.0719 72.539 83.1069 72.4426 83.1069C72.3462 83.1069 72.261 83.072 72.1926 83.0034C72.1231 82.934 72.0891 82.8464 72.0891 82.7476C72.0891 82.6491 72.1234 82.5625 72.1935 82.4946C72.2621 82.428 72.3468 82.3941 72.4426 82.394Z" fill="white" stroke="white" stroke-width="0.17665"/>
<path d="M75.3102 83.416C75.6704 83.4161 75.9716 83.5275 76.2057 83.7559C76.4431 83.9876 76.5554 84.3189 76.5554 84.7344V86.4912H76.0192V84.7754C76.0192 84.4803 75.9452 84.2687 75.8112 84.127V84.1279C75.6763 83.9857 75.4901 83.9102 75.2419 83.9102C74.9878 83.9102 74.794 83.9896 74.6501 84.1426V84.1436C74.5075 84.2953 74.4284 84.5249 74.4284 84.8486V86.4912H73.8874V83.4678H74.4284V83.7656C74.5031 83.686 74.5896 83.6183 74.6891 83.5645C74.8737 83.4645 75.0818 83.416 75.3102 83.416Z" fill="white" stroke="white" stroke-width="0.17665"/>
<path d="M78.2491 83.4683V86.4907H77.7081V83.4683H78.2491ZM77.9786 82.394C78.0746 82.394 78.159 82.4281 78.2277 82.4946C78.2978 82.5626 78.333 82.6489 78.3331 82.7476C78.3331 82.8464 78.2978 82.934 78.2286 83.0034C78.1601 83.0718 78.0751 83.1069 77.9786 83.1069C77.8823 83.1069 77.7971 83.072 77.7286 83.0034C77.6592 82.934 77.6251 82.8464 77.6251 82.7476C77.6252 82.6491 77.6594 82.5625 77.7296 82.4946C77.7982 82.428 77.8828 82.3941 77.9786 82.394Z" fill="white" stroke="white" stroke-width="0.17665"/>
<path d="M80.8461 83.416C81.2063 83.4161 81.5075 83.5275 81.7416 83.7559C81.9792 83.9876 82.0912 84.319 82.0912 84.7344V86.4912H81.5551V84.7754C81.555 84.4803 81.481 84.2687 81.3471 84.127V84.1279C81.2119 83.9856 81.0261 83.9102 80.7778 83.9102C80.5235 83.9102 80.3291 83.9903 80.185 84.1436L80.184 84.1426C80.0418 84.2943 79.9643 84.5251 79.9643 84.8486V86.4912H79.4233V83.4678H79.9643V83.7656C80.039 83.686 80.1254 83.6183 80.225 83.5645C80.4098 83.4645 80.6177 83.416 80.8461 83.416Z" fill="white" stroke="white" stroke-width="0.17665"/>
<path d="M84.5258 83.4263C84.8076 83.4263 85.0578 83.4922 85.2719 83.6274C85.3863 83.6997 85.4831 83.784 85.5639 83.8784V83.4673H86.1059V86.4751C86.1059 86.7487 86.0463 86.9949 85.9252 87.2114C85.8043 87.4273 85.6344 87.5948 85.4184 87.7124V87.7134C85.2024 87.8305 84.9581 87.8872 84.6879 87.8872C84.3092 87.8872 83.9866 87.7975 83.727 87.6108C83.4667 87.4238 83.3039 87.1674 83.2407 86.8472L83.2202 86.7417H83.7514L83.7709 86.8032C83.8274 86.9818 83.934 87.1239 84.0932 87.231C84.251 87.3373 84.4484 87.3931 84.6879 87.3931C84.8591 87.393 85.0095 87.3571 85.1411 87.2866V87.2856C85.2708 87.2162 85.3738 87.1138 85.4496 86.9751L85.4995 86.8667C85.5421 86.7528 85.5639 86.6225 85.5639 86.4751V86.0688C85.4821 86.1662 85.3848 86.2533 85.27 86.3276C85.057 86.465 84.8078 86.5327 84.5258 86.5327C84.2511 86.5326 84.0011 86.4677 83.7797 86.3374C83.6135 86.2397 83.4748 86.1114 83.3637 85.9536L83.2621 85.7866C83.1378 85.5497 83.0776 85.2778 83.0776 84.9741C83.0776 84.6704 83.1376 84.3992 83.2621 84.1636L83.3647 83.9976C83.4758 83.8412 83.6144 83.7141 83.7807 83.6177C84.002 83.4894 84.2513 83.4263 84.5258 83.4263ZM84.5942 83.9204C84.4064 83.9204 84.2404 83.9623 84.0952 84.0444C83.9507 84.1262 83.8362 84.2447 83.7514 84.4028C83.6674 84.5596 83.6245 84.7492 83.6245 84.9741C83.6245 85.1952 83.6679 85.3845 83.7524 85.5454C83.8163 85.667 83.8964 85.7657 83.9936 85.8423L84.0961 85.9106V85.9116C84.2412 85.9952 84.4068 86.0376 84.5942 86.0376C84.7739 86.0376 84.9362 85.9942 85.0834 85.9087C85.2303 85.8235 85.3475 85.7019 85.434 85.5415C85.5197 85.3826 85.5639 85.196 85.5639 84.979C85.5639 84.7619 85.5198 84.5755 85.434 84.4165C85.3475 84.2561 85.2303 84.1345 85.0834 84.0493C84.9362 83.9638 84.7739 83.9205 84.5942 83.9204Z" fill="white" stroke="white" stroke-width="0.17665"/>
<path d="M87.8364 85.7095L87.7885 85.8296L87.2455 87.1958L87.2241 87.2515H86.7963L86.8286 87.1392L87.2143 85.7729L87.2328 85.7095H87.8364Z" fill="white" stroke="white" stroke-width="0.17665"/>
<path d="M91.8396 82.6704C92.2588 82.6704 92.5927 82.77 92.825 82.9849V82.9858C93.055 83.1991 93.1687 83.4789 93.1687 83.8169C93.1686 84.099 93.0877 84.3441 92.9226 84.5474C92.7777 84.7254 92.5751 84.8456 92.322 84.9126L93.198 86.3569L93.2791 86.4907H92.6335L92.6082 86.4468L91.7322 84.9683H91.198V86.4907H90.657V82.6704H91.8396ZM91.198 84.4946H91.8455C92.1169 84.4946 92.3056 84.4282 92.4275 84.311C92.5517 84.1916 92.6169 84.0299 92.6169 83.8169C92.6169 83.5949 92.553 83.4351 92.4363 83.3257C92.3207 83.2173 92.1281 83.1538 91.8396 83.1538H91.198V84.4946Z" fill="white" stroke="white" stroke-width="0.17665"/>
<path d="M95.5566 83.4263C95.8408 83.4263 96.0936 83.4879 96.3124 83.6147L96.4658 83.7183C96.6096 83.8293 96.7264 83.9648 96.8144 84.1255C96.9316 84.3392 96.9891 84.5758 96.9892 84.8325C96.9892 84.9585 96.9859 85.0589 96.9785 85.1294L96.9706 85.2085H94.6259C94.6445 85.3713 94.6893 85.5103 94.7607 85.6265C94.8463 85.766 94.9581 85.8697 95.0956 85.9399C95.2354 86.0116 95.389 86.0483 95.5566 86.0483C95.7782 86.0483 95.9578 85.9941 96.1015 85.8921H96.1025C96.2468 85.7895 96.3417 85.6521 96.3886 85.4771L96.4062 85.4116H96.9726L96.9453 85.522C96.8707 85.8193 96.7108 86.0629 96.4677 86.2505C96.2218 86.44 95.9163 86.5327 95.5566 86.5327C95.2752 86.5327 95.0194 86.4696 94.7929 86.3413V86.3403C94.5663 86.2121 94.3892 86.0297 94.2617 85.7954C94.1334 85.5596 94.0712 85.2866 94.0712 84.979C94.0712 84.6715 94.1327 84.398 94.2587 84.1606L94.3622 83.9937C94.4758 83.8362 94.6184 83.7089 94.789 83.6138C95.0154 83.4878 95.2724 83.4263 95.5566 83.4263ZM95.541 83.9155C95.2907 83.9155 95.0809 83.9949 94.9072 84.1528C94.755 84.2911 94.6598 84.4823 94.6269 84.7339H96.4394C96.4312 84.5735 96.3938 84.4382 96.3271 84.3257C96.2468 84.1907 96.1393 84.0888 96.0019 84.02V84.021C95.8619 83.9511 95.7084 83.9155 95.541 83.9155Z" fill="white" stroke="white" stroke-width="0.17665"/>
<path d="M99.305 83.4263C99.6706 83.4263 99.9797 83.5167 100.226 83.7046C100.471 83.8919 100.629 84.1469 100.7 84.4644L100.723 84.5718H100.152L100.136 84.5044C100.092 84.3189 99.9982 84.1762 99.8548 84.0728C99.7113 83.9695 99.5297 83.9156 99.305 83.9155C99.1277 83.9155 98.9707 83.9549 98.8323 84.0337V84.0347C98.6958 84.1121 98.5859 84.2278 98.5042 84.3862C98.4238 84.5426 98.3812 84.7393 98.3812 84.979C98.3812 85.2188 98.4245 85.4163 98.5052 85.5747C98.587 85.735 98.696 85.852 98.8323 85.9292C98.9708 86.0077 99.1277 86.0483 99.305 86.0483C99.5298 86.0483 99.7113 85.9935 99.8548 85.8901C99.9977 85.7873 100.092 85.6438 100.136 85.4546L100.152 85.3862H100.724L100.7 85.4937C100.629 85.8051 100.47 86.0573 100.224 86.2476C99.9763 86.4388 99.6677 86.5327 99.305 86.5327C99.0236 86.5327 98.7695 86.4687 98.5462 86.3403C98.323 86.212 98.1485 86.0295 98.0228 85.7954C97.8968 85.5599 97.8353 85.2865 97.8353 84.979C97.8353 84.6714 97.8968 84.3992 98.0228 84.1636V84.1626C98.1485 83.9285 98.323 83.746 98.5462 83.6177C98.7695 83.4891 99.0237 83.4263 99.305 83.4263Z" fill="white" stroke="white" stroke-width="0.17665"/>
<path d="M103.064 83.4263C103.345 83.4263 103.602 83.489 103.833 83.6167C104.065 83.7446 104.247 83.927 104.378 84.1616C104.51 84.3977 104.575 84.6712 104.575 84.979C104.575 85.2838 104.509 85.5562 104.376 85.7935C104.243 86.03 104.059 86.2125 103.825 86.3403L103.826 86.3413C103.593 86.469 103.334 86.5327 103.053 86.5327C102.842 86.5327 102.646 86.497 102.464 86.4253L102.287 86.3413C102.116 86.2454 101.972 86.1185 101.856 85.9624L101.748 85.7964C101.616 85.5606 101.552 85.2871 101.552 84.979C101.552 84.6709 101.617 84.3976 101.75 84.1616H101.751C101.884 83.9275 102.065 83.7447 102.295 83.6167C102.525 83.4887 102.782 83.4263 103.064 83.4263ZM103.058 83.9204C102.884 83.9204 102.725 83.9596 102.578 84.0376C102.435 84.1142 102.319 84.2298 102.231 84.3882V84.3892C102.144 84.5447 102.099 84.7399 102.099 84.979C102.099 85.1583 102.124 85.3131 102.173 85.4448L102.231 85.5698L102.302 85.6802C102.378 85.7833 102.47 85.8631 102.576 85.9204C102.721 85.9983 102.879 86.0376 103.053 86.0376C103.227 86.0376 103.386 85.9985 103.533 85.9204C103.676 85.8438 103.795 85.7278 103.886 85.5688V85.5679C103.976 85.4126 104.023 85.2178 104.023 84.979C104.023 84.7399 103.976 84.5447 103.888 84.3892C103.798 84.2302 103.681 84.1142 103.537 84.0376V84.0366C103.391 83.9589 103.231 83.9204 103.058 83.9204Z" fill="white" stroke="white" stroke-width="0.17665"/>
<path d="M105.787 83.4683L105.81 83.5249L106.686 85.8013L107.563 83.5249L107.585 83.4683H108.161L108.113 83.5894L106.972 86.4351L106.949 86.4907H106.418L106.396 86.4351L105.254 83.5894L105.205 83.4683H105.787Z" fill="white" stroke="white" stroke-width="0.17665"/>
<path d="M110.278 83.4263C110.562 83.4263 110.815 83.4879 111.034 83.6147L111.187 83.7183C111.331 83.8293 111.448 83.9648 111.536 84.1255C111.653 84.3392 111.711 84.5758 111.711 84.8325C111.711 84.9585 111.707 85.0589 111.7 85.1294L111.692 85.2085H109.347C109.366 85.3713 109.411 85.5103 109.482 85.6265C109.568 85.766 109.679 85.8697 109.817 85.9399C109.957 86.0116 110.11 86.0483 110.278 86.0483C110.5 86.0483 110.679 85.9941 110.823 85.8921H110.824C110.968 85.7896 111.063 85.6528 111.11 85.478L111.128 85.4116H111.694L111.667 85.522C111.592 85.8193 111.432 86.0629 111.189 86.2505C110.943 86.44 110.638 86.5327 110.278 86.5327C109.997 86.5327 109.741 86.4696 109.514 86.3413V86.3403C109.288 86.2121 109.111 86.0297 108.983 85.7954C108.855 85.5596 108.793 85.2866 108.793 84.979C108.793 84.6715 108.854 84.398 108.98 84.1606L109.084 83.9937C109.197 83.8362 109.34 83.7089 109.51 83.6138C109.737 83.4878 109.994 83.4263 110.278 83.4263ZM110.262 83.9155C110.012 83.9155 109.802 83.9949 109.629 84.1528C109.476 84.2911 109.381 84.4823 109.348 84.7339H111.161C111.153 84.5736 111.115 84.4383 111.048 84.3257C110.968 84.1907 110.861 84.0888 110.723 84.02V84.021C110.583 83.9511 110.43 83.9155 110.262 83.9155Z" fill="white" stroke="white" stroke-width="0.17665"/>
<path d="M114.24 83.416V83.9727H114.052C113.805 83.9727 113.615 84.0395 113.475 84.1641C113.342 84.2824 113.264 84.4902 113.264 84.8125V86.4902H112.723V83.4678H113.264V83.7646C113.331 83.6903 113.409 83.626 113.498 83.5732C113.68 83.4662 113.899 83.416 114.151 83.416H114.24Z" fill="white" stroke="white" stroke-width="0.17665"/>
<path d="M115.342 83.4683L115.364 83.5229L116.25 85.7437L117.107 83.5239L117.13 83.4683H117.696L117.647 83.5894L115.958 87.7759L115.936 87.8306H115.364L115.414 87.7095L115.953 86.3872L114.799 83.5894L114.749 83.4683H115.342Z" fill="white" stroke="white" stroke-width="0.17665"/>
<path d="M121.725 83.4263C122.01 83.4263 122.261 83.4919 122.474 83.6274C122.587 83.6995 122.683 83.7836 122.763 83.8784V83.4673H123.305V86.4907H122.763V86.0688C122.681 86.1662 122.584 86.2533 122.469 86.3276C122.256 86.4651 122.005 86.5327 121.72 86.5327C121.448 86.5327 121.2 86.4676 120.979 86.3374C120.757 86.2072 120.585 86.0228 120.461 85.7866C120.337 85.5497 120.276 85.2778 120.276 84.9741C120.276 84.6703 120.337 84.3992 120.461 84.1636L120.563 83.9976C120.675 83.8412 120.813 83.7141 120.979 83.6177C121.201 83.4894 121.45 83.4263 121.725 83.4263ZM121.793 83.9204C121.605 83.9204 121.439 83.9623 121.294 84.0444C121.149 84.1262 121.035 84.2447 120.95 84.4028C120.866 84.5596 120.823 84.7492 120.823 84.9741C120.823 85.1952 120.867 85.3845 120.951 85.5454C121.015 85.667 121.095 85.7657 121.192 85.8423L121.295 85.9106V85.9116C121.44 85.9952 121.606 86.0376 121.793 86.0376C121.973 86.0376 122.135 85.9942 122.282 85.9087C122.429 85.8235 122.546 85.7019 122.633 85.5415C122.719 85.3826 122.763 85.196 122.763 84.979C122.763 84.7619 122.719 84.5755 122.633 84.4165C122.546 84.2561 122.429 84.1345 122.282 84.0493C122.135 83.9638 121.973 83.9205 121.793 83.9204Z" fill="white" stroke="white" stroke-width="0.17665"/>
<path d="M125.906 83.416C126.266 83.4161 126.567 83.5275 126.802 83.7559C127.039 83.9876 127.151 84.319 127.151 84.7344V86.4912H126.615V84.7754C126.615 84.4803 126.541 84.2687 126.407 84.127V84.1279C126.272 83.9856 126.086 83.9102 125.838 83.9102C125.583 83.9102 125.389 83.9903 125.245 84.1436L125.244 84.1426C125.102 84.2943 125.024 84.5251 125.024 84.8486V86.4912H124.483V83.4678H125.024V83.7656C125.099 83.686 125.185 83.6183 125.285 83.5645C125.47 83.4645 125.678 83.416 125.906 83.416Z" fill="white" stroke="white" stroke-width="0.17665"/>
<path d="M131.165 82.457V86.4912H130.623V86.0713C130.543 86.1681 130.447 86.2547 130.332 86.3281C130.118 86.4654 129.867 86.5322 129.585 86.5322C129.311 86.5322 129.061 86.4681 128.839 86.3379C128.618 86.2076 128.445 86.0225 128.322 85.7861C128.197 85.5493 128.137 85.2781 128.137 84.9746C128.137 84.6707 128.199 84.3997 128.325 84.1641V84.1631C128.45 83.9291 128.624 83.7466 128.845 83.6182C129.066 83.4898 129.316 83.4258 129.591 83.4258C129.856 83.4258 130.099 83.4909 130.315 83.6211C130.436 83.6942 130.538 83.7818 130.623 83.8809V82.457H131.165ZM129.654 83.9209C129.466 83.9209 129.3 83.9628 129.155 84.0449C129.01 84.1267 128.896 84.2452 128.811 84.4033C128.727 84.56 128.684 84.7497 128.684 84.9746C128.684 85.1956 128.727 85.385 128.812 85.5459C128.897 85.7077 129.011 85.8284 129.156 85.9111L129.268 85.9668C129.384 86.0142 129.513 86.0381 129.654 86.0381C129.833 86.038 129.996 85.9947 130.143 85.9092C130.29 85.824 130.407 85.7024 130.494 85.542C130.579 85.3831 130.623 85.1965 130.623 84.9795C130.623 84.7624 130.579 84.576 130.494 84.417C130.407 84.2566 130.29 84.135 130.143 84.0498C129.996 83.9643 129.833 83.9209 129.654 83.9209Z" fill="white" stroke="white" stroke-width="0.17665"/>
<path d="M135.476 82.6704C135.895 82.6704 136.229 82.77 136.462 82.9849V82.9858C136.692 83.1991 136.805 83.4789 136.805 83.8169C136.805 84.099 136.724 84.3441 136.559 84.5474C136.414 84.7254 136.212 84.8456 135.959 84.9126L136.835 86.3569L136.916 86.4907H136.27L136.245 86.4468L135.369 84.9683H134.835V86.4907H134.294V82.6704H135.476ZM134.836 84.4946H135.482C135.753 84.4946 135.942 84.4282 136.064 84.311C136.188 84.1916 136.253 84.0299 136.254 83.8169C136.254 83.5949 136.19 83.4351 136.073 83.3257C135.957 83.2174 135.765 83.1538 135.476 83.1538H134.836V84.4946Z" fill="white" stroke="white" stroke-width="0.17665"/>
<path d="M139.193 83.4263C139.478 83.4263 139.731 83.4879 139.949 83.6147L140.103 83.7183C140.247 83.8293 140.363 83.9648 140.451 84.1255C140.569 84.3392 140.626 84.5758 140.626 84.8325C140.626 84.9585 140.623 85.0589 140.615 85.1294L140.608 85.2085H138.263C138.281 85.3713 138.326 85.5103 138.398 85.6265C138.483 85.766 138.595 85.8697 138.733 85.9399C138.872 86.0116 139.026 86.0483 139.193 86.0483C139.415 86.0483 139.595 85.9941 139.738 85.8921H139.739C139.884 85.7895 139.979 85.6521 140.026 85.4771L140.043 85.4116H140.609L140.582 85.522C140.508 85.8193 140.348 86.0629 140.105 86.2505C139.859 86.44 139.553 86.5327 139.193 86.5327C138.912 86.5327 138.656 86.4696 138.43 86.3413V86.3403C138.203 86.2121 138.026 86.0297 137.899 85.7954C137.77 85.5596 137.708 85.2866 137.708 84.979C137.708 84.6716 137.769 84.398 137.895 84.1606H137.896C138.022 83.9241 138.199 83.7406 138.426 83.6138C138.652 83.4878 138.909 83.4263 139.193 83.4263ZM139.178 83.9155C138.928 83.9155 138.718 83.9949 138.544 84.1528C138.392 84.2911 138.297 84.4823 138.264 84.7339H140.076C140.068 84.5735 140.031 84.4382 139.964 84.3257C139.884 84.1907 139.776 84.0888 139.639 84.02V84.021C139.499 83.9511 139.345 83.9156 139.178 83.9155Z" fill="white" stroke="white" stroke-width="0.17665"/>
<path d="M142.942 83.4263C143.307 83.4263 143.616 83.5166 143.863 83.7046C144.108 83.8919 144.266 84.1469 144.336 84.4644L144.36 84.5718H143.788L143.773 84.5044C143.729 84.3189 143.635 84.1762 143.491 84.0728C143.348 83.9695 143.166 83.9156 142.942 83.9155C142.764 83.9155 142.607 83.9549 142.469 84.0337V84.0347C142.332 84.1121 142.223 84.2278 142.141 84.3862C142.06 84.5426 142.018 84.7393 142.018 84.979C142.018 85.2188 142.061 85.4163 142.142 85.5747C142.224 85.735 142.333 85.852 142.469 85.9292C142.608 86.0077 142.764 86.0483 142.942 86.0483C143.166 86.0483 143.348 85.9935 143.491 85.8901C143.634 85.7873 143.729 85.6438 143.773 85.4546L143.788 85.3862H144.361L144.336 85.4937C144.266 85.8051 144.107 86.0573 143.861 86.2476C143.613 86.4388 143.304 86.5327 142.942 86.5327C142.66 86.5327 142.406 86.4687 142.183 86.3403C141.96 86.212 141.785 86.0296 141.659 85.7954C141.533 85.5599 141.472 85.2865 141.472 84.979C141.472 84.6714 141.533 84.3992 141.659 84.1636C141.785 83.9292 141.96 83.7461 142.183 83.6177C142.406 83.4891 142.66 83.4263 142.942 83.4263Z" fill="white" stroke="white" stroke-width="0.17665"/>
<path d="M145.566 83.4683L145.588 83.5229L146.474 85.7437L147.331 83.5239L147.354 83.4683H147.92L147.871 83.5894L146.182 87.7759L146.16 87.8306H145.588L145.638 87.7095L146.177 86.3872L145.023 83.5894L144.973 83.4683H145.566Z" fill="white" stroke="white" stroke-width="0.17665"/>
<path d="M150.021 83.4263C150.386 83.4263 150.696 83.5167 150.942 83.7046C151.187 83.8919 151.345 84.1469 151.415 84.4644L151.439 84.5718H150.868L150.852 84.5044C150.808 84.3189 150.714 84.1762 150.571 84.0728C150.427 83.9695 150.246 83.9156 150.021 83.9155C149.844 83.9155 149.687 83.9549 149.548 84.0337V84.0347C149.412 84.1121 149.302 84.2278 149.22 84.3862C149.14 84.5426 149.097 84.7393 149.097 84.979C149.097 85.2188 149.14 85.4163 149.221 85.5747C149.303 85.735 149.412 85.852 149.548 85.9292C149.687 86.0077 149.844 86.0483 150.021 86.0483C150.246 86.0483 150.427 85.9935 150.571 85.8901C150.714 85.7873 150.808 85.6438 150.852 85.4546L150.868 85.3862H151.44L151.415 85.4937C151.345 85.8051 151.186 86.0573 150.94 86.2476C150.692 86.4388 150.384 86.5327 150.021 86.5327C149.74 86.5327 149.485 86.4687 149.262 86.3403C149.039 86.212 148.864 86.0295 148.739 85.7954C148.613 85.5599 148.551 85.2865 148.551 84.979C148.551 84.6714 148.613 84.3992 148.739 84.1636V84.1626C148.864 83.9285 149.039 83.746 149.262 83.6177C149.485 83.4891 149.74 83.4263 150.021 83.4263Z" fill="white" stroke="white" stroke-width="0.17665"/>
<path d="M152.975 82.457V86.4912H152.434V82.457H152.975Z" fill="white" stroke="white" stroke-width="0.17665"/>
<path d="M154.691 83.4683V86.4907H154.149V83.4683H154.691ZM154.42 82.394C154.515 82.394 154.6 82.428 154.669 82.4946C154.739 82.5625 154.774 82.6488 154.774 82.7476C154.774 82.8466 154.739 82.9341 154.67 83.0034C154.601 83.0719 154.516 83.1069 154.42 83.1069C154.323 83.1069 154.238 83.072 154.17 83.0034C154.1 82.9341 154.066 82.8465 154.066 82.7476C154.066 82.649 154.101 82.5624 154.171 82.4946C154.239 82.428 154.324 82.3941 154.42 82.394Z" fill="white" stroke="white" stroke-width="0.17665"/>
<path d="M157.287 83.416C157.648 83.4161 157.949 83.5275 158.183 83.7559C158.421 83.9876 158.533 84.319 158.533 84.7344V86.4912H157.996V84.7754C157.996 84.4803 157.922 84.2687 157.788 84.127V84.1279C157.653 83.9856 157.467 83.9102 157.219 83.9102C156.965 83.9102 156.77 83.9903 156.626 84.1436L156.625 84.1426C156.483 84.2943 156.406 84.5251 156.406 84.8486V86.4912H155.865V83.4678H156.406V83.7656C156.48 83.686 156.567 83.6183 156.666 83.5645C156.851 83.4645 157.059 83.416 157.287 83.416Z" fill="white" stroke="white" stroke-width="0.17665"/>
<path d="M160.967 83.4263C161.249 83.4263 161.499 83.4922 161.713 83.6274C161.828 83.6997 161.924 83.784 162.005 83.8784V83.4673H162.547V86.4751C162.547 86.7487 162.487 86.9949 162.366 87.2114C162.245 87.4273 162.076 87.5948 161.86 87.7124V87.7134C161.644 87.8305 161.399 87.8872 161.129 87.8872C160.75 87.8872 160.428 87.7975 160.168 87.6108C159.908 87.4238 159.745 87.1673 159.682 86.8472L159.661 86.7417H160.193L160.212 86.8032C160.269 86.9818 160.375 87.1239 160.534 87.231C160.692 87.3373 160.89 87.3931 161.129 87.3931C161.3 87.393 161.451 87.3571 161.582 87.2866V87.2856C161.712 87.2162 161.815 87.1138 161.891 86.9751C161.966 86.8375 162.005 86.6716 162.005 86.4751V86.0688C161.923 86.1662 161.826 86.2533 161.711 86.3276C161.498 86.465 161.249 86.5327 160.967 86.5327C160.692 86.5326 160.442 86.4676 160.221 86.3374C160.055 86.2397 159.916 86.1114 159.805 85.9536L159.703 85.7866C159.579 85.5497 159.519 85.2778 159.519 84.9741C159.519 84.6704 159.579 84.3992 159.703 84.1636L159.806 83.9976C159.917 83.8412 160.056 83.7141 160.222 83.6177C160.443 83.4894 160.693 83.4263 160.967 83.4263ZM161.035 83.9204C160.848 83.9204 160.681 83.9623 160.536 84.0444C160.392 84.1262 160.277 84.2447 160.193 84.4028C160.109 84.5596 160.066 84.7492 160.066 84.9741C160.066 85.1952 160.109 85.3845 160.194 85.5454C160.279 85.7073 160.393 85.8279 160.537 85.9106V85.9116C160.682 85.9953 160.848 86.0376 161.035 86.0376C161.215 86.0376 161.377 85.9942 161.525 85.9087C161.672 85.8235 161.789 85.7019 161.875 85.5415C161.961 85.3826 162.005 85.196 162.005 84.979C162.005 84.7619 161.961 84.5755 161.875 84.4165C161.789 84.2561 161.672 84.1345 161.525 84.0493C161.377 83.9638 161.215 83.9205 161.035 83.9204Z" fill="white" stroke="white" stroke-width="0.17665"/>
</g>
</g>
<defs>
<clipPath id="clip0_145_464">
<rect width="174" height="106.459" fill="white"/>
</clipPath>
</defs>
</svg>
