<svg width="163" height="62" viewBox="0 0 163 62" fill="none" xmlns="http://www.w3.org/2000/svg">
<path d="M12.5053 31.6814V34.8879C12.6328 34.8986 12.7475 34.9132 12.8628 34.9166C15.9449 35.0037 19.0313 35.0202 22.1086 35.1987C24.3925 35.3315 26.4494 36.1096 27.8448 38.0848C28.4629 38.9602 28.7698 39.9626 28.7795 41.0278C28.8024 43.5296 28.7863 46.0315 28.7873 48.5333C28.7873 49.0664 28.5782 49.4846 28.084 49.7069C27.3623 50.0308 26.5413 49.4093 26.5384 48.5397C26.5325 46.6847 26.5364 44.8297 26.5364 42.9747C26.5364 42.3064 26.5209 41.6372 26.5403 40.9689C26.5676 40.0093 26.1405 39.2905 25.392 38.7438C24.5345 38.1174 23.5366 37.8795 22.5025 37.8333C20.3912 37.7395 18.2784 37.6841 16.1662 37.6194C15.067 37.5853 13.9673 37.5644 12.8677 37.5386C12.7524 37.5357 12.6366 37.5381 12.4907 37.5381V37.9797C12.4907 45.0111 12.4917 52.0419 12.4869 59.0733C12.4869 59.3058 12.4669 59.5523 12.3891 59.7683C12.2227 60.2298 11.7544 60.4998 11.3215 60.4317C10.8167 60.3524 10.3994 59.9278 10.3566 59.4434C10.3454 59.3145 10.3478 59.1847 10.3478 59.0553C10.3478 43.839 10.3478 28.6226 10.3498 13.4063C10.3498 13.2355 10.3483 13.0571 10.395 12.8956C10.5404 12.3878 10.9986 12.0848 11.4966 12.1408C12.0175 12.1996 12.4455 12.6631 12.4854 13.219C12.4956 13.3586 12.4903 13.4992 12.4903 13.6392C12.4903 16.8424 12.4903 20.0451 12.4903 23.2478V23.6068C12.7169 23.7138 12.8467 23.6685 12.9669 23.4511C16.6175 16.8342 20.2745 10.2201 23.9305 3.60556C24.394 2.76707 24.8716 1.93539 25.3127 1.08523C25.5408 0.646044 25.8331 0.546851 26.2713 0.721942C26.569 0.840614 26.8525 1.05316 27.0763 1.28661C27.4367 1.66257 27.4367 1.93392 27.1828 2.39304C23.3293 9.36602 19.4759 16.3391 15.6225 23.312C15.5563 23.4317 15.4955 23.5547 15.4094 23.7191C16.0655 23.7434 16.6744 23.7692 17.2838 23.7891C17.812 23.8062 18.3407 23.8076 18.8679 23.8353C19.0712 23.8465 19.1743 23.7726 19.2696 23.5994C22.0191 18.6128 24.7733 13.629 27.5266 8.64475C27.8496 8.06063 28.1716 7.47652 28.4969 6.89386C28.7353 6.46634 28.9055 6.48823 29.5548 6.74454C30.367 7.32769 30.6535 7.67983 30.3539 8.22067C27.5315 13.3158 24.7188 18.4163 21.9043 23.5158C21.843 23.6267 21.7842 23.739 21.7025 23.8913C22.0094 23.92 22.0876 23.9482 22.4816 23.8748C23.2111 23.7386 23.9689 23.7614 24.6727 23.9973C25.1678 24.1631 25.2101 24.0143 25.3069 23.8392C26.9503 20.8612 28.5932 17.8828 30.2371 14.9052C30.7308 14.0118 31.2366 13.1256 31.7127 12.2229C32.3922 12.3878 32.9491 12.7224 33.3834 13.2399C33.5493 13.4374 33.5517 13.6217 33.4209 13.8566C31.4453 17.4134 29.4784 20.9755 27.5096 24.5367C27.4887 24.5741 27.4741 24.615 27.4425 24.6865C27.7976 24.829 28.1536 24.9652 28.5038 25.1145C32.0372 26.6261 34.7112 29.0959 36.6386 32.4036C37.6868 34.2022 38.6493 36.0416 39.088 38.0936C39.285 39.0147 39.4357 39.9661 39.4401 40.9047C39.4698 47.3641 39.4591 53.824 39.445 60.2834C39.445 60.5893 39.3423 60.9263 39.1896 61.1933C38.9571 61.6014 38.4708 61.7454 38.0331 61.6282C37.5847 61.5085 37.1999 61.0552 37.1498 60.5752C37.1333 60.4152 37.1343 60.2523 37.1343 60.0908C37.1333 54.073 37.1177 48.0557 37.1459 42.0384C37.1517 40.8055 37.02 39.612 36.6309 38.451C36.2583 37.3397 35.8785 36.2288 35.4398 35.1423C34.6883 33.28 33.3747 31.8428 31.8986 30.5155C29.9045 28.7223 27.6915 27.3911 25.035 26.8376C23.768 26.5735 22.4914 26.5342 21.2108 26.4996C18.4297 26.4242 15.6487 26.3615 12.8677 26.2939C12.7524 26.2915 12.6371 26.2939 12.5063 26.2939V29.1795C12.5642 29.1921 12.6235 29.216 12.6833 29.2174C15.8739 29.3064 19.064 29.464 22.2545 29.4631C26.1318 29.4616 31.3558 31.7329 33.3299 37.4272C33.9671 39.2657 34.2759 41.1596 34.2842 43.0977C34.3002 46.8077 34.2963 50.5172 34.2754 54.2267C34.2739 54.5603 34.1475 54.9285 33.9739 55.2174C33.7258 55.6308 33.2293 55.7553 32.775 55.625C32.2721 55.4801 31.8923 55.0083 31.8422 54.4601C31.832 54.3531 31.8349 54.2447 31.8349 54.1372C31.8349 50.2224 31.81 46.3077 31.8465 42.3935C31.8626 40.6922 31.4589 39.1105 30.7322 37.6033C29.1822 34.3899 26.5807 32.5845 23.0935 32.0101C22.6912 31.944 22.2764 31.9527 21.8669 31.9411C18.849 31.8525 15.8311 31.7674 12.8137 31.6818C12.7193 31.6789 12.625 31.6814 12.5053 31.6814Z" fill="white"/>
<path d="M2.14393 24.2043C2.14393 31.8067 2.14393 39.409 2.14636 47.0113C2.14636 47.3415 2.12442 47.6553 1.90021 47.9223C1.61666 48.2603 1.20135 48.3975 0.796692 48.2569C0.302548 48.0857 0.0622544 47.7024 0 47.1908C0 31.8854 4.79713e-05 16.5806 0.000534334 1.2757C0.000534334 0.620084 0.274829 0.184816 0.776269 0.0384208C1.3886 -0.140561 2.06999 0.328319 2.13419 0.977127C2.14878 1.12693 2.14339 1.27863 2.14339 1.42989C2.14339 9.02103 2.14339 16.6127 2.14339 24.2043" fill="white"/>
<path d="M7.3295 30.0262C7.3295 37.5638 7.32946 45.101 7.32849 52.6387C7.32849 52.8113 7.32704 52.984 7.31293 53.1557C7.26624 53.7135 6.83973 54.1318 6.30862 54.1468C5.76341 54.1629 5.25807 53.7315 5.18949 53.1829C5.17101 53.0341 5.17197 52.8818 5.17197 52.731C5.17149 37.559 5.17098 22.3869 5.17536 7.2148C5.17584 6.97162 5.19144 6.71143 5.27801 6.48965C5.46429 6.01399 5.91707 5.78341 6.39613 5.86317C6.85526 5.94002 7.25313 6.35734 7.30711 6.83251C7.32657 7.00323 7.32849 7.17686 7.32849 7.34904C7.32946 14.9081 7.3295 22.4671 7.3295 30.0262Z" fill="white"/>
<path d="M100.906 21.519C102.8 21.5409 104.583 21.933 106.191 22.9572C108.017 24.1201 109.261 25.7645 109.885 27.8169C110.79 30.7949 110.808 33.8002 109.599 36.6979C108.236 39.9639 105.717 41.778 102.186 42.1583C100.56 42.3334 98.9553 42.221 97.4102 41.6739C95.0119 40.8242 93.2731 39.2017 92.3223 36.8608C90.9561 33.4962 90.9362 30.0659 92.4147 26.7353C93.671 23.9066 95.9185 22.2277 98.9957 21.7238C99.6265 21.6207 100.269 21.5857 100.906 21.519ZM107.43 31.6009C107.468 30.6189 107.314 29.3952 106.96 28.2046C106.558 26.8544 105.858 25.6774 104.734 24.7981C103.17 23.5749 101.361 23.4091 99.4952 23.7378C97.5371 24.0832 96.2152 25.2854 95.3514 27.0485C94.6286 28.5232 94.4779 30.1092 94.4132 31.7064C94.386 32.3873 94.4939 33.0745 94.5523 33.7578C94.6612 35.035 95.0299 36.2335 95.688 37.3351C96.329 38.4095 97.1903 39.2397 98.3776 39.7022C99.4262 40.1107 100.499 40.2231 101.623 40.1346C103.793 39.9629 105.34 38.8827 106.356 37.0058C107.223 35.4042 107.435 33.6543 107.43 31.6009Z" fill="white"/>
<path d="M136.312 41.7568C135.097 41.7568 133.977 41.7645 132.859 41.7451C132.747 41.7431 132.612 41.5953 132.533 41.4834C130.71 38.9004 128.891 36.3143 127.08 33.7225C126.934 33.5129 126.785 33.4234 126.527 33.4288C125.772 33.4453 125.017 33.4346 124.2 33.4346V33.9317C124.2 36.4039 124.192 38.8761 124.208 41.3482C124.21 41.6892 124.111 41.7758 123.782 41.766C122.979 41.7432 122.175 41.7587 121.351 41.7587V22.0289C121.487 22.0289 121.619 22.0284 121.752 22.0284C123.745 22.0284 125.739 21.9925 127.731 22.046C128.575 22.0683 129.439 22.1928 130.253 22.4195C132.379 23.0114 133.499 24.4389 133.584 26.6329C133.682 29.1279 132.488 30.8953 130.357 32.0879C130.076 32.2445 129.782 32.3763 129.455 32.5387C131.733 35.6014 133.994 38.6402 136.312 41.7568ZM124.168 31.4026C125.165 31.3282 126.122 31.3141 127.06 31.175C128.845 30.9104 130.396 29.7874 130.618 27.7651C130.796 26.1411 130.082 24.9276 128.634 24.4539C127.197 23.9846 125.709 24.0653 124.228 24.1062C124.209 24.1062 124.192 24.1383 124.168 24.1601V31.4026Z" fill="white"/>
<path d="M162.547 41.7562C161.519 41.7562 160.54 41.765 159.561 41.7426C159.469 41.7401 159.347 41.5573 159.296 41.4347C158.65 39.8662 158.008 38.2957 157.383 36.719C157.261 36.4101 157.11 36.2939 156.759 36.2963C154.148 36.3157 151.537 36.3124 148.926 36.3002C148.616 36.2988 148.471 36.3897 148.352 36.6864C147.719 38.2748 147.051 39.8497 146.412 41.4362C146.309 41.6925 146.173 41.7694 145.909 41.764C145.154 41.748 144.398 41.7582 143.593 41.7582C143.636 41.6089 143.658 41.4916 143.702 41.3842C145.394 37.2725 147.087 33.1617 148.781 29.051C149.695 26.8327 150.612 24.6158 151.518 22.3941C151.626 22.1295 151.746 22.0045 152.061 22.0187C152.767 22.0503 153.474 22.043 154.18 22.0216C154.46 22.0133 154.59 22.094 154.699 22.3635C157.201 28.5612 159.715 34.7536 162.225 40.9469C162.328 41.1983 162.426 41.4513 162.547 41.7562ZM152.91 25.7476C152.878 25.7447 152.847 25.7412 152.815 25.7383C151.662 28.5485 150.508 31.3592 149.348 34.186H156.386C155.213 31.3403 154.062 28.5442 152.91 25.7476Z" fill="white"/>
<path d="M66.3481 22.0295C63.6318 25.2142 60.9835 28.3192 58.3231 31.4387C61.4675 34.8695 64.5894 38.2755 67.7819 41.7588H66.6822C65.9255 41.7588 65.1682 41.7749 64.4124 41.7482C64.2271 41.7413 63.9946 41.6421 63.8721 41.5059C61.0691 38.3986 58.2784 35.28 55.4862 32.1629C55.3952 32.0617 55.3116 31.9542 55.1409 31.8881V41.7262H52.4197V22.0587H55.1039V31.588C55.1346 31.6007 55.1657 31.6133 55.1963 31.6264C55.4711 31.3132 55.7498 31.0029 56.0207 30.6858C58.4194 27.8771 60.8157 25.0659 63.2174 22.2596C63.3001 22.1628 63.428 22.0417 63.5364 22.0397C64.4406 22.0217 65.3447 22.0295 66.3481 22.0295Z" fill="white"/>
<path d="M80.5106 22.0493H77.6338V41.7397H80.5106V22.0493Z" fill="white"/>
<path d="M123.229 47.1084V53.0381H122.254V45.1897C122.729 45.1897 123.204 45.1732 123.676 45.2038C123.767 45.2101 123.881 45.3896 123.924 45.5107C124.537 47.2227 125.138 48.9381 125.743 50.6525C125.793 50.794 125.851 50.9327 125.935 51.1515C126.088 50.742 126.218 50.3996 126.343 50.0553C126.896 48.5329 127.453 47.0126 127.993 45.4854C128.074 45.2534 128.182 45.1707 128.422 45.1834C128.772 45.2023 129.123 45.1882 129.5 45.1882V53.0356H128.452V47.1176C128.419 47.1132 128.385 47.1089 128.352 47.104C128.213 47.4732 128.072 47.8408 127.938 48.211C127.454 49.5485 126.963 50.8835 126.499 52.2273C126.405 52.4968 126.269 52.5576 126.011 52.5542C125.245 52.5444 125.245 52.5542 124.987 51.8183C124.456 50.3052 123.925 48.7922 123.393 47.2796C123.369 47.2134 123.333 47.1512 123.304 47.087C123.279 47.0943 123.254 47.1011 123.229 47.1084Z" fill="white"/>
<path d="M147.134 53.0697C146.805 53.0697 146.501 53.0935 146.204 53.058C146.085 53.0439 145.948 52.9223 145.876 52.8124C144.745 51.0843 143.624 49.35 142.5 47.6171C142.435 47.5164 142.364 47.4191 142.225 47.335V53.0415H141.206V45.1916C141.542 45.1916 141.88 45.1663 142.21 45.2057C142.323 45.2193 142.44 45.3798 142.516 45.498C143.627 47.2095 144.73 48.9259 145.835 50.6399C145.914 50.7619 146.002 50.8787 146.159 50.9793V45.2072H147.134V53.0697Z" fill="white"/>
<path d="M92.0063 48.7292C92.5743 49.5429 93.1473 50.3633 93.7669 51.2514C94.2309 50.4825 94.2615 49.714 94.2572 48.9052H95.3072C95.3495 50.0093 94.9989 50.9878 94.316 51.8968C94.6487 52.267 94.9789 52.6351 95.3092 53.0033C94.691 52.9299 93.9877 53.4007 93.5597 52.7368C92.9844 52.9187 92.4518 53.1623 91.8949 53.2475C90.644 53.4396 89.3152 52.87 88.8619 51.657C88.485 50.6503 88.6304 49.1474 90.0852 48.4558C90.2301 48.3868 90.3765 48.3206 90.5297 48.2496C90.409 47.9694 90.2802 47.7107 90.1839 47.4398C89.6324 45.8898 90.8259 44.9841 91.9683 44.9997C92.7275 45.0099 93.3744 45.4092 93.6079 46.0075C93.8657 46.6675 93.6648 47.4384 93.0656 47.952C92.7543 48.219 92.4036 48.4403 92.0063 48.7292ZM90.9241 48.9694C90.2914 49.1396 89.8322 49.6581 89.7695 50.286C89.6868 51.1123 90.1352 51.9202 90.8711 52.2713C91.5481 52.5948 92.4601 52.4561 92.9503 51.9707C92.2743 50.9693 91.6006 49.9713 90.9241 48.9694ZM91.5914 47.9271C92.3258 47.6703 92.7378 47.1383 92.6911 46.5391C92.6575 46.1111 92.3521 45.8363 91.9081 45.8343C91.463 45.8324 91.1591 46.1028 91.1304 46.5366C91.0958 47.0663 91.3269 47.5035 91.5914 47.9271Z" fill="white"/>
<path d="M76.5009 45.2521C77.7173 45.2521 78.9089 45.1646 80.0825 45.273C81.7517 45.4277 82.8421 46.6606 82.9623 48.3493C83.0357 49.3794 82.9618 50.3905 82.4413 51.3175C81.8178 52.4289 80.8685 53.029 79.5918 53.0582C78.5719 53.0821 77.551 53.0631 76.5009 53.0631V45.2521ZM77.6011 45.9773C77.6011 48.0798 77.5982 50.0433 77.6123 52.0062C77.6123 52.0792 77.7781 52.2081 77.8715 52.213C78.2985 52.2353 78.728 52.2392 79.155 52.2197C80.4682 52.1594 81.2498 51.6434 81.5499 50.4917C81.7182 49.8478 81.7809 49.1459 81.7298 48.4825C81.6515 47.4656 81.2221 46.5498 80.1521 46.2681C79.3535 46.058 78.4965 46.0707 77.6011 45.9773Z" fill="white"/>
<path d="M101.606 53.0679V45.1884C101.908 45.1884 102.194 45.1825 102.479 45.1893C103.41 45.2112 104.346 45.1854 105.272 45.2739C106.65 45.4062 107.521 46.2292 107.91 47.5282C108.259 48.695 108.205 49.872 107.716 50.9955C107.14 52.3175 106.115 53.0309 104.661 53.0635C103.656 53.0859 102.649 53.0679 101.606 53.0679ZM102.75 52.2698C103.516 52.2216 104.259 52.226 104.984 52.1156C105.785 51.993 106.326 51.4853 106.607 50.7154C106.981 49.6906 107.021 48.6551 106.656 47.6245C106.443 47.0219 106.049 46.538 105.443 46.306C104.581 45.9758 103.672 46.0575 102.75 46.0409V52.2698Z" fill="white"/>
<path d="M60.5006 49.1377C60.5429 47.8586 60.8488 46.6991 61.8386 45.8285C63.8244 44.0824 67.0427 45.1126 67.6628 47.7005C67.9818 49.0297 67.9478 50.3541 67.2498 51.5763C66.4736 52.9367 65.1765 53.3997 63.803 53.2645C62.1995 53.1064 61.1888 52.1819 60.7433 50.6576C60.6008 50.1688 60.5779 49.6455 60.5006 49.1377ZM66.7217 49.1397C66.6896 49.1309 66.657 49.1221 66.6249 49.1134C66.6011 48.3401 66.5048 47.5823 66.0826 46.9082C65.2295 45.5459 63.1586 45.4978 62.3396 46.8752C61.5079 48.2725 61.5468 49.7671 62.2277 51.2169C62.6319 52.0763 63.393 52.4333 64.338 52.3837C65.2285 52.337 65.8924 51.8983 66.2154 51.0885C66.4624 50.4704 66.5583 49.7914 66.7217 49.1397Z" fill="white"/>
<path d="M149.834 53.0652V45.1793C151.253 45.2528 152.675 44.995 154.053 45.3812C155.457 45.7746 156.106 46.8529 156.295 48.2259C156.416 49.1072 156.343 49.9841 156.024 50.8304C155.509 52.1951 154.375 53.0297 152.92 53.0608C151.902 53.0827 150.883 53.0652 149.834 53.0652ZM150.951 52.2657C151.677 52.2272 152.352 52.2126 153.022 52.1508C153.8 52.0793 154.375 51.6796 154.733 50.9753C155.223 50.0104 155.24 48.9827 155.012 47.9706C154.785 46.9648 154.138 46.2736 153.074 46.1238C152.454 46.0368 151.819 46.0582 151.192 46.0251C150.974 46.0134 150.949 46.137 150.95 46.3106C150.954 47.0037 150.951 47.6968 150.951 48.3898V52.2657Z" fill="white"/>
<path d="M139.032 49.1685C138.97 50.2152 138.749 51.1796 138.093 52.0327C136.731 53.805 133.291 53.8269 132.156 51.3348C131.47 49.8295 131.477 48.2741 132.236 46.7892C132.941 45.4075 134.304 44.8165 136.011 45.0495C137.369 45.2348 138.506 46.3136 138.825 47.7547C138.928 48.2182 138.964 48.6967 139.032 49.1685ZM132.841 49.0984C132.889 49.8484 132.967 50.5678 133.323 51.2311C133.783 52.0901 134.513 52.4349 135.472 52.4009C136.355 52.3693 136.994 51.9675 137.361 51.1888C137.952 49.9364 137.96 48.6325 137.483 47.3519C137.063 46.226 136.325 45.8213 135.024 45.8714C134.197 45.903 133.419 46.5416 133.128 47.5149C132.975 48.0255 132.933 48.5698 132.841 49.0984Z" fill="white"/>
<path d="M57.2464 52.1912V49.6797H58.4321V51.1062C58.4321 51.5979 58.4423 52.09 58.4243 52.5813C58.4204 52.6917 58.3407 52.8731 58.2599 52.8955C57.0401 53.2403 55.8082 53.4689 54.551 53.0915C53.1721 52.6781 52.4421 51.6888 52.1926 50.3241C52.0024 49.2833 52.0248 48.2395 52.4003 47.2328C52.9591 45.7314 54.3039 44.9089 56.101 45.0057C56.7644 45.0412 57.4215 45.1847 58.0819 45.2727C58.3261 45.3053 58.4297 45.4216 58.4088 45.6749C58.3893 45.9108 58.4049 46.1491 58.4049 46.4376C57.92 46.3038 57.4847 46.1345 57.0344 46.0713C56.4566 45.9901 55.8505 45.8923 55.2858 45.9828C54.2499 46.1491 53.6658 46.9064 53.481 47.882C53.3477 48.5878 53.3044 49.348 53.4138 50.0542C53.6935 51.8571 55.1609 52.7349 56.9614 52.2729C57.0446 52.2515 57.1262 52.2257 57.2464 52.1912Z" fill="white"/>
<path d="M120.428 53.0425C120.353 53.0571 120.329 53.0649 120.304 53.0658C119.582 53.0931 119.092 52.7693 118.832 52.0946C118.719 51.8013 118.589 51.5139 118.492 51.2153C118.425 51.0056 118.325 50.9196 118.092 50.9234C117.209 50.9376 116.325 50.938 115.443 50.9234C115.199 50.9191 115.083 51.0037 115.003 51.2274C114.82 51.7371 114.597 52.2322 114.423 52.7443C114.334 53.007 114.199 53.1023 113.93 53.0746C113.719 53.0522 113.503 53.0698 113.232 53.0698C113.277 52.9224 113.305 52.8081 113.348 52.6996C114.276 50.3242 115.212 47.9518 116.126 45.571C116.24 45.2758 116.374 45.1664 116.693 45.181C117.611 45.2228 117.353 45.0302 117.685 45.8779C118.561 48.1147 119.414 50.3602 120.275 52.6029C120.328 52.742 120.373 52.8839 120.428 53.0425ZM116.76 46.7178C116.308 47.87 115.894 48.9269 115.464 50.0236H118.045C117.62 48.9298 117.21 47.8778 116.76 46.7178Z" fill="white"/>
<path d="M162.361 46.3253C161.733 46.176 161.178 46.0131 160.612 45.9178C160.003 45.8157 159.41 46.1687 159.276 46.657C159.169 47.0408 159.227 47.4085 159.548 47.6521C159.997 47.9931 160.483 48.2863 160.952 48.5996C161.288 48.8233 161.636 49.0295 161.954 49.2742C162.736 49.8734 163.009 50.6744 162.748 51.6165C162.493 52.5381 161.792 52.9992 160.905 53.2035C160.006 53.4112 159.133 53.2045 158.269 52.9701C158.186 52.9477 158.087 52.8051 158.08 52.7113C158.055 52.4126 158.07 52.1101 158.07 51.8198C158.672 51.9997 159.249 52.203 159.842 52.3353C160.124 52.3981 160.443 52.3587 160.734 52.3052C161.191 52.2205 161.512 51.9248 161.613 51.4715C161.718 51.0076 161.641 50.5474 161.232 50.2435C160.82 49.9361 160.368 49.6822 159.941 49.3938C159.546 49.1268 159.138 48.8705 158.776 48.5636C158.158 48.0417 157.986 47.3448 158.171 46.5797C158.36 45.804 158.888 45.3156 159.648 45.1085C160.505 44.8755 161.349 45.0341 162.181 45.2675C162.254 45.2879 162.348 45.3939 162.353 45.4659C162.373 45.7504 162.361 46.0369 162.361 46.3253Z" fill="white"/>
<path d="M70.0494 53.0409V45.21H71.1724V52.1839H74.6353V53.0409H70.0494Z" fill="white"/>
<path d="M111.429 45.2178H110.326V53.0482H111.429V45.2178Z" fill="white"/>
<path d="M162.593 17.8275C162.599 19.4097 161.297 20.7029 159.714 20.7C158.137 20.6975 156.84 19.4048 156.845 17.8164C156.85 16.2376 158.146 14.9444 159.732 14.9512C161.304 14.9575 162.601 16.2454 162.593 17.8275ZM159.718 20.3454C161.112 20.341 162.233 19.2229 162.238 17.8358C162.244 16.4375 161.118 15.3091 159.725 15.3067C158.327 15.3043 157.204 16.4307 157.201 17.8183C157.197 19.2147 158.322 20.3391 159.718 20.3454Z" fill="white"/>
<path d="M160.061 18.0044C160.063 18.017 160.069 18.019 160.074 18.0219C160.275 18.1391 160.427 18.3059 160.555 18.4976C160.733 18.7655 160.898 19.0418 161.071 19.3132C161.092 19.3463 161.088 19.3516 161.049 19.3516C160.828 19.3516 160.608 19.3516 160.387 19.3516C160.361 19.3516 160.345 19.3419 160.33 19.3205C160.177 19.0904 160.023 18.8609 159.868 18.6318C159.783 18.5049 159.697 18.3774 159.599 18.2592C159.506 18.1469 159.385 18.0919 159.241 18.0851C159.165 18.0817 159.088 18.0773 159.011 18.0773C158.977 18.0773 158.969 18.088 158.969 18.1211C158.97 18.5121 158.969 18.9037 158.969 19.2952C158.969 19.3325 158.95 19.3511 158.914 19.3511C158.74 19.3511 158.565 19.3511 158.391 19.3511C158.348 19.3511 158.346 19.3492 158.346 19.3059V16.3449C158.346 16.3002 158.347 16.2987 158.393 16.2987C158.828 16.2987 159.262 16.2968 159.696 16.2987C159.874 16.2997 160.051 16.3094 160.226 16.3449C160.542 16.4096 160.773 16.6503 160.828 16.9815C160.865 17.2057 160.843 17.4217 160.72 17.6192C160.606 17.8025 160.434 17.9066 160.231 17.9655C160.176 17.9815 160.119 17.9937 160.061 18.0034M159.411 16.824C159.262 16.824 159.138 16.825 159.014 16.823C158.98 16.8225 158.968 16.8312 158.969 16.8677C158.97 17.0929 158.97 17.3181 158.969 17.5433C158.968 17.5798 158.98 17.5875 159.014 17.5871C159.192 17.5856 159.369 17.5876 159.547 17.5861C159.664 17.5851 159.781 17.5813 159.898 17.5652C160.023 17.5487 160.118 17.4879 160.169 17.3697C160.207 17.2846 160.213 17.1941 160.194 17.1037C160.16 16.9432 160.031 16.8396 159.864 16.8303C159.705 16.8216 159.546 16.8254 159.411 16.824Z" fill="white"/>
</svg>
