<svg width="173" height="45" viewBox="0 0 173 45" fill="none" xmlns="http://www.w3.org/2000/svg">
<path d="M64.6335 5.63916C67.1398 5.63916 69.1167 6.28028 70.5655 7.56188C72.0143 8.84412 72.7387 10.5233 72.7387 12.5982C72.7387 14.6839 72.0143 16.3606 70.5655 17.6276C69.1167 18.8953 67.1392 19.5288 64.6335 19.5288H60.9345V24.3628L63.2803 24.8118V27.4315H54.2131V24.8118L56.5436 24.3628V8.72236L54.2131 8.27339V5.63979H64.6341L64.6335 5.63916ZM60.9338 16.1615H64.6328C65.8561 16.1615 66.7805 15.8298 67.4074 15.1659C68.0337 14.5026 68.3471 13.6566 68.3471 12.6293C68.3471 11.5817 68.0337 10.7155 67.4074 10.0319C66.7805 9.34889 65.8561 9.00709 64.6328 9.00709H60.9338V16.1615Z" fill="white"/>
<path d="M74.5729 24.8125L76.6779 24.3636V14.3206L74.3474 13.8717V11.2374H80.7687L80.9643 13.6022C81.3453 12.7638 81.8365 12.11 82.4379 11.6408C83.0393 11.1721 83.7363 10.9375 84.5282 10.9375C84.7588 10.9375 85.0016 10.9553 85.2577 10.9901C85.5132 11.0256 85.726 11.0675 85.8967 11.117L85.4303 15.0981L83.6261 15.0537C82.9845 15.0537 82.4532 15.1786 82.032 15.4279C81.6109 15.6777 81.2898 16.0316 81.07 16.4907V24.3636L83.175 24.8125V27.4322H74.5735L74.5729 24.8125Z" fill="white"/>
<path d="M86.9275 19.185C86.9275 16.7702 87.6067 14.7917 88.965 13.2507C90.3233 11.7085 92.2002 10.938 94.5963 10.938C96.9924 10.938 98.884 11.7066 100.243 13.2437C101.601 14.7803 102.28 16.7607 102.28 19.1856V19.4995C102.28 21.9346 101.601 23.9176 100.243 25.4497C98.8846 26.9812 97.0122 27.7472 94.6262 27.7472C92.2104 27.7472 90.3233 26.9812 88.965 25.4497C87.6067 23.9176 86.9275 21.9346 86.9275 19.4995V19.1856V19.185ZM91.3178 19.4989C91.3178 20.9758 91.5784 22.161 92.1001 23.0533C92.6213 23.9468 93.4635 24.3932 94.6262 24.3932C95.759 24.3932 96.5885 23.9442 97.1148 23.0457C97.641 22.1477 97.9041 20.9657 97.9041 19.4983V19.1844C97.9041 17.7468 97.6384 16.5749 97.1071 15.6668C96.5758 14.7587 95.7386 14.3053 94.5957 14.3053C93.4527 14.3053 92.6206 14.7593 92.0995 15.6668C91.5783 16.5749 91.3171 17.7468 91.3171 19.1844V19.4983L91.3178 19.4989Z" fill="white"/>
<path d="M103.679 13.8717V11.2374H110.099L110.28 13.3777C110.801 12.599 111.455 11.9984 112.242 11.5742C113.029 11.1499 113.939 10.9375 114.971 10.9375C116.014 10.9375 116.906 11.1671 117.648 11.6262C118.389 12.0859 118.951 12.7784 119.332 13.7068C119.834 12.8387 120.485 12.1601 121.287 11.6712C122.089 11.1823 123.031 10.9375 124.114 10.9375C125.717 10.9375 126.983 11.4892 127.911 12.5913C128.838 13.6941 129.302 15.3733 129.302 17.6277V24.3629L131.422 24.8119V27.4315H123.016V24.8119L124.911 24.3629V17.6125C124.911 16.3848 124.71 15.5319 124.309 15.0531C123.908 14.5743 123.312 14.3346 122.52 14.3346C121.898 14.3346 121.359 14.4722 120.903 14.7462C120.447 15.0207 120.084 15.4019 119.813 15.8908C119.813 16.081 119.818 16.2427 119.829 16.3778C119.838 16.5122 119.844 16.6499 119.844 16.7894V24.3623L121.618 24.8113V27.4309H113.693V24.8113L115.468 24.3623V17.6118C115.468 16.414 115.267 15.5686 114.866 15.0746C114.466 14.5813 113.864 14.334 113.062 14.334C112.471 14.334 111.952 14.4462 111.506 14.6707C111.06 14.8952 110.691 15.2123 110.4 15.6206V24.3617L112.295 24.8106V27.4303H103.904V24.8106L106.025 24.3617V14.3187L103.679 13.8698V13.8717Z" fill="white"/>
<path d="M132.701 24.8126L134.822 24.3637V14.3207L132.476 13.8718V11.2375H139.212V24.3637L141.317 24.8126V27.4323H132.701V24.8126ZM139.212 7.3604H134.822V4.08252H139.212V7.3604Z" fill="white"/>
<path d="M156.039 16.8052H153.092L152.625 14.7842C152.325 14.5445 151.946 14.3454 151.49 14.1856C151.034 14.0264 150.53 13.9459 149.979 13.9459C149.207 13.9459 148.595 14.1177 148.144 14.462C147.693 14.8064 147.467 15.2382 147.467 15.757C147.467 16.2459 147.683 16.6524 148.114 16.9771C148.545 17.3017 149.407 17.5884 150.701 17.8369C152.716 18.2365 154.209 18.823 155.182 19.5954C156.154 20.3691 156.641 21.4338 156.641 22.7915C156.641 24.2481 156.011 25.4384 154.754 26.3611C153.496 27.2838 151.839 27.7461 149.784 27.7461C148.531 27.7461 147.38 27.5634 146.333 27.1994C145.285 26.8354 144.355 26.3142 143.543 25.6356L143.498 21.9988H146.566L147.167 24.1086C147.428 24.3287 147.784 24.491 148.235 24.5956C148.686 24.7003 149.158 24.7529 149.649 24.7529C150.541 24.7529 151.22 24.5931 151.686 24.2735C152.153 23.9545 152.385 23.5201 152.385 22.9716C152.385 22.4922 152.149 22.0787 151.679 21.7287C151.207 21.3799 150.34 21.0704 149.077 20.8009C147.162 20.4122 145.717 19.8358 144.739 19.0716C143.762 18.3088 143.273 17.2681 143.273 15.951C143.273 14.5939 143.835 13.4246 144.958 12.441C146.08 11.4587 147.679 10.9673 149.754 10.9673C151.017 10.9673 152.213 11.1372 153.341 11.4765C154.468 11.8151 155.353 12.2495 155.995 12.7784L156.04 16.8052H156.039Z" fill="white"/>
<path d="M166.399 27.7466C164.054 27.7466 162.179 26.9977 160.776 25.5012C159.372 24.0046 158.671 22.1041 158.671 19.7989V19.2003C158.671 16.7956 159.335 14.8146 160.663 13.2584C161.991 11.7016 163.773 10.9286 166.009 10.9381C168.204 10.9381 169.908 11.5969 171.121 12.9141C172.335 14.2312 172.941 16.0125 172.941 18.2573V20.6373H163.227L163.197 20.7273C163.278 21.7952 163.636 22.6729 164.273 23.3616C164.909 24.0502 165.774 24.3946 166.866 24.3946C167.839 24.3946 168.646 24.2975 169.287 24.1022C169.929 23.9076 170.63 23.6013 171.392 23.1821L172.58 25.8759C171.909 26.4054 171.039 26.8487 169.972 27.2083C168.904 27.5678 167.714 27.7479 166.4 27.7479L166.399 27.7466ZM166.009 14.3054C165.196 14.3054 164.555 14.6142 164.084 15.2331C163.613 15.852 163.322 16.665 163.212 17.6733L163.257 17.7475H168.641V17.3588C168.641 16.431 168.423 15.6897 167.986 15.1361C167.55 14.5825 166.891 14.3054 166.009 14.3054Z" fill="white"/>
<path d="M60.0584 41.6154C59.8278 41.8558 59.487 42.0828 59.0365 42.2959C58.5861 42.5096 58.0006 42.6161 57.2794 42.6161C56.2269 42.6161 55.3681 42.2489 54.7036 41.5133C54.0385 40.7784 53.7065 39.824 53.7065 38.6508V38.5214C53.7065 37.3413 54.0353 36.3857 54.6934 35.6539C55.3509 34.9221 56.2263 34.5562 57.3183 34.5562C57.9018 34.5562 58.4147 34.6475 58.8562 34.8282C59.2977 35.0096 59.6698 35.2486 59.9724 35.5467V36.9672H59.2264L58.9671 35.8859C58.7906 35.742 58.5772 35.624 58.3268 35.5302C58.0764 35.437 57.7763 35.39 57.4266 35.39C56.576 35.39 55.9211 35.6799 55.4618 36.2588C55.0024 36.8384 54.7724 37.5893 54.7724 38.5113V38.6514C54.7724 39.5881 54.9948 40.3446 55.4401 40.9217C55.8848 41.4994 56.499 41.7879 57.2807 41.7879C57.7094 41.7879 58.0611 41.7435 58.3351 41.6535C58.609 41.5634 58.8288 41.4651 58.9945 41.3573V39.6407L57.7024 39.5874V38.8074H60.0597V41.6161L60.0584 41.6154Z" fill="white"/>
<path d="M68.579 38.6452C68.579 39.7861 68.2503 40.7328 67.5921 41.4862C66.9347 42.2396 66.0829 42.6156 65.038 42.6156C64.0218 42.6156 63.1962 42.2389 62.5622 41.4862C61.9277 40.7328 61.6111 39.7854 61.6111 38.6452V38.5324C61.6111 37.3947 61.9283 36.4479 62.5622 35.6914C63.1968 34.9349 64.0218 34.5557 65.038 34.5557C66.0829 34.5557 66.9347 34.9349 67.5921 35.6914C68.2496 36.4479 68.579 37.3954 68.579 38.5324V38.6452ZM67.5144 38.5216C67.5144 37.6103 67.2953 36.8671 66.8576 36.2913C66.4199 35.7155 65.8134 35.4276 65.0386 35.4276C64.2964 35.4276 63.7167 35.7161 63.3006 36.2938C62.8846 36.8716 62.6763 37.6141 62.6763 38.5216V38.6452C62.6763 39.5635 62.8846 40.3105 63.3006 40.8863C63.7167 41.4621 64.2964 41.75 65.0386 41.75C65.8242 41.75 66.4333 41.4627 66.8659 40.8888C67.2984 40.3156 67.5144 39.5673 67.5144 38.6452V38.5216Z" fill="white"/>
<path d="M69.5232 42.5035V41.8256L70.4043 41.6753V35.5038L69.5232 35.3529V34.6699H72.3506V35.3529L71.4695 35.5038V41.6753H74.2046L74.2855 40.7767H75.194V42.5041L69.5232 42.5035Z" fill="white"/>
<path d="M79.4466 34.6689C80.4736 34.6689 81.3 34.9835 81.925 35.6132C82.55 36.2423 82.8628 37.0559 82.8628 38.0534V39.1238C82.8628 40.1245 82.55 40.9381 81.925 41.5646C81.3 42.1911 80.4736 42.5031 79.4466 42.5031H76.149V41.8252L77.0301 41.6749V35.5035L76.149 35.3526V34.6696L79.4466 34.6689ZM78.0954 35.5028V41.6743H79.4466C80.1748 41.6743 80.7482 41.4359 81.1687 40.9584C81.5886 40.4815 81.7988 39.8695 81.7988 39.1232V38.0419C81.7988 37.3032 81.5886 36.695 81.1687 36.2175C80.7489 35.7406 80.1748 35.5022 79.4466 35.5022L78.0954 35.5028Z" fill="white"/>
<path d="M90.3028 34.6743C91.1604 34.6743 91.8185 34.8633 92.2759 35.2419C92.7334 35.6205 92.9627 36.1576 92.9627 36.8539C92.9627 37.2343 92.8563 37.5711 92.6435 37.8653C92.4308 38.1596 92.1262 38.391 91.7299 38.5597C92.1587 38.6999 92.4677 38.9275 92.6569 39.2427C92.8461 39.5585 92.9411 39.9478 92.9411 40.4108V41.0405C92.9411 41.2808 92.9716 41.4577 93.0328 41.5731C93.094 41.6879 93.1946 41.7558 93.3354 41.7773L93.5947 41.8097V42.5041H93.022C92.6072 42.5041 92.3129 42.3601 92.1383 42.0735C91.9638 41.7869 91.8765 41.4387 91.8765 41.0297V40.4215C91.8765 39.9948 91.7522 39.6523 91.5038 39.3942C91.2553 39.1361 90.9215 39.0068 90.5035 39.0068H88.7955V41.6759L89.6766 41.8262V42.5041H86.8491V41.8262L87.7302 41.6759V35.5044L86.8491 35.3535V34.6762H90.3035L90.3028 34.6743ZM88.7948 38.1716H90.1952C90.7896 38.1716 91.2222 38.0587 91.4923 37.833C91.7624 37.6072 91.8975 37.2768 91.8975 36.8424C91.8975 36.4303 91.7675 36.1037 91.5082 35.8633C91.2489 35.623 90.8469 35.5031 90.3028 35.5031H88.7948V38.1716Z" fill="white"/>
<path d="M94.4739 42.5035V41.8256L95.355 41.6753V35.5038L94.4739 35.3529V34.6699H100.518V36.5533H99.6045L99.5179 35.5045H96.4203V38.0385H99.4312V38.8724H96.4203V41.6759H99.5828L99.6695 40.6271H100.578V42.5047H94.4746L94.4739 42.5035Z" fill="white"/>
<path d="M101.678 41.8256L102.559 41.6753V35.5038L101.678 35.3529V34.6699H107.76V36.5533H106.852L106.765 35.5045H103.624V38.2053H106.667V39.0392H103.624V41.6759L104.505 41.8262V42.5041H101.678V41.8262L101.678 41.8256Z" fill="white"/>
<path d="M108.688 35.3519V34.6689H111.515V35.3519L110.634 35.5028V41.6743L111.515 41.8246V42.5025H108.688V41.8246L109.569 41.6743V35.5028L108.688 35.3519Z" fill="white"/>
<path d="M120.113 34.6689V35.3519L119.232 35.5028V42.5031H118.167L114.383 36.4553L114.35 36.4661V41.6749L115.231 41.8252V42.5031H112.404V41.8252L113.285 41.6749V35.5035L112.404 35.3526V34.6696H114.35L118.135 40.7123L118.167 40.7009V35.5035L117.286 35.3526V34.6696L120.113 34.6689Z" fill="white"/>
<path d="M120.971 42.5035V41.8256L121.852 41.6753V35.5038L120.971 35.3529V34.6699H127.015V36.5533H126.101L126.015 35.5045H122.917V38.0385H125.928V38.8724H122.917V41.6759H126.08L126.166 40.6271H127.075V42.5047H120.972L120.971 42.5035Z" fill="white"/>
<path d="M131.63 34.6743C132.487 34.6743 133.145 34.8633 133.603 35.2419C134.06 35.6205 134.29 36.1576 134.29 36.8539C134.29 37.2343 134.183 37.5711 133.97 37.8653C133.758 38.1596 133.453 38.391 133.057 38.5597C133.485 38.6999 133.794 38.9275 133.984 39.2427C134.173 39.5585 134.268 39.9478 134.268 40.4108V41.0405C134.268 41.2808 134.298 41.4577 134.36 41.5731C134.421 41.6879 134.521 41.7558 134.662 41.7773L134.922 41.8097V42.5041H134.349C133.934 42.5041 133.64 42.3601 133.465 42.0735C133.291 41.7869 133.203 41.4387 133.203 41.0297V40.4215C133.203 39.9948 133.079 39.6523 132.831 39.3942C132.582 39.1361 132.248 39.0068 131.83 39.0068H130.122V41.6759L131.003 41.8262V42.5041H128.176V41.8262L129.057 41.6759V35.5044L128.176 35.3535V34.6762H131.63L131.63 34.6743ZM130.122 38.1716H131.522C132.116 38.1716 132.549 38.0587 132.819 37.833C133.089 37.6072 133.224 37.2768 133.224 36.8424C133.224 36.4303 133.094 36.1037 132.835 35.8633C132.576 35.623 132.174 35.5031 131.63 35.5031H130.122V38.1716Z" fill="white"/>
<path d="M137.897 35.3521L137.048 35.4542L138.697 38.6509L140.346 35.4542L139.502 35.3521V34.6691H142.205V35.3521L141.54 35.4542L139.205 39.7479V41.6745L140.086 41.8248V42.5027H137.264V41.8248L138.145 41.6745V39.6674L135.853 35.4535L135.194 35.3514V34.6685H137.897V35.3521Z" fill="white"/>
<path d="M146.196 39.3236C146.196 37.9101 146.483 36.7027 147.056 35.702C147.629 34.7014 148.23 34.0342 148.861 33.7007L148.894 33.7058L149.094 34.3298C148.6 34.7134 148.171 35.3292 147.807 36.1757C147.443 37.0223 147.261 38.0674 147.261 39.3122V39.382C147.261 40.6306 147.442 41.6769 147.804 42.5216C148.167 43.3669 148.596 43.9973 149.094 44.4132L148.894 44.9941H148.861C148.23 44.6606 147.628 43.9941 147.056 42.9953C146.483 41.9965 146.196 40.7885 146.196 39.3712V39.3236Z" fill="white"/>
<path d="M149.675 41.8256L150.557 41.6753V35.5038L149.675 35.3529V34.6699H155.757V36.5533H154.849L154.762 35.5045H151.621V38.2053H154.665V39.0392H151.621V41.6759L152.502 41.8262V42.5041H149.675V41.8262L149.675 41.8256Z" fill="white"/>
<path d="M157.999 41.6753H161.41L161.496 40.7767H162.405V42.5041H156.804V41.7184L161.004 35.5038H157.847L157.771 36.4024H156.857V34.6699H162.226V35.4284L157.999 41.6753Z" fill="white"/>
<path d="M169.389 37.0743H168.637L168.437 35.9659C168.265 35.7972 168.052 35.6596 167.8 35.5518C167.547 35.444 167.247 35.39 166.897 35.39C166.079 35.39 165.45 35.6856 165.01 36.2753C164.571 36.8657 164.351 37.6146 164.351 38.5221V38.6457C164.351 39.5538 164.566 40.304 164.997 40.8976C165.428 41.4918 166.025 41.7879 166.789 41.7879C167.146 41.7879 167.47 41.7327 167.762 41.6211C168.054 41.5102 168.279 41.3732 168.438 41.2121L168.638 40.1036H169.389V41.4968C169.162 41.7873 168.822 42.0466 168.367 42.2749C167.913 42.5026 167.387 42.6161 166.789 42.6161C165.765 42.6161 164.925 42.2394 164.269 41.4867C163.613 40.7333 163.286 39.7859 163.286 38.6457V38.5329C163.286 37.3844 163.608 36.4345 164.254 35.6837C164.898 34.9316 165.744 34.5562 166.789 34.5562C167.387 34.5562 167.914 34.6722 168.368 34.9037C168.822 35.1345 169.162 35.3939 169.39 35.6811V37.075L169.389 37.0743Z" fill="white"/>
<path d="M173 39.372C173 40.7886 172.713 41.9973 172.138 42.9961C171.563 43.9949 170.962 44.6613 170.335 44.9949H170.302L170.102 44.414C170.589 44.0367 171.016 43.4178 171.383 42.5547C171.751 41.6917 171.935 40.6345 171.935 39.3821V39.3124C171.935 38.0828 171.746 37.0345 171.367 36.1702C170.989 35.3058 170.567 34.6761 170.102 34.2811L170.302 33.7002H170.335C170.962 34.0338 171.562 34.7009 172.138 35.7015C172.712 36.7022 173 37.9096 173 39.3231V39.372Z" fill="white"/>
<path d="M24.4132 44.9306C16.9018 45.5083 9.78095 42.4714 5.00334 36.6253C2.1434 33.1248 0.42004 28.8025 0.0702725 24.3039C-0.5114 16.8248 2.53967 9.73447 8.41628 4.97904C11.9337 2.13174 16.2768 0.417021 20.797 0.0695113C28.3097 -0.507558 35.4312 2.52998 40.2082 8.37741C43.0681 11.8779 44.7909 16.2008 45.14 20.6994C45.7204 28.1772 42.6687 35.2663 36.7933 40.0217C33.2759 42.8684 28.9328 44.5831 24.4132 44.9306ZM24.8993 3.60168C18.1837 2.82803 11.7604 5.47494 7.56002 10.7478C5.39133 13.4702 4.01838 16.7684 3.61764 20.22C2.84166 26.9039 5.50219 33.296 10.799 37.4763C13.5347 39.6349 16.8477 41.0009 20.3154 41.3991C27.0298 42.1709 33.4505 39.5233 37.6502 34.2517C39.8189 31.5299 41.1912 28.2324 41.592 24.782C42.368 18.0988 39.7094 11.7073 34.4138 7.52639C31.6793 5.36777 28.3664 4.00119 24.8993 3.60168Z" fill="white"/>
<path d="M16.168 30.3304V28.4546L17.8875 28.1318V16.4293L16.168 16.1066V14.4375H23.5551C24.73 14.4375 25.7378 14.6423 26.5782 15.0513C27.4179 15.4604 28.0613 16.0292 28.5086 16.7578C28.9558 17.4865 29.1795 18.3387 29.1795 19.3147C29.1795 20.2906 28.9558 21.1429 28.5086 21.8716C28.0613 22.6002 27.4179 23.1652 26.5782 23.5672C25.7378 23.9693 24.73 24.1697 23.5551 24.1697H20.613V28.1318L22.3325 28.4546V30.3304H16.168ZM20.613 22.0707H23.5551C24.521 22.0707 25.246 21.8126 25.7289 21.2957C26.2118 20.7789 26.4533 20.1258 26.4533 19.3362C26.4533 18.5328 26.2118 17.865 25.7289 17.3336C25.246 16.8029 24.521 16.5371 23.5551 16.5371H20.613V22.0707Z" fill="white"/>
<path d="M34.7968 27.0033L33.6239 23.5339C34.1488 23.2581 34.5617 22.8859 34.8605 22.416C35.1695 21.9308 35.3243 21.381 35.3243 20.7659C35.3243 20.1121 35.1682 19.5522 34.8573 19.0861C34.5457 18.62 34.1004 18.2623 33.5213 18.0125C32.9415 17.7626 32.2465 17.6377 31.4354 17.6377H30.6136V19.2592H31.4354C32.0247 19.2592 32.4688 19.4044 32.7682 19.6955C33.067 19.9859 33.2168 20.374 33.2168 20.8591C33.2168 21.3493 33.0658 21.7228 32.7644 21.9803C32.4624 22.2371 32.0075 22.3659 31.3991 22.3659H29.6758V22.3595H27.5612V26.4878H29.6758V23.9874H31.659L33.1314 28.4733H35.7002V27.2126L34.7968 27.0033Z" fill="white"/>
<path d="M25.6257 30.3484H27.7052V32.1506L27.6893 33.5368C26.863 33.9668 24.7255 34.2071 22.3708 34.2071C20.069 34.2071 17.7423 33.2756 16.1209 32.1981C13.2488 30.29 11.5879 27.3609 11.5879 22.6182C11.5879 19.2731 12.5263 16.5386 14.1994 14.562C15.4181 13.262 16.9293 12.2411 18.6259 11.6069C19.8797 11.1877 21.2737 10.969 22.7849 10.969C25.311 10.969 26.9796 11.7261 28.3723 12.3787C29.2018 12.8486 29.9663 13.4206 30.655 14.0731H34.6662C34.1871 13.3946 33.65 12.7509 33.0524 12.1504C32.0719 11.1643 30.9755 10.3361 29.7962 9.67595L29.8089 9.63726C28.4475 8.92639 26.0985 7.7583 22.876 7.7583C14.2592 7.7583 8.90761 13.1809 8.09977 20.807C8.03033 21.3917 7.99465 21.984 7.99465 22.582C7.99465 22.5934 7.99529 22.6042 7.99529 22.6156C7.99465 22.6657 7.99337 22.7158 7.99274 22.7665C7.99274 27.2797 9.72183 30.6248 12.118 33.0327C14.8447 35.7405 17.8684 37.4057 22.0828 37.4057C25.8424 37.4057 29.024 36.4165 30.6353 35.8147V28.4554H25.6257V30.3484Z" fill="white"/>
</svg>
