<svg width="244" height="37" viewBox="0 0 244 37" fill="none" xmlns="http://www.w3.org/2000/svg">
<path d="M92.8786 11.7616L96.6292 11.5642C97.7873 11.5642 98.7348 11.8077 99.4717 12.2946C100.209 12.7815 100.577 13.4461 100.577 14.2883C100.577 15.4596 100.261 16.4137 99.6297 17.1506C98.998 17.8876 98.2215 18.4469 97.3003 18.8285L100.498 23.6451C100.63 23.8556 100.88 24.1386 101.248 24.4939C101.63 24.8492 101.972 25.0269 102.275 25.0269H102.63V25.5796H99.7086C99.7481 25.5796 99.6231 25.3822 99.3336 24.9874C99.044 24.5926 98.8795 24.3557 98.8401 24.2768L95.5632 19.2233C95.4316 19.2496 95.1684 19.2628 94.7736 19.2628C94.3788 19.2628 94.063 19.2496 93.8261 19.2233L93.6682 18.4337C93.8524 18.46 94.2472 18.4732 94.8526 18.4732C95.458 18.4732 96.0633 18.3942 96.6687 18.2363C97.274 18.0784 97.807 17.7823 98.2676 17.348C98.7282 16.9006 98.9585 16.3281 98.9585 15.6306C98.9585 13.683 97.7083 12.7091 95.2079 12.7091L93.155 12.7881V24.1188C93.155 24.3162 93.1681 24.4676 93.1944 24.5729C93.2208 24.6781 93.3063 24.7834 93.4511 24.8887C93.5958 24.9808 93.813 25.0269 94.1025 25.0269H94.8526V25.5796H89.8386V25.0269H90.4703C90.7598 25.0269 90.977 24.9808 91.1217 24.8887C91.2665 24.7834 91.352 24.6781 91.3784 24.5729C91.4047 24.4676 91.4178 24.3162 91.4178 24.1188V13.2224C91.4178 12.9197 91.352 12.7026 91.2204 12.571C91.102 12.4262 90.852 12.3538 90.4703 12.3538H89.8386V11.7616H92.8786ZM112.383 25.5796H109.54V24.0004C108.882 24.711 108.336 25.198 107.902 25.4612C107.468 25.7243 106.875 25.8559 106.125 25.8559C105.388 25.8559 104.809 25.6849 104.388 25.3427C103.98 24.9874 103.776 24.4939 103.776 23.8622C103.776 23.2305 104.046 22.6186 104.585 22.0264C105.138 21.421 105.776 20.967 106.5 20.6643C107.237 20.3485 107.882 20.1116 108.435 19.9537C108.987 19.7826 109.356 19.6971 109.54 19.6971V19.2628C109.54 18.0258 109.027 17.4072 108 17.4072C107.29 17.4072 106.625 17.5586 106.007 17.8613C105.401 18.1639 104.947 18.5522 104.645 19.0259L104.25 18.6706C105.132 16.9598 106.658 16.1044 108.83 16.1044C109.382 16.1044 109.836 16.2557 110.192 16.5584C110.56 16.8479 110.804 17.1901 110.922 17.5849C111.054 17.9797 111.119 18.4206 111.119 18.9075V24.2373C111.119 24.4084 111.133 24.54 111.159 24.6321C111.185 24.7242 111.264 24.8163 111.396 24.9084C111.541 24.9874 111.751 25.0269 112.027 25.0269H112.383V25.5796ZM109.54 22.895V20.4867C108.514 20.6841 107.56 21.0789 106.678 21.6711C105.796 22.2633 105.355 22.9081 105.355 23.6056C105.355 23.882 105.487 24.1254 105.75 24.336C106.026 24.5334 106.362 24.6321 106.757 24.6321C107.165 24.6321 107.645 24.4544 108.198 24.0991C108.751 23.7306 109.198 23.3292 109.54 22.895ZM129.552 25.5796H126.117V25.0269H126.196C126.341 25.0269 126.459 24.9545 126.551 24.8097C126.657 24.665 126.709 24.4873 126.709 24.2768V19.2628C126.709 18.7364 126.578 18.3021 126.315 17.96C126.065 17.6178 125.736 17.4467 125.328 17.4467C124.933 17.4467 124.564 17.5388 124.222 17.7231C123.893 17.9073 123.623 18.131 123.413 18.3942C123.215 18.6574 123.038 18.9338 122.88 19.2233C122.617 19.7366 122.485 20.1182 122.485 20.3682V24.2373C122.485 24.7637 122.775 25.0269 123.354 25.0269H123.709V25.5796H120.274V25.0269H120.393C120.511 25.0269 120.616 24.9545 120.708 24.8097C120.814 24.665 120.866 24.4873 120.866 24.2768V19.2628C120.866 18.7364 120.741 18.3021 120.491 17.96C120.241 17.6178 119.899 17.4467 119.465 17.4467C119.044 17.4467 118.642 17.5849 118.261 17.8613C117.879 18.1376 117.576 18.46 117.353 18.8285C116.905 19.5786 116.681 20.105 116.681 20.4077V24.1583C116.681 24.3689 116.688 24.5202 116.701 24.6123C116.728 24.7045 116.806 24.7966 116.938 24.8887C117.07 24.9808 117.274 25.0269 117.55 25.0269H117.905V25.5796H113.918V25.0269H114.234C114.589 25.0269 114.813 24.9677 114.905 24.8492C115.01 24.7308 115.063 24.54 115.063 24.2768V18.3548C115.063 18.1047 114.977 17.9271 114.806 17.8218C114.648 17.7033 114.352 17.6441 113.918 17.6441V17.0914C114.181 17.0914 114.576 16.9993 115.102 16.815C115.642 16.6176 116.05 16.4334 116.326 16.2623L116.681 16.1834V18.7101C117.063 17.8152 117.517 17.1572 118.044 16.7361C118.583 16.315 119.313 16.1044 120.235 16.1044C120.656 16.1044 121.024 16.1965 121.34 16.3808C121.656 16.5518 121.893 16.7821 122.051 17.0717C122.314 17.5849 122.459 18.131 122.485 18.7101C122.788 17.8284 123.215 17.1769 123.768 16.7558C124.321 16.3215 125.064 16.1044 125.999 16.1044C126.472 16.1044 126.874 16.2097 127.203 16.4202C127.532 16.6308 127.769 16.9006 127.913 17.2296C128.164 17.7955 128.289 18.3548 128.289 18.9075V24.2373C128.289 24.4215 128.302 24.5597 128.328 24.6518C128.394 24.9019 128.67 25.0269 129.157 25.0269H129.552V25.5796ZM134.923 25.5796H130.975V25.0269H131.252C131.541 25.0269 131.752 24.9677 131.884 24.8492C132.015 24.7176 132.081 24.5005 132.081 24.1978V12.5512C132.081 12.3012 131.995 12.1235 131.824 12.0182C131.653 11.8998 131.357 11.8406 130.936 11.8406V11.2879C131.199 11.2879 131.601 11.2155 132.14 11.0707C132.693 10.926 133.094 10.7746 133.344 10.6167L133.7 10.5377V24.1583C133.7 24.3689 133.706 24.5202 133.719 24.6123C133.746 24.7045 133.825 24.7966 133.956 24.8887C134.088 24.9808 134.292 25.0269 134.568 25.0269H134.923V25.5796ZM145.116 25.5796H142.273V24.0004C141.615 24.711 141.069 25.198 140.635 25.4612C140.2 25.7243 139.608 25.8559 138.858 25.8559C138.121 25.8559 137.542 25.6849 137.121 25.3427C136.713 24.9874 136.509 24.4939 136.509 23.8622C136.509 23.2305 136.779 22.6186 137.318 22.0264C137.871 21.421 138.509 20.967 139.233 20.6643C139.97 20.3485 140.615 20.1116 141.168 19.9537C141.72 19.7826 142.089 19.6971 142.273 19.6971V19.2628C142.273 18.0258 141.76 17.4072 140.733 17.4072C140.023 17.4072 139.358 17.5586 138.74 17.8613C138.134 18.1639 137.68 18.5522 137.378 19.0259L136.983 18.6706C137.864 16.9598 139.391 16.1044 141.562 16.1044C142.115 16.1044 142.569 16.2557 142.925 16.5584C143.293 16.8479 143.536 17.1901 143.655 17.5849C143.786 17.9797 143.852 18.4206 143.852 18.9075V24.2373C143.852 24.4084 143.865 24.54 143.892 24.6321C143.918 24.7242 143.997 24.8163 144.129 24.9084C144.273 24.9874 144.484 25.0269 144.76 25.0269H145.116V25.5796ZM142.273 22.895V20.4867C141.247 20.6841 140.293 21.0789 139.411 21.6711C138.529 22.2633 138.088 22.9081 138.088 23.6056C138.088 23.882 138.22 24.1254 138.483 24.336C138.759 24.5334 139.095 24.6321 139.49 24.6321C139.898 24.6321 140.378 24.4544 140.931 24.0991C141.483 23.7306 141.931 23.3292 142.273 22.895ZM151.309 24.6321L151.586 22.0659L152.257 22.1054C152.257 22.8292 152.685 23.4148 153.54 23.8622C154.409 24.2965 155.389 24.5136 156.481 24.5136C157.587 24.5136 158.416 24.3491 158.968 24.0201C159.521 23.678 159.798 23.2503 159.798 22.737C159.798 21.8685 159.337 21.092 158.416 20.4077C158.034 20.1314 157.633 19.8879 157.212 19.6773C156.251 19.1773 155.646 18.8614 155.396 18.7298C155.159 18.5851 154.889 18.4403 154.586 18.2955C154.284 18.1508 154.001 17.9994 153.737 17.8415C153.487 17.6704 153.218 17.4665 152.928 17.2296C152.27 16.7032 151.941 16.1176 151.941 15.4727C151.941 14.8147 152.053 14.2423 152.277 13.7553C152.514 13.2684 152.803 12.8868 153.145 12.6104C153.5 12.3341 153.915 12.1038 154.389 11.9195C155.192 11.63 156.086 11.4853 157.073 11.4853C158.074 11.4853 159.034 11.7353 159.955 12.2354L159.719 14.5252H159.047C159.047 13.2882 158.008 12.6697 155.929 12.6697C154.968 12.6697 154.244 12.821 153.757 13.1237C153.283 13.4263 153.046 13.8409 153.046 14.3673C153.046 15.2095 154.415 16.2228 157.152 17.4072C158.955 18.1837 160.107 19.0457 160.607 19.9932C160.857 20.4669 160.982 20.9868 160.982 21.5526C160.982 22.9213 160.429 23.9807 159.324 24.7308C158.232 25.4809 156.909 25.8559 155.356 25.8559C153.803 25.8559 152.454 25.448 151.309 24.6321ZM168.006 24.3557L168.163 24.8295C167.176 25.5138 166.097 25.8559 164.926 25.8559C164.505 25.8559 164.143 25.7046 163.84 25.4019C163.538 25.0993 163.386 24.6979 163.386 24.1978V17.2098H162.241V16.3808H162.676C163.11 16.3808 163.511 16.1176 163.88 15.5912C164.262 15.0648 164.452 14.5778 164.452 14.1304H164.966V16.3808H167.65V17.2098H165.716C165.216 17.2098 164.966 17.4467 164.966 17.9205V23.5661C164.966 24.4347 165.281 24.869 165.913 24.869C166.624 24.869 167.321 24.6979 168.006 24.3557ZM167.964 30.1593L168.28 28.6195H168.556C168.582 28.7643 168.701 28.9222 168.911 29.0933C169.122 29.2775 169.346 29.3697 169.583 29.3697C170.398 29.3697 170.978 29.0933 171.32 28.5406C171.662 27.9879 172.017 26.9877 172.386 25.5401L169.385 17.7626C169.267 17.4862 169.142 17.2888 169.01 17.1704C168.878 17.0388 168.675 16.973 168.398 16.973H168.122V16.3808H171.991V16.973H171.872C171.32 16.973 171.043 17.1309 171.043 17.4467C171.043 17.5125 171.109 17.7231 171.241 18.0784L173.254 23.4477L175.465 17.881C175.623 17.5652 175.702 17.3678 175.702 17.2888C175.702 17.1704 175.623 17.0914 175.465 17.0519C175.32 16.9993 175.018 16.973 174.557 16.973H174.399V16.3808H178.071V16.973H177.873C177.426 16.973 177.117 17.0388 176.946 17.1704C176.774 17.302 176.623 17.552 176.492 17.9205L172.504 27.9089C172.149 28.7775 171.721 29.4223 171.221 29.8434C170.734 30.2645 170.069 30.4751 169.227 30.4751C168.911 30.4751 168.49 30.3698 167.964 30.1593ZM182.808 25.5796H178.86V25.0269H179.137C179.426 25.0269 179.637 24.9677 179.768 24.8492C179.9 24.7176 179.966 24.5005 179.966 24.1978V12.5512C179.966 12.3012 179.88 12.1235 179.709 12.0182C179.538 11.8998 179.242 11.8406 178.821 11.8406V11.2879C179.084 11.2879 179.485 11.2155 180.025 11.0707C180.578 10.926 180.979 10.7746 181.229 10.6167L181.584 10.5377V24.1583C181.584 24.3689 181.591 24.5202 181.604 24.6123C181.631 24.7045 181.709 24.7966 181.841 24.8887C181.973 24.9808 182.177 25.0269 182.453 25.0269H182.808V25.5796ZM192.013 23.1713L192.369 23.5266C191.527 25.0795 190.013 25.8559 187.829 25.8559C186.815 25.8559 185.947 25.4085 185.223 24.5136C184.512 23.6188 184.157 22.6186 184.157 21.5132C184.157 20.0261 184.637 18.7561 185.598 17.7033C186.572 16.6374 187.75 16.1044 189.131 16.1044C189.789 16.1044 190.368 16.2952 190.869 16.6769C191.763 17.3743 192.211 18.2758 192.211 19.3812C192.211 19.5392 192.178 19.73 192.112 19.9537C192.06 20.1774 192.013 20.2893 191.974 20.2893L185.618 20.4867C185.618 21.5132 185.94 22.4607 186.585 23.3292C187.23 24.1978 188.013 24.6321 188.934 24.6321C189.592 24.6321 190.197 24.5005 190.75 24.2373C191.316 23.9609 191.737 23.6056 192.013 23.1713ZM185.815 19.6971L190.434 19.4997C190.461 19.4997 190.474 19.3812 190.474 19.1444C190.474 18.46 190.27 17.9731 189.862 17.6836C189.467 17.3941 188.914 17.2493 188.204 17.2493C187.506 17.2493 186.934 17.4665 186.486 17.9007C186.039 18.335 185.815 18.9338 185.815 19.6971ZM203.866 25.5796H198.852V25.0269H199.523C199.918 25.0269 200.174 24.9479 200.293 24.79C200.411 24.6321 200.471 24.4084 200.471 24.1188V13.2224C200.471 12.9329 200.411 12.7091 200.293 12.5512C200.174 12.3933 199.918 12.3143 199.523 12.3143H198.852V11.7616H203.866V12.3143H203.116C202.721 12.3143 202.464 12.3933 202.346 12.5512C202.227 12.7091 202.168 12.9329 202.168 13.2224V24.1188C202.168 24.4084 202.227 24.6321 202.346 24.79C202.464 24.9479 202.721 25.0269 203.116 25.0269H203.866V25.5796ZM211.09 24.3557L211.248 24.8295C210.261 25.5138 209.182 25.8559 208.011 25.8559C207.59 25.8559 207.228 25.7046 206.925 25.4019C206.622 25.0993 206.471 24.6979 206.471 24.1978V17.2098H205.326V16.3808H205.761C206.195 16.3808 206.596 16.1176 206.965 15.5912C207.346 15.0648 207.537 14.5778 207.537 14.1304H208.05V16.3808H210.735V17.2098H208.8C208.3 17.2098 208.05 17.4467 208.05 17.9205V23.5661C208.05 24.4347 208.366 24.869 208.998 24.869C209.709 24.869 210.406 24.6979 211.09 24.3557ZM220.818 25.5796H217.975V24.0004C217.317 24.711 216.771 25.198 216.337 25.4612C215.902 25.7243 215.31 25.8559 214.56 25.8559C213.823 25.8559 213.244 25.6849 212.823 25.3427C212.415 24.9874 212.211 24.4939 212.211 23.8622C212.211 23.2305 212.481 22.6186 213.02 22.0264C213.573 21.421 214.211 20.967 214.935 20.6643C215.672 20.3485 216.317 20.1116 216.87 19.9537C217.422 19.7826 217.791 19.6971 217.975 19.6971V19.2628C217.975 18.0258 217.462 17.4072 216.435 17.4072C215.725 17.4072 215.06 17.5586 214.442 17.8613C213.836 18.1639 213.382 18.5522 213.08 19.0259L212.685 18.6706C213.566 16.9598 215.093 16.1044 217.264 16.1044C217.817 16.1044 218.271 16.2557 218.627 16.5584C218.995 16.8479 219.238 17.1901 219.357 17.5849C219.488 17.9797 219.554 18.4206 219.554 18.9075V24.2373C219.554 24.4084 219.567 24.54 219.594 24.6321C219.62 24.7242 219.699 24.8163 219.831 24.9084C219.975 24.9874 220.186 25.0269 220.462 25.0269H220.818V25.5796ZM217.975 22.895V20.4867C216.949 20.6841 215.995 21.0789 215.113 21.6711C214.231 22.2633 213.79 22.9081 213.79 23.6056C213.79 23.882 213.922 24.1254 214.185 24.336C214.461 24.5334 214.797 24.6321 215.192 24.6321C215.6 24.6321 216.08 24.4544 216.633 24.0991C217.185 23.7306 217.633 23.3292 217.975 22.895ZM226.182 25.5796H222.234V25.0269H222.511C222.8 25.0269 223.011 24.9677 223.142 24.8492C223.274 24.7176 223.34 24.5005 223.34 24.1978V12.5512C223.34 12.3012 223.254 12.1235 223.083 12.0182C222.912 11.8998 222.616 11.8406 222.195 11.8406V11.2879C222.458 11.2879 222.859 11.2155 223.399 11.0707C223.952 10.926 224.353 10.7746 224.603 10.6167L224.958 10.5377V24.1583C224.958 24.3689 224.965 24.5202 224.978 24.6123C225.004 24.7045 225.083 24.7966 225.215 24.8887C225.347 24.9808 225.551 25.0269 225.827 25.0269H226.182V25.5796ZM229.663 11.8406C229.966 11.8406 230.196 11.9393 230.354 12.1367C230.525 12.3341 230.61 12.5907 230.61 12.9065C230.61 13.2092 230.485 13.4658 230.235 13.6764C229.985 13.8738 229.709 13.9725 229.406 13.9725C229.117 13.9725 228.886 13.8738 228.715 13.6764C228.557 13.479 228.478 13.2355 228.478 12.946C228.478 12.6433 228.603 12.3867 228.854 12.1762C229.104 11.9524 229.373 11.8406 229.663 11.8406ZM231.834 25.5796H227.847V25.0269H228.163C228.518 25.0269 228.742 24.9677 228.834 24.8492C228.939 24.7308 228.992 24.54 228.992 24.2768V18.3548C228.992 18.1047 228.906 17.9271 228.735 17.8218C228.577 17.7033 228.281 17.6441 227.847 17.6441V17.0914C228.11 17.0914 228.505 16.9993 229.031 16.815C229.571 16.6176 229.979 16.4334 230.255 16.2623L230.61 16.1834V24.1583C230.61 24.3689 230.617 24.5202 230.63 24.6123C230.656 24.7045 230.735 24.7966 230.867 24.8887C230.999 24.9808 231.203 25.0269 231.479 25.0269H231.834V25.5796ZM241.946 25.5796H239.103V24.0004C238.445 24.711 237.899 25.198 237.465 25.4612C237.03 25.7243 236.438 25.8559 235.688 25.8559C234.951 25.8559 234.372 25.6849 233.951 25.3427C233.543 24.9874 233.339 24.4939 233.339 23.8622C233.339 23.2305 233.609 22.6186 234.148 22.0264C234.701 21.421 235.339 20.967 236.063 20.6643C236.8 20.3485 237.445 20.1116 237.998 19.9537C238.55 19.7826 238.919 19.6971 239.103 19.6971V19.2628C239.103 18.0258 238.59 17.4072 237.563 17.4072C236.853 17.4072 236.188 17.5586 235.57 17.8613C234.964 18.1639 234.51 18.5522 234.208 19.0259L233.813 18.6706C234.694 16.9598 236.221 16.1044 238.392 16.1044C238.945 16.1044 239.399 16.2557 239.754 16.5584C240.123 16.8479 240.366 17.1901 240.485 17.5849C240.616 17.9797 240.682 18.4206 240.682 18.9075V24.2373C240.682 24.4084 240.695 24.54 240.722 24.6321C240.748 24.7242 240.827 24.8163 240.959 24.9084C241.103 24.9874 241.314 25.0269 241.59 25.0269H241.946V25.5796ZM239.103 22.895V20.4867C238.077 20.6841 237.122 21.0789 236.241 21.6711C235.359 22.2633 234.918 22.9081 234.918 23.6056C234.918 23.882 235.05 24.1254 235.313 24.336C235.589 24.5334 235.925 24.6321 236.32 24.6321C236.728 24.6321 237.208 24.4544 237.761 24.0991C238.313 23.7306 238.761 23.3292 239.103 22.895Z" fill="white"/>
<g clip-path="url(#clip0_145_216)">
<path d="M8.22629 27.1973C8.17606 27.2025 8.1842 27.1406 8.17063 27.1045C8.10411 26.9229 8.07289 26.7322 8.01452 26.5479C6.87017 22.9055 4.35749 19.6071 1.5706 16.9311C1.43213 16.7984 0.788692 16.31 0.781904 16.1722C0.807696 16.0781 0.905434 15.9802 0.976023 15.9055C1.49051 15.3695 2.20589 14.8773 2.75974 14.3555C2.81268 14.3052 3.16291 13.9728 3.15748 13.9458L0 11.9448C1.51765 10.6796 3.05703 9.42206 4.68464 8.28437C4.81224 8.27149 5.13668 8.90411 5.19912 9.02265C6.57424 11.6794 7.18103 15.0834 7.59642 18.0095C8.02945 21.0502 8.27516 24.1244 8.22629 27.1973ZM7.25705 22.6607C7.19325 20.8595 6.97062 19.0673 6.68963 17.288C6.38691 15.363 6.02854 13.4304 5.41089 11.575C5.20319 10.9501 4.87333 9.90522 4.50274 9.37697C4.48238 9.34862 4.47423 9.31126 4.42672 9.32156L1.21494 11.8624L4.23124 13.8942L1.81901 16.1464C3.18327 17.5018 4.50545 18.8637 5.64709 20.3995C6.19958 21.143 6.66791 21.9444 7.25841 22.6607H7.25705Z" fill="white"/>
<path d="M11.7503 17.8682C12.1847 14.9448 12.8118 11.5446 14.2019 8.89556C14.2643 8.77702 14.5928 8.14698 14.7204 8.15986C16.3413 9.30528 17.8725 10.5718 19.382 11.8448L16.2109 13.829C16.2055 13.856 16.5544 14.191 16.606 14.2413C17.1558 14.7657 17.8684 15.263 18.3802 15.8016C18.4508 15.8763 18.5485 15.9755 18.573 16.0683C18.5648 16.2061 17.9186 16.6906 17.7802 16.8233C14.9784 19.4839 12.444 22.7681 11.2779 26.4054C11.2195 26.5884 11.1856 26.7803 11.1191 26.9607C11.1055 26.9955 11.1123 27.0586 11.0634 27.0522C11.0335 23.9793 11.2983 20.9064 11.7489 17.8682H11.7503ZM13.686 20.2686C14.8358 18.7392 16.1662 17.3851 17.5399 16.0374L15.1413 13.771L18.1698 11.7559L14.9729 9.19705C14.9268 9.18675 14.9173 9.22411 14.8969 9.25246C14.5223 9.77814 14.187 10.8205 13.9752 11.4454C13.3453 13.2981 12.9761 15.2282 12.6612 17.1519C12.3707 18.9299 12.1358 20.7208 12.0612 22.5221C12.6571 21.8096 13.1295 21.0107 13.6874 20.2699L13.686 20.2686Z" fill="white"/>
<path d="M12.858 8.104C12.8485 8.19291 12.8091 10.1591 12.805 10.1642C12.7629 10.2042 12.0652 10.0032 11.943 9.97352C11.2127 9.79572 10.4905 9.58055 9.76022 9.40275C8.91994 9.6089 6.69097 10.1707 6.69233 10.15L6.67197 8.10529C6.83758 8.13493 8.86157 8.90799 9.7928 9.18371C10.6942 8.89768 12.8539 8.10529 12.8566 8.10529L12.858 8.104ZM7.26518 8.88351C7.26518 8.87062 7.27604 9.51999 7.27604 9.5084C7.27604 9.50582 8.00229 9.20304 7.99414 9.1966C7.98057 9.18371 7.26518 8.87062 7.26518 8.88351ZM11.5616 9.18114C11.5589 9.19144 12.3082 9.48778 12.3082 9.49294C12.3082 9.49809 12.3136 8.88608 12.3082 8.88093C12.3028 8.87578 11.5643 9.17727 11.5616 9.18114Z" fill="white"/>
<path d="M25.3468 14.666H27.0219V1.53038L30.9341 1.58707C30.9341 1.58707 38.95 2.43229 40.3754 9.75962C41.8007 17.087 39.2473 20.1869 39.2473 20.1869C39.2473 20.1869 36.9912 24.5264 31.5871 25.3716H25.2328V27.0066H31.112C31.112 27.0066 33.0124 26.9499 34.5559 26.1614L40.6129 36.532H42.6315L35.9812 25.4283C35.9812 25.4283 38.7722 24.2442 40.9699 20.6933C42.3994 18.3831 42.6288 15.64 42.5161 13.0181C42.3966 10.266 42.0274 7.82697 40.4052 5.47299C39.1211 3.60992 37.3048 2.1295 35.2102 1.13612C35.2102 1.13612 32.9541 0.0654297 30.816 0.0654297H25.3468C25.3468 0.0654297 25.2911 14.7188 25.3468 14.666Z" fill="white"/>
<path d="M70.8031 0.0103493H72.1606V36.5555H70.7542C70.7542 36.5555 70.7298 -0.0579378 70.8031 0.0103493Z" fill="white"/>
<path d="M61.4921 3.69282L62.6555 2.49586C62.6555 2.49586 60.717 0.241102 56.3039 0.0104726C51.8907 -0.220157 49.5151 3.41581 49.1269 5.25698C48.7387 7.09816 49.0305 10.2741 50.8238 12.391C52.617 14.5079 58.4365 19.5251 58.4365 19.5251C58.4365 19.5251 64.4501 24.1274 62.365 30.6636H64.1596C64.1596 30.6636 65.2265 28.2697 63.7713 23.8517C63.7713 23.8517 62.8496 21.0906 58.1948 17.2704C53.5401 13.4501 51.6477 11.2405 51.1631 9.86056C50.6785 8.48065 50.145 4.56767 52.0848 3.00222C54.0247 1.43677 57.6125 0.516828 61.4921 3.69282Z" fill="white"/>
<path d="M61.298 32.5508H63.3831C63.3831 32.5508 62.3161 35.2204 59.3093 36.0489C56.3025 36.8773 53.6351 36.4174 53.6351 36.4174V34.7604C53.6351 34.7604 59.551 35.9574 61.2967 32.5508H61.298Z" fill="white"/>
</g>
<defs>
<clipPath id="clip0_145_216">
<rect width="72.1605" height="36.5555" fill="white"/>
</clipPath>
</defs>
</svg>
