<svg width="2000" height="1000" viewBox="0 0 2000 1000" fill="none" xmlns="http://www.w3.org/2000/svg">
<path d="M350.628 904.975H335.372C217.175 904.975 121 808.812 121 690.603V309.372C121 191.175 217.163 95 335.372 95H350.628C468.825 95 565 191.163 565 309.372V690.616C565 808.812 468.837 904.987 350.628 904.987V904.975ZM335.372 103.518C221.86 103.518 129.518 195.86 129.518 309.372V690.616C129.518 804.127 221.86 896.47 335.372 896.47H350.628C464.14 896.47 556.482 804.127 556.482 690.616V309.372C556.482 195.86 464.14 103.518 350.628 103.518H335.372Z" fill="white"/>
<path d="M403.016 195.735L371.488 227.877L376.987 228.516L411.96 198.566L413.087 192.428L403.016 195.735Z" fill="white"/>
<path d="M289.918 192.428L291.045 198.566L326.006 228.516L331.505 227.877L299.976 195.735L289.918 192.428Z" fill="white"/>
<path d="M350.932 210.478C341.387 208.286 334.949 202.549 325.68 203.113C331.003 212.307 338.206 223.781 338.469 226.749H363.721C364.398 223.18 371.863 212.232 377.638 203.113C364.686 202.549 360.477 209.138 350.932 210.478Z" fill="white"/>
<path d="M392.295 192.428C398.382 193.43 404.771 192.077 411.309 189.346L384.929 166.035L384.729 166.186C384.478 168.265 382.85 169.668 380.57 170.683L392.295 192.415V192.428Z" fill="white"/>
<path d="M355.027 192.892C362.693 196.036 369.958 198.892 374.567 199.756C369.958 189.647 365.649 179.977 363.57 173.802C359.837 174.077 355.791 174.228 351.632 174.228C347.236 174.228 342.989 174.065 339.081 173.752C336.764 180.691 332.805 189.848 328.309 199.756C332.58 199.004 339.457 196.136 346.659 192.992C349.315 191.827 352.334 191.802 355.014 192.904L355.027 192.892Z" fill="white"/>
<path d="M387.996 192.428L378.501 171.647C375.182 172.75 371.624 173.313 367.842 173.288L367.754 173.413C372.414 183.234 376.986 193.317 377.775 200.194L387.996 192.428Z" fill="white"/>
<path d="M310.972 192.428L322.696 170.695C320.416 169.693 318.788 168.29 318.537 166.198L318.337 166.048L291.957 189.359C298.508 192.09 304.884 193.442 310.972 192.44V192.428Z" fill="white"/>
<path d="M324.752 171.647L314.719 192.766L324.94 200.532C325.729 193.656 330.84 183.234 335.5 173.413L335.412 173.288C331.616 173.326 328.072 172.75 324.752 171.647Z" fill="white"/>
<path d="M351.635 170.808C368.059 170.808 381.372 168.492 381.372 165.635C381.372 162.778 368.059 160.461 351.635 160.461C335.212 160.461 321.898 162.778 321.898 165.635C321.898 168.492 335.212 170.808 351.635 170.808Z" fill="white"/>
<path d="M446.113 552.666C428.125 533.501 407.407 516.253 386.288 499.806C416.326 392.345 437.269 284.983 496.668 284.983C499.386 284.983 502.067 285.159 504.697 285.522C507.09 285.848 509.307 284.219 509.808 281.864C510.409 278.933 508.405 276.553 505.837 276.203C492.422 274.411 477.102 276.441 463.173 283.23C448.518 254.545 422.889 232.599 391.85 222.604L383.72 229.505C414.86 238.036 440.676 259.53 454.994 287.827C408.61 317.601 384.459 397.631 360.998 480.441C302.463 436.023 248.075 394.349 248.075 331.305C248.075 282.453 280.205 244.299 321.19 230.796L312.534 223.443C260.877 240.841 223.862 289.869 223.862 346.687C223.862 515.176 513.19 540.428 476.438 714.391C475.637 714.416 474.848 714.453 474.033 714.453C426.91 714.453 389.207 664.412 344.564 619.205C355.399 596.395 364.305 572.42 372.534 546.516C364.292 540.203 355.937 533.927 347.595 527.614C340.192 553.004 332.777 576.679 324.121 599.526C292.367 570.841 256.355 548.069 211.035 548.069C162.584 548.069 123.152 587.489 123.152 635.952C123.152 676.399 150.635 710.545 187.912 720.716C206.25 786.992 267.077 835.793 339.102 835.793H339.553C407.745 835.606 473.081 793.743 495.14 731.075C486.973 732.967 479.144 733.618 471.077 733.267C451.323 787.844 399.227 826.411 339.102 826.411C273.09 826.411 217.111 782.808 198.359 722.896C203.996 723.71 208.518 723.885 213.378 723.773C263.896 722.921 299.344 694.75 326.012 653.038C320.276 646.913 314.639 640.787 309.065 634.787C288.046 677.94 258.622 714.428 211.035 714.428C167.758 714.428 132.547 679.217 132.547 635.94C132.547 592.662 167.758 557.451 211.035 557.451C249.328 557.451 280.179 589.443 313.474 625.368C323.582 636.265 333.904 647.526 344.739 658.361C381.854 695.526 421.499 723.823 474.046 723.823C498.585 723.823 521.269 713.852 537.916 695.739C553.173 679.155 561.916 657.359 561.916 635.94C561.916 584.107 510.309 531.986 446.163 552.641H446.15L446.113 552.666ZM500.714 709.693C502.167 701.652 502.944 693.334 502.944 684.791C502.944 633.597 482.463 593.99 453.115 560.407C507.666 545.401 552.472 589.919 552.472 635.952C552.472 666.103 532.505 697.919 500.714 709.693Z" fill="white"/>
<path d="M1071.89 612.132C1066.12 612.531 1065.46 613.037 1065.46 619.375V645.808C1065.46 655.202 1064.05 660.635 1058.63 665.409C1056.07 667.772 1053.46 669.124 1051.49 669.736L1050.54 667.525C1054.71 665.562 1056.92 662.246 1057.72 657.919C1058.38 654.203 1058.52 649.829 1058.52 643.75V619.375C1058.52 613.037 1057.82 612.543 1051.79 612.132V609.921H1071.89V612.132Z" fill="white"/>
<path d="M1135.83 651.193C1131.01 657.272 1125.63 658.577 1123.22 658.577C1114.02 658.577 1108.59 651.193 1108.59 642.998C1108.59 638.118 1110.35 633.697 1113.36 630.428C1116.59 626.912 1120.65 624.796 1124.62 624.796H1124.66C1131.05 624.796 1136.13 630.275 1136.13 636.095C1136.13 637.506 1135.73 638.153 1134.38 638.459C1133.01 638.659 1123.66 639.411 1115.02 639.717C1115.17 649.218 1120.75 653.239 1125.93 653.239C1129 653.239 1131.87 652.087 1134.58 649.57L1135.83 651.181V651.193ZM1122.86 627.571C1119.64 627.571 1116.43 630.44 1115.37 636.566C1119.35 636.566 1123.31 636.566 1127.49 636.413C1128.79 636.366 1129.24 635.954 1129.24 635.002C1129.24 631.133 1126.83 627.559 1122.91 627.559H1122.86V627.571Z" fill="white"/>
<path d="M1224.98 627.617C1221.21 628.217 1220.56 629.075 1219 632.991C1216.74 638.776 1213.37 648.618 1209.85 658.53H1207.64C1204.52 650.64 1201.41 643.397 1198.44 636.107C1195.59 643.444 1192.57 650.687 1189.65 658.53H1187.29C1184.57 649.84 1181.65 641.186 1178.58 632.391C1177.28 628.675 1176.62 628.064 1173.11 627.617V625.654H1189.04V627.617C1184.57 628.37 1184.22 628.817 1185.32 632.085C1186.98 637.518 1188.84 643.138 1190.65 648.465H1190.8C1193.61 641.633 1196.38 634.19 1199.44 625.995H1201.55C1204.36 633.379 1207.43 641.069 1210.54 648.759H1210.7C1212.15 644.185 1214.37 637.553 1215.67 632.379C1216.62 628.805 1216.12 628.252 1211.34 627.605V625.642H1224.96V627.605H1224.98V627.617Z" fill="white"/>
<path d="M1287.29 651.193C1282.47 657.272 1277.08 658.577 1274.67 658.577C1265.48 658.577 1260.05 651.193 1260.05 642.998C1260.05 638.118 1261.81 633.697 1264.82 630.428C1268.04 626.912 1272.11 624.796 1276.07 624.796H1276.12C1282.51 624.796 1287.58 630.275 1287.58 636.095C1287.58 637.506 1287.19 638.153 1285.83 638.459C1284.47 638.659 1275.12 639.411 1266.48 639.717C1266.63 649.218 1272.2 653.239 1277.39 653.239C1280.46 653.239 1283.33 652.087 1286.03 649.57L1287.29 651.181V651.193ZM1274.33 627.571C1271.11 627.571 1267.9 630.44 1266.84 636.566C1270.82 636.566 1274.78 636.566 1278.95 636.413C1280.26 636.366 1280.71 635.954 1280.71 635.002C1280.71 631.133 1278.3 627.559 1274.38 627.559H1274.33V627.571Z" fill="white"/>
<path d="M1323.99 657.719V655.755C1328.66 655.202 1329.32 654.803 1329.32 649.876V615.4C1329.32 610.427 1328.81 610.274 1324.19 609.827V608.016C1328.21 607.569 1333.05 606.311 1335.75 605.453V649.888C1335.75 654.861 1336.41 655.32 1341.28 655.767V657.73H1323.98H1323.99V657.719Z" fill="white"/>
<path d="M1377.66 657.719V655.755C1382.33 655.202 1382.99 654.803 1382.99 649.876V615.4C1382.99 610.427 1382.48 610.274 1377.86 609.827V608.016C1381.89 607.569 1386.72 606.311 1389.42 605.453V649.888C1389.42 654.861 1390.08 655.32 1394.95 655.767V657.73H1377.65H1377.66V657.719Z" fill="white"/>
<path d="M1459.69 651.193C1454.87 657.272 1449.49 658.577 1447.08 658.577C1437.88 658.577 1432.45 651.193 1432.45 642.998C1432.45 638.118 1434.21 633.697 1437.22 630.428C1440.44 626.912 1444.51 624.796 1448.48 624.796H1448.52C1454.91 624.796 1459.99 630.275 1459.99 636.095C1459.99 637.506 1459.59 638.153 1458.24 638.459C1456.87 638.659 1447.52 639.411 1438.88 639.717C1439.03 649.218 1444.61 653.239 1449.79 653.239C1452.86 653.239 1455.73 652.087 1458.44 649.57L1459.69 651.181V651.193ZM1446.72 627.571C1443.5 627.571 1440.29 630.44 1439.23 636.566C1443.21 636.566 1447.17 636.566 1451.34 636.413C1452.65 636.366 1453.1 635.954 1453.1 635.002C1453.1 631.133 1450.69 627.559 1446.77 627.559H1446.72V627.571Z" fill="white"/>
<path d="M1509.85 632.744C1512.31 628.723 1515.38 624.807 1518.85 624.807C1521.56 624.807 1523.37 626.771 1523.37 628.582C1523.37 630.287 1522.37 631.803 1520.76 632.556C1519.86 632.909 1519.21 632.756 1518.75 632.356C1517.6 631.298 1516.74 630.851 1515.48 630.851C1513.57 630.851 1511.31 633.014 1509.71 636.93V650.052C1509.71 654.885 1510.06 655.332 1515.9 655.779V657.742H1498.05V655.779C1502.57 655.332 1503.22 654.873 1503.22 650.052V634.825C1503.22 630.157 1502.82 629.851 1498.65 629.252V627.594C1502.36 626.994 1505.88 626.136 1509.7 624.584V632.779H1509.85V632.744Z" fill="white"/>
<path d="M1596.09 627.618C1592.12 628.217 1591.47 628.817 1589.46 633.05C1587.6 636.766 1585.19 642.951 1580 654.862C1574.93 666.573 1573.31 670.747 1572.07 674.921C1571.72 676.332 1570.76 676.673 1569.76 676.673C1567.6 676.673 1565.3 674.863 1565.3 672.911C1565.3 671.7 1565.94 671.053 1567.2 670.195C1569.76 668.69 1571.22 667.032 1573.03 663.716C1574.34 661.305 1574.95 659.847 1575.24 658.989C1575.69 657.884 1575.55 656.884 1575.09 655.673C1571.93 646.984 1568.46 637.836 1566.4 633.003C1564.79 629.182 1563.99 628.229 1559.97 627.629V625.666H1575.75L1575.85 627.629C1572.39 628.229 1571.94 628.888 1572.89 631.545L1579.63 649.535C1581.64 644.914 1584.86 636.213 1586.32 631.792C1587.27 629.076 1586.67 628.217 1582.5 627.618V625.654H1596.11V627.618H1596.09Z" fill="white"/>
<path d="M1631.42 658.577C1628.96 658.577 1627.1 656.872 1627.1 654.05C1627.1 651.581 1628.96 649.676 1631.52 649.676C1634.08 649.676 1635.89 651.581 1635.89 654.05C1635.89 656.86 1634.08 658.577 1631.52 658.577H1631.41H1631.42Z" fill="white"/>
<path d="M1714.05 645.866C1713.54 648.383 1711.99 655.473 1711.24 657.731H1676.56V655.626C1682.99 655.179 1683.65 654.673 1683.65 648.242V619.398C1683.65 613.014 1683.15 612.567 1676.92 612.155V609.945H1697.27V612.155C1691.34 612.555 1690.64 612.955 1690.64 619.398V647.995C1690.64 652.016 1690.99 653.427 1692.4 654.18C1693.86 654.979 1696.42 655.132 1699.39 655.132C1703.36 655.132 1706.02 654.685 1707.73 652.769C1709.14 651.358 1710.54 648.947 1711.8 645.431L1714.06 645.878H1714.05V645.866Z" fill="white"/>
<path d="M1788.74 645.866C1788.23 648.383 1786.68 655.473 1785.93 657.731H1751.25V655.626C1757.68 655.179 1758.34 654.673 1758.34 648.242V619.398C1758.34 613.014 1757.83 612.567 1751.6 612.155V609.945H1771.96V612.155C1766.03 612.555 1765.32 612.955 1765.32 619.398V647.995C1765.32 652.016 1765.68 653.427 1767.09 654.18C1768.55 654.979 1771.11 655.132 1774.07 655.132C1778.05 655.132 1780.7 654.685 1782.42 652.769C1783.83 651.358 1785.23 648.947 1786.49 645.431L1788.75 645.878H1788.74V645.866Z" fill="white"/>
<path d="M1873.21 645.114C1872.21 648.63 1870.14 654.415 1868.83 656.778C1866.62 657.284 1859.98 658.883 1854.41 658.883C1835.01 658.883 1826.36 646.066 1826.36 634.461C1826.36 618.975 1838.87 608.828 1856.31 608.828C1862.74 608.828 1868.18 610.591 1870.28 610.932C1870.88 615.107 1871.43 618.27 1871.89 622.444L1869.62 622.949C1867.56 614.813 1862.54 611.591 1854.35 611.591C1841.53 611.591 1834.7 621.95 1834.7 632.897C1834.7 646.772 1843.19 656.014 1855.01 656.014C1862.8 656.014 1867.07 651.84 1871.03 644.255L1873.2 645.114H1873.21Z" fill="white"/>
<path d="M1009.93 570.178C975.128 595.564 943.357 623.972 920.499 661.293C917.136 666.843 914.114 673.063 912.256 679.284C911.081 683.481 912.092 688.526 912.092 693.241C916.466 691.724 921.169 690.889 924.873 688.537C928.906 686.021 932.61 682.317 935.632 678.613C952.27 657.095 969.084 635.742 985.052 613.895C994.8 600.444 1003.21 585.993 1012.28 572.036C1011.45 571.53 1010.77 570.86 1009.93 570.19V570.178ZM1001.87 583.794C995.988 593.377 989.767 603.125 983.042 612.379C969.084 631.38 954.292 650.37 940.006 668.701L933.621 676.944C930.599 680.977 927.06 684.175 923.533 686.362C921.181 687.879 918.324 688.714 915.29 689.56C915.126 689.56 914.785 689.725 914.444 689.725V688.714C914.279 685.515 913.938 682.494 914.785 679.977C916.466 674.427 919.159 668.548 922.686 662.657C941.688 631.556 967.909 604.489 1007.08 575.575C1005.39 578.268 1003.55 580.96 1001.87 583.818V583.794Z" fill="white"/>
<path d="M1874.37 457.545L1869.83 460.238C1867.65 461.578 1865.63 462.93 1863.45 464.271C1860.08 466.622 1856.56 469.151 1853.19 471.667C1846.3 476.876 1839.24 482.085 1831.84 486.13C1816.04 494.537 1800.4 501.592 1785.61 506.636C1781.23 508.153 1777.71 507.976 1775.7 506.13C1773.67 504.284 1773.18 500.416 1774.52 495.877C1778.21 482.261 1783.43 469.48 1789.82 454.182C1790.49 452.665 1794.19 451.325 1796.54 450.478L1797.55 450.137C1801.93 448.456 1806.47 446.939 1811.01 445.434C1819.92 442.577 1829.33 439.555 1837.57 434.675C1856.23 423.916 1866.32 406.773 1866.82 385.078C1866.99 376.507 1863.8 369.616 1858.25 366.253C1852.87 363.055 1845.97 363.396 1838.76 367.429C1829.34 372.815 1817.4 380.211 1809.68 390.464C1793.87 411.476 1781.27 431.148 1771.18 450.643C1764.96 462.578 1757.73 475.183 1746.97 485.777C1744.28 488.469 1741.76 491.15 1739.23 493.843C1736.54 496.7 1733.85 499.722 1730.99 502.415L1722.42 510.822C1702.24 530.317 1681.57 550.495 1660.89 570.002C1657.52 573.2 1653.33 575.552 1649.12 578.068C1647.6 578.903 1646.1 579.749 1644.58 580.584L1643.57 579.914C1644.07 578.232 1644.58 576.716 1644.91 575.034C1646.25 570.495 1647.42 565.957 1649.61 562.253C1666.59 532.834 1683.91 503.92 1697.19 482.226C1700.71 476.347 1701.89 471.302 1700.71 466.928C1699.54 462.73 1696.34 459.191 1690.8 456.169C1689.46 455.499 1688.28 454.829 1686.6 454.147C1687.11 453.806 1687.44 453.477 1687.78 453.136C1690.47 450.619 1692.82 448.432 1695.17 446.069C1698.03 443.047 1700.72 440.013 1703.58 437.156C1713.16 427.067 1722.91 416.65 1731.99 405.714C1736.69 400.164 1745.44 389.57 1737.54 378.988C1731.15 370.745 1721.74 372.262 1713.51 373.779C1712.17 373.943 1710.99 374.12 1709.64 374.284C1708.63 374.449 1707.61 374.955 1706.94 375.296C1677.69 390.428 1659.88 414.463 1653.66 446.574C1653.15 449.432 1653.82 452.124 1654.49 454.817C1654.83 456.499 1655.33 458.015 1655.33 459.356C1655.49 462.213 1655.16 464.059 1655.16 464.236C1639.36 474.83 1623.05 485.589 1605.91 495.501C1604.22 496.512 1600.86 496.171 1597.66 495.665C1596.65 495.501 1595.82 495.501 1594.97 495.325V492.808C1595.13 489.104 1595.31 485.753 1596.49 483.061C1599.85 475.159 1605.06 467.763 1608.59 463.06C1620.02 447.597 1631.79 432.124 1643.56 417.332C1646.58 413.628 1652.63 405.902 1643.56 398.671C1634.31 391.11 1627.08 399.177 1624.89 401.869L1622.04 405.068C1614.14 414.145 1605.89 423.387 1597.32 431.794C1577.65 450.796 1556.13 471.138 1531.09 494.16C1528.57 496.348 1525.37 498.029 1522.01 499.71C1520.83 500.216 1519.82 500.722 1518.65 501.392L1518.31 501.051C1518.98 499.534 1519.48 498.194 1519.99 496.677C1521.67 492.479 1523.35 488.434 1525.7 484.907C1543.02 458.85 1560.84 432.958 1577.47 408.748C1580.84 404.045 1584.2 399.33 1587.56 394.791C1591.6 389.076 1595.97 383.185 1600 377.142C1601.52 374.79 1601.34 370.757 1600.84 368.57C1600.33 367.053 1599.66 366.054 1598.65 365.548C1595.29 363.866 1590.58 364.372 1587.73 365.383C1585.21 366.053 1583.69 368.405 1582.34 370.428L1581.51 371.603C1569.41 388.747 1557.3 405.902 1545.2 423.211L1521.16 457.169C1520.49 458.18 1519.82 459.191 1519.14 460.191C1517.46 462.707 1516.12 465.07 1514.1 466.411C1489.56 484.401 1460.3 505.413 1430.72 525.92C1425.67 529.283 1418.95 530.964 1412.89 532.481C1410.38 532.986 1408.19 532.822 1407.34 531.975C1406.33 530.964 1406.33 528.953 1407.18 526.425C1409.2 519.535 1411.21 512.468 1414.74 506.424C1426.51 486.247 1438.28 466.246 1450.21 446.069C1459.8 429.76 1469.38 413.451 1478.79 397.154C1482.82 390.264 1487.36 387.571 1495.09 387.23C1505.51 386.889 1515.94 385.384 1526.03 384.032L1532.76 383.197C1534.94 382.856 1536.95 381.857 1538.64 380.845C1539.14 380.505 1539.81 380.011 1540.48 379.834L1542.5 378.823L1540.48 371.262L1494.41 375.296L1513.41 348.734L1514.43 347.558C1516.11 345.206 1517.95 342.678 1517.45 339.656C1517.11 337.634 1515.77 335.623 1513.07 333.942C1504.83 328.392 1500.29 335.117 1498.45 337.645L1495.08 342.69C1488.36 352.602 1481.3 363.032 1473.91 372.779C1471.88 375.472 1468.03 377.988 1464.83 378.494C1457.09 379.834 1449.03 380.681 1441.12 381.516C1435.57 382.021 1430.02 382.691 1424.31 383.362C1421.79 383.867 1419.27 384.879 1416.91 385.878C1416.08 386.384 1415.07 386.713 1414.06 387.218L1411.87 388.065L1414.22 395.802L1461.29 391.428L1461.12 391.769C1459.61 394.121 1458.61 395.967 1457.43 397.825C1454.23 403.033 1450.87 408.078 1447.69 413.122C1440.45 424.046 1433.22 435.31 1427 447.08C1414.4 471.29 1393.88 486.917 1377.24 497.853L1374.89 499.369C1367.33 504.414 1361.61 507.777 1357.24 502.897C1354.55 499.875 1355.22 488.94 1358.42 482.72C1367.83 464.565 1378.92 447.421 1391.36 428.584C1394.38 423.881 1398.42 419.507 1402.12 415.309C1404.81 412.287 1407.51 409.254 1410.02 406.232C1412.72 402.54 1413.72 399.506 1412.72 396.813C1411.88 394.297 1409.35 392.439 1405.32 391.604C1402.97 390.934 1400.44 389.088 1399.1 387.23C1389.52 373.273 1377.58 369.91 1363.46 377.142C1353.71 382.186 1346.65 387.395 1341.78 393.286C1329.5 408.242 1317.57 423.881 1305.97 439.014C1302.45 443.894 1298.74 448.762 1295.05 453.477C1293.87 455.158 1292.86 456.84 1291.85 458.521C1290.51 460.708 1289.16 462.895 1287.65 464.576C1264.29 488.281 1244.78 507.953 1226.12 526.108C1222.92 529.306 1219.07 531.987 1215.02 534.68C1213.85 535.515 1212.51 536.526 1211.33 537.372C1211.33 536.537 1211.5 535.691 1211.5 534.856C1211.84 531.658 1212 528.636 1213.01 525.943C1214.35 522.075 1215.71 518.042 1217.05 514.009C1220.91 501.909 1224.95 489.634 1230.83 478.369C1240.75 459.368 1251.51 440.543 1261.93 422.223C1269.32 409.277 1277.06 395.826 1284.28 382.386C1284.95 381.045 1285.96 379.693 1286.8 378.353C1291.33 370.957 1297.55 360.868 1287.3 353.131C1278.06 345.9 1269.48 354.977 1263.76 360.868C1262.93 361.715 1262.08 362.549 1261.25 363.22C1232.5 391.463 1204.76 419.542 1178.7 446.598C1169.97 455.675 1161.89 465.599 1153.99 475.183C1152.81 476.523 1151.63 477.875 1150.62 479.216C1151.29 477.193 1152.3 475.018 1153.32 472.831C1155.16 468.962 1157.02 465.094 1159.03 461.061C1166.26 446.104 1173.99 430.63 1179.54 414.498C1181.56 408.442 1183.24 401.893 1180.37 396.002L1179.54 394.156L1177.69 394.662C1165.92 396.849 1162.05 405.926 1158.36 414.839L1156.51 419.213C1151.98 429.972 1147.27 441.072 1142.05 451.654C1139.19 457.874 1134.82 463.424 1130.28 466.952C1113.14 480.403 1095.31 493.678 1078.17 506.46L1063.38 517.383C1063.21 517.724 1062.87 517.889 1062.71 518.053C1063.21 516.878 1063.88 515.702 1064.55 514.69L1075.98 494.513C1086.4 476.358 1097.16 457.533 1107.42 438.873C1108.94 435.851 1109.27 432.312 1109.45 428.961C1109.61 427.62 1109.61 426.103 1109.95 424.763L1110.46 421.059L1103.73 422.74C1100.71 423.411 1097.68 424.081 1094.31 424.763C1089.27 414.674 1083.72 409.124 1076.99 406.937C1069.76 404.75 1061.53 406.596 1050.77 412.816C1043.21 417.014 1037.32 421.388 1032.62 426.092C1028.75 429.96 1025.22 434.158 1021.86 438.191C1017.82 443.071 1013.61 448.103 1008.75 452.477C993.449 466.258 976.129 480.885 954.106 498.535C951.754 500.381 946.04 500.886 944.864 500.051C942.841 498.37 941.501 492.996 942.007 489.633C943.523 481.391 945.875 474.501 949.238 468.951C959.327 452.301 969.921 435.498 980.174 419.354C983.866 413.475 987.735 407.584 991.439 401.705L992.45 400.188C994.296 397.331 996.483 394.132 995.648 390.77C995.142 388.747 993.626 387.077 991.274 385.89C987.241 383.703 979.339 387.912 976.647 391.604C974.295 394.803 971.767 397.989 969.251 401.187C960.843 412.287 951.931 423.552 946.557 436.321C936.139 461.037 917.479 478.851 886.037 493.643C875.278 498.852 864.519 503.896 853.76 508.776C852.244 509.446 850.397 509.952 848.881 510.293C845.518 503.238 842.32 496.171 839.133 489.281C830.22 470.456 821.989 452.63 813.747 434.311C809.208 424.057 805.01 412.628 800.131 397.331C792.229 372.285 798.108 349.086 818.286 326.216C824 319.491 831.902 313.776 839.803 310.413C845.012 308.226 849.716 308.391 852.749 310.919C855.947 313.611 856.947 318.479 855.442 324.37C854.266 329.415 852.079 334.294 849.563 339.503C848.728 341.349 847.881 343.195 847.046 345.053C846.2 347.076 845.2 348.922 843.848 351.273C843.178 352.449 842.508 353.79 841.661 355.306L839.815 358.505L843.684 359.01C854.783 360.021 857.805 353.131 860.157 348.087C860.663 347.076 860.992 346.064 861.497 345.229C871.41 327.745 871.41 311.271 861.838 302.194C851.75 292.952 833.254 294.128 816.78 305.216C786.856 325.217 772.734 363.89 782.152 399.024C784.668 408.101 788.031 417.684 793.417 429.96C798.967 442.906 804.681 455.675 810.56 468.457C815.44 479.216 820.143 489.974 824.847 500.733C826.528 504.437 827.704 508.294 828.88 512.339C829.221 513.515 829.55 514.855 829.891 516.043L828.21 516.548C825.517 517.219 823.165 517.889 820.978 518.735C813.418 521.428 805.681 524.121 797.944 526.802C778.778 533.363 759.106 540.077 740.445 548.484C724.983 555.374 710.356 565.804 699.091 577.903C685.64 592.531 680.772 612.026 686.145 630.357C691.695 649.182 706.828 663.304 726.488 668.184C755.237 675.415 782.811 667.008 808.526 643.303C840.297 613.884 854.419 575.893 850.55 530.505C850.045 524.285 851.056 522.604 856.935 519.911C872.738 512.856 888.377 504.778 903.498 497.053C908.378 494.537 913.081 492.173 917.785 489.822C919.972 488.646 921.982 487.305 924.51 485.789C924.346 487.47 924.346 488.646 924.169 489.986C923.664 500.745 926.356 508.482 931.73 512.339C935.422 515.031 942.148 516.878 953.412 512.174C962.149 508.306 970.062 502.932 977.787 497.547C980.985 495.36 984.172 493.173 987.37 491.162C989.052 490.151 990.568 488.975 991.744 487.964C992.085 489.304 992.415 490.48 992.756 491.832C994.437 497.888 995.777 503.097 999.811 504.778C1006.2 507.294 1016.28 504.614 1022.17 500.58C1035.12 491.668 1047.73 481.755 1059.84 472.172C1063.04 469.656 1066.4 466.963 1069.58 464.435C1072.28 462.413 1074.63 460.238 1076.98 458.051C1076.98 458.392 1076.82 458.556 1076.64 458.721L1065.21 478.228C1053.6 497.9 1041.67 518.242 1029.57 537.913C1025.7 544.298 1020.15 550.189 1014.27 554.728C986.194 575.575 956.61 598.433 932.906 627.688C920.465 642.821 906.508 659.965 902.146 681.988C900.97 687.867 902.652 696.945 906.849 700.307C909.036 702.153 912.728 703 916.432 703C920.136 703 923.664 702.165 926.015 700.484L927.191 699.649C938.456 691.747 949.885 683.681 957.951 672.922C977.623 646.36 996.789 618.622 1015.27 591.896C1022.83 580.972 1030.41 570.037 1038.13 558.949C1039.14 557.608 1040.15 556.092 1040.99 554.575C1043.5 550.706 1045.87 547.014 1048.89 544.662C1070.57 527.848 1092.77 511.045 1114.29 494.901L1127.91 484.813C1127.4 485.988 1126.73 487.329 1126.22 488.505C1123.03 496.065 1119.5 503.802 1116.81 511.704C1115.79 514.726 1116.64 518.089 1117.31 521.122C1117.65 522.463 1117.82 523.639 1117.98 524.814L1118.49 528.342L1121.69 526.825C1122.7 526.319 1123.87 525.814 1125.05 525.308C1127.91 524.297 1130.76 523.121 1132.95 520.934C1148.59 503.109 1164.22 485.459 1179.69 467.645C1200.7 443.776 1222.22 419.225 1243.74 395.191C1249.62 388.465 1256.68 382.586 1263.57 376.695C1265.42 375.178 1267.44 373.496 1269.29 371.815C1267.95 374.837 1266.43 377.694 1264.75 380.552C1260.55 387.948 1256.18 395.014 1251.8 402.234C1242.73 417.367 1233.31 432.829 1225.58 448.797C1213.65 473.172 1204.23 498.899 1196 521.593C1190.95 535.209 1192.64 544.627 1200.7 549.672C1211.3 556.397 1220.88 547.825 1227.26 542.111L1227.77 541.605C1240.04 530.505 1251.98 518.406 1263.57 506.812L1271.31 499.075C1273.83 496.383 1276.19 493.361 1278.71 490.339C1279.05 489.669 1279.54 489.163 1280.05 488.493C1280.05 488.658 1280.21 488.658 1280.21 488.658C1280.21 489.998 1280.05 491.515 1280.05 493.032C1279.54 500.087 1278.87 509.67 1288.29 512.198C1295.52 514.044 1305.43 506.989 1310.82 502.615C1319.9 495.383 1328.47 487.153 1336.71 479.251C1338.23 477.91 1339.73 476.558 1341.08 475.218C1341.08 475.559 1340.92 476.053 1340.92 476.394C1339.4 483.119 1337.72 490.174 1337.56 497.241C1337.22 504.296 1339.07 509.846 1343.27 513.374C1347.14 516.736 1352.51 518.077 1358.73 516.901C1368.48 515.22 1377.39 510.34 1386.13 505.801L1387.14 505.296C1391.68 502.944 1395.71 499.746 1399.58 496.559C1398.91 498.746 1398.24 500.933 1397.39 502.944C1396.72 504.79 1396.22 506.471 1395.55 508.153C1395.04 509.67 1394.54 511.351 1393.87 512.856C1390.67 521.593 1387.14 531.517 1395.55 540.253C1406.81 551.859 1421.1 545.803 1430.68 540.253C1446.65 531.176 1461.95 520.922 1476.92 510.834L1487.17 504.108C1491.54 501.086 1495.58 497.888 1500.46 494.019C1500.8 493.678 1501.13 493.349 1501.63 493.008C1501.13 494.69 1500.79 496.03 1500.62 497.547C1500.62 498.217 1500.62 499.228 1500.46 500.063C1500.12 505.613 1499.62 510.987 1502.64 513.009C1506.34 515.525 1511.72 514.855 1516.6 514.185L1518.79 514.02C1522.66 513.515 1526.02 511.328 1527.7 509.987L1536.11 503.426C1550.06 492.503 1564.35 481.062 1578.31 469.468C1583.19 465.435 1587.55 460.732 1591.76 456.193C1590.75 458.544 1589.41 460.732 1588.23 462.919C1585.03 469.139 1581.51 475.524 1579.32 482.249C1576.46 490.492 1577.47 498.217 1581.84 503.426C1586.54 508.635 1594.11 510.481 1603.01 508.635C1609.74 507.295 1615.11 505.272 1619.32 502.579L1624.7 499.217C1636.79 491.821 1649.41 484.26 1660.5 475.183C1667.57 469.468 1672.6 470.138 1680.17 474.677L1679.32 476.017C1677.81 478.369 1676.47 480.556 1675.29 482.743C1671.93 488.622 1668.57 494.678 1665.2 500.569C1654.78 518.888 1643.85 537.725 1633.94 556.715C1630.07 563.77 1629.4 572.859 1629.23 579.079C1628.89 587.651 1631.93 591.519 1634.62 593.201C1637.31 594.882 1642.18 596.223 1649.75 592.366C1654.96 589.85 1662.53 585.64 1668.58 579.926C1688.92 560.43 1709.6 540.418 1729.44 520.922L1752.8 498.229C1754.48 496.547 1756.33 494.866 1758.35 493.02C1759.87 504.625 1763.56 512.186 1769.62 516.219C1776.18 520.593 1785.25 520.758 1798.19 516.56L1799.2 516.219C1801.05 515.713 1802.9 515.208 1804.59 514.032C1826.44 501.086 1848.8 487.47 1870.82 474.018C1873.17 472.502 1874.85 470.315 1876.53 468.304C1877.04 467.469 1877.71 466.622 1878.56 465.788L1879.9 464.106L1874.35 457.545H1874.37ZM1843.6 380.552C1845.12 379.376 1847.63 378.87 1850.33 378.364C1851 378.364 1851.67 378.2 1852.35 378.023C1852.51 378.694 1852.69 379.199 1853.02 379.87C1853.85 382.562 1854.7 385.078 1854.53 387.101C1851.51 412.322 1828.14 432.829 1799.06 436.357C1810.66 414.839 1825.28 396.519 1843.61 380.54L1843.6 380.552ZM833.254 552.87C829.385 594.224 809.385 625.489 773.745 645.502C761.646 652.392 747.018 654.579 736.93 655.249C720.962 656.261 707.675 648.524 700.114 633.567C693.059 619.786 694.4 605.159 703.818 590.191C707.181 584.982 712.225 579.773 718.446 575.058C749.205 552.023 785.527 541.77 823.847 530.682L833.43 527.989C833.43 530.341 833.595 532.528 833.595 534.715C833.759 541.1 833.936 547.155 833.254 552.87ZM1022.72 486.294C1021.03 487.635 1018.85 488.646 1015.99 489.657C1015.32 489.998 1014.81 490.163 1014.14 490.492V489.822C1013.98 488.305 1013.98 487.129 1014.14 486.623C1025.07 457.204 1043.4 435.851 1068.61 423.081C1071.12 421.906 1073.31 421.235 1075.17 421.235C1076.18 421.235 1077.02 421.4 1077.86 421.741C1080.21 422.917 1081.9 425.609 1082.74 429.984C1083.41 432.335 1082.4 436.368 1081.06 437.544C1063.92 452.171 1045.42 467.798 1022.73 486.294H1022.72ZM985.054 613.884C969.086 635.742 952.272 657.084 935.634 678.601C932.612 682.305 928.908 685.998 924.875 688.526C921.171 690.877 916.468 691.724 912.093 693.229C912.093 688.526 911.082 683.481 912.258 679.272C914.104 673.052 917.138 666.831 920.501 661.281C943.359 623.961 975.142 595.552 1009.93 570.166C1010.77 570.836 1011.45 571.507 1012.29 572.012C1003.21 585.969 994.801 600.42 985.054 613.872V613.884ZM1314.22 484.272C1310.52 488.305 1305.81 491.832 1301.44 495.372C1299.75 496.547 1298.24 497.723 1296.73 499.075C1296.73 498.405 1296.9 497.735 1296.9 497.053C1297.24 494.537 1297.57 492.173 1298.41 490.163C1313.04 454.018 1335.06 422.752 1363.64 396.86C1368.85 392.157 1373.06 389.805 1376.24 389.629H1376.75C1380.62 389.629 1385.82 392.486 1389.19 395.508C1390.53 396.684 1390.53 397.531 1390.53 397.695C1390.69 399.377 1388.51 401.564 1386.84 403.574L1386.17 404.245C1378.43 412.816 1370.87 421.388 1363.13 429.972C1347.16 447.797 1330.69 466.281 1314.22 484.272ZM1672.97 449.643L1672.81 449.479V447.633C1672.81 444.94 1672.97 442.588 1673.64 440.401C1680.37 420.059 1693.48 403.421 1713.82 389.629C1716.52 387.783 1720.04 386.431 1723.41 385.937C1725.59 385.431 1727.1 385.772 1727.78 386.442C1728.29 387.113 1728.29 388.959 1727.44 391.146C1727.1 392.157 1726.77 392.827 1726.26 393.333C1711.47 415.356 1691.96 433.346 1672.97 449.655V449.643Z" fill="white"/>
<path d="M1027.41 344.054L1003.16 368.758L1007.39 369.264L1034.26 346.241L1035.14 341.514L1027.41 344.054Z" fill="white"/>
<path d="M940.465 341.514L941.335 346.241L968.203 369.264L972.436 368.758L948.202 344.054L940.465 341.514Z" fill="white"/>
<path d="M987.366 355.389C980.029 353.707 975.079 349.298 967.953 349.733C972.045 356.8 977.571 365.619 977.783 367.9H997.196C997.713 365.16 1003.45 356.741 1007.9 349.733C997.949 349.298 994.703 354.366 987.366 355.389Z" fill="white"/>
<path d="M1019.15 341.514C1023.83 342.29 1028.73 341.244 1033.77 339.151L1013.48 321.231L1013.33 321.349C1013.14 322.948 1011.88 324.029 1010.13 324.805L1019.14 341.514H1019.15Z" fill="white"/>
<path d="M990.511 341.878C996.401 344.301 1001.99 346.499 1005.53 347.158C1001.99 339.386 998.671 331.966 997.072 327.204C994.203 327.416 991.098 327.533 987.9 327.533C984.526 327.533 981.257 327.404 978.258 327.169C976.471 332.507 973.437 339.538 969.98 347.158C973.273 346.582 978.541 344.371 984.09 341.949C986.136 341.055 988.453 341.032 990.511 341.878Z" fill="white"/>
<path d="M1015.86 341.514L1008.57 325.546C1006.25 326.31 1003.8 326.746 1001.19 326.804C1000.9 326.84 1000.61 326.875 1000.31 326.91C1003.89 334.459 1007.4 342.208 1008.01 347.499L1015.87 341.526L1015.86 341.514Z" fill="white"/>
<path d="M956.655 341.514L965.662 324.805C963.91 324.029 962.651 322.948 962.463 321.349L962.31 321.231L942.027 339.151C947.06 341.244 951.963 342.29 956.643 341.514H956.655Z" fill="white"/>
<path d="M967.241 325.546L959.527 341.773L967.382 347.746C967.993 342.455 971.921 334.447 975.507 326.898C975.213 326.863 974.919 326.828 974.625 326.793C972.015 326.734 969.557 326.31 967.253 325.534L967.241 325.546Z" fill="white"/>
<path d="M987.897 324.911C1000.51 324.911 1010.74 323.127 1010.74 320.925C1010.74 318.724 1000.51 316.939 987.897 316.939C975.279 316.939 965.051 318.724 965.051 320.925C965.051 323.127 975.279 324.911 987.897 324.911Z" fill="white"/>
</svg>
