<svg width="202" height="63" viewBox="0 0 202 63" fill="none" xmlns="http://www.w3.org/2000/svg">
<path d="M81.261 47.6185C80.4129 47.6185 79.6766 47.445 79.0521 47.098C78.4276 46.7511 77.9457 46.2654 77.6065 45.6409C77.2673 45.0087 77.0977 44.2647 77.0977 43.4089C77.0977 42.5531 77.2634 41.8014 77.5949 41.1538C77.9342 40.4984 78.4006 39.9857 78.9943 39.6157C79.5956 39.2456 80.2857 39.0605 81.0644 39.0605C81.6734 39.0605 82.2247 39.1762 82.7181 39.4075C83.2193 39.6388 83.6279 39.9587 83.944 40.3674C84.2678 40.776 84.4644 41.2501 84.5338 41.7898H83.5855C83.5084 41.2193 83.2424 40.7644 82.7875 40.4252C82.3403 40.086 81.7775 39.9163 81.0991 39.9163C80.49 39.9163 79.958 40.0628 79.5031 40.3558C79.0482 40.6411 78.6936 41.042 78.4392 41.5585C78.1925 42.0751 78.0691 42.6842 78.0691 43.3858C78.0691 44.0874 78.1963 44.6926 78.4507 45.2014C78.7129 45.7026 79.0868 46.0881 79.5725 46.3579C80.0659 46.6277 80.6557 46.7627 81.3419 46.7627C81.8122 46.7627 82.2324 46.6971 82.6025 46.5661C82.9725 46.4273 83.3079 46.2153 83.6086 45.93L84.5569 46.2769C84.1329 46.7241 83.6433 47.0595 83.0882 47.2831C82.5408 47.5067 81.9317 47.6185 81.261 47.6185Z" fill="white"/>
<path d="M83.6083 46.2771V43.5825L83.9668 43.9411H81.3301V43.1084H84.5566V46.2771H83.6083Z" fill="white"/>
<path d="M92.787 39.0605C93.5657 39.0605 94.2519 39.2421 94.8456 39.6045C95.4469 39.9668 95.9175 40.4676 96.2567 41.1074C96.5959 41.7473 96.7655 42.4838 96.7655 43.3164C96.7655 43.9407 96.6651 44.5149 96.4647 45.0391C96.272 45.5633 95.9981 46.0188 95.6434 46.4043C95.2888 46.7897 94.8684 47.0908 94.3827 47.3066C93.8971 47.5147 93.369 47.6182 92.7987 47.6182C92.2206 47.6182 91.6886 47.5147 91.203 47.3066C90.7251 47.0908 90.3086 46.7897 89.954 46.4043C89.5994 46.0112 89.3214 45.5525 89.121 45.0283C88.9282 44.5041 88.8319 43.9292 88.8319 43.3047C88.8319 42.4798 89.0015 41.7473 89.3407 41.1074C89.6799 40.4676 90.1465 39.9668 90.7401 39.6045C91.3415 39.2421 92.0237 39.0606 92.787 39.0605ZM92.788 39.917C92.1867 39.917 91.6628 40.0595 91.2157 40.3447C90.7686 40.6299 90.4214 41.0265 90.1747 41.5352C89.928 42.0362 89.8046 42.6224 89.8046 43.293C89.8046 43.9714 89.928 44.5734 90.1747 45.0977C90.4291 45.6142 90.7803 46.0226 91.2274 46.3232C91.6745 46.6161 92.1945 46.7626 92.788 46.7627C93.3816 46.7627 93.9023 46.6162 94.3495 46.3232C94.8043 46.0226 95.1595 45.6102 95.4139 45.0859C95.6683 44.5617 95.7948 43.9636 95.7948 43.293C95.7947 42.6301 95.6683 42.0439 95.4139 41.5352C95.1673 41.0265 94.8159 40.63 94.3612 40.3447C93.914 40.0595 93.3893 39.917 92.788 39.917Z" fill="white"/>
<path d="M101.23 47.5029V39.1763H102.179V47.5029H101.23Z" fill="white"/>
<path d="M101.717 47.5031V46.6704H106.459V47.5031H101.717Z" fill="white"/>
<path d="M111.488 47.5029V46.6702H113.72C114.414 46.6702 115.012 46.5314 115.513 46.2539C116.014 45.9686 116.399 45.5716 116.669 45.0627C116.939 44.5539 117.074 43.9641 117.074 43.2933C117.074 42.6303 116.939 42.052 116.669 41.5586C116.399 41.0652 116.014 40.6835 115.513 40.4137C115.019 40.1439 114.422 40.0089 113.72 40.0089H111.488V39.1763H113.72C114.591 39.1763 115.351 39.3497 115.999 39.6967C116.646 40.0359 117.147 40.5178 117.502 41.1423C117.864 41.7591 118.045 42.4838 118.045 43.3164C118.045 44.1491 117.864 44.8815 117.502 45.5137C117.14 46.1382 116.635 46.6278 115.987 46.9825C115.347 47.3294 114.595 47.5029 113.732 47.5029H111.488Z" fill="white"/>
<path d="M110.922 47.5029V39.1763H111.87V47.5029H110.922Z" fill="white"/>
<path d="M127.715 47.5029V39.1763H130.791C131.385 39.1763 131.89 39.2726 132.306 39.4654C132.722 39.6581 133.039 39.928 133.254 40.2749C133.478 40.6142 133.59 41.0189 133.59 41.4892C133.59 41.9595 133.478 42.372 133.254 42.7266C133.039 43.0736 132.722 43.3473 132.306 43.5477C131.89 43.7405 131.385 43.8369 130.791 43.8369H128.409V43.0042H130.756C131.373 43.0042 131.84 42.8693 132.156 42.5994C132.48 42.3296 132.642 41.9595 132.642 41.4892C132.642 41.0266 132.483 40.6643 132.167 40.4021C131.851 40.14 131.381 40.0089 130.756 40.0089H128.663V47.5029H127.715Z" fill="white"/>
<path d="M132.595 47.5026L128.166 43.374H129.461L134.029 47.5026H132.595Z" fill="white"/>
<path d="M138.195 47.5029V39.1763H139.144V47.5029H138.195Z" fill="white"/>
<path d="M138.682 47.5031V46.6704H143.77V47.5031H138.682Z" fill="white"/>
<path d="M138.682 43.5822V42.7495H143.354V43.5822H138.682Z" fill="white"/>
<path d="M138.682 40.0089V39.1763H143.678V40.0089H138.682Z" fill="white"/>
<path d="M148.461 47.5029V39.1763H149.409V47.5029H148.461Z" fill="white"/>
<path d="M148.947 43.9293V43.0967H153.434V43.9293H148.947Z" fill="white"/>
<path d="M148.947 40.0089V39.1763H153.758V40.0089H148.947Z" fill="white"/>
<path d="M158.311 47.5029V39.1763H159.259V47.5029H158.311Z" fill="white"/>
<path d="M164.137 47.5029V39.1763H165.12L169.896 46.1845L169.757 46.2076V39.1763H170.659V47.5029H169.676L164.9 40.4947L165.039 40.4715V47.5029H164.137Z" fill="white"/>
<path d="M175.543 47.5029V39.1763H176.491V47.5029H175.543Z" fill="white"/>
<path d="M176.029 47.5031V46.6704H181.118V47.5031H176.029Z" fill="white"/>
<path d="M176.029 43.5822V42.7495H180.702V43.5822H176.029Z" fill="white"/>
<path d="M176.029 40.0089V39.1763H181.025V40.0089H176.029Z" fill="white"/>
<path d="M185.438 47.5029V39.1763H188.514C189.107 39.1763 189.612 39.2726 190.029 39.4654C190.445 39.6581 190.761 39.928 190.977 40.2749C191.201 40.6142 191.312 41.0189 191.312 41.4892C191.312 41.9595 191.201 42.372 190.977 42.7266C190.761 43.0736 190.445 43.3473 190.029 43.5477C189.612 43.7405 189.107 43.8369 188.514 43.8369H186.131V43.0042H188.479C189.096 43.0042 189.562 42.8693 189.878 42.5994C190.202 42.3296 190.364 41.9595 190.364 41.4892C190.364 41.0266 190.206 40.6643 189.89 40.4021C189.574 40.14 189.104 40.0089 188.479 40.0089H186.386V47.5029H185.438Z" fill="white"/>
<path d="M190.318 47.5026L185.889 43.374H187.184L191.752 47.5026H190.318Z" fill="white"/>
<path d="M197.895 47.5029V43.7328L194.738 39.1763H195.895L198.636 43.1777H198.196L200.937 39.1763H202.001L198.844 43.7328V47.5029H197.895Z" fill="white"/>
<path d="M27.9472 31.6681C28.1068 31.7386 28.964 31.718 29.1119 31.6134C29.2953 31.4838 29.2505 30.7844 29.2153 30.5588C29.0638 29.5924 28.0732 29.4171 27.2415 29.5292C25.7003 29.7369 24.9114 31.8632 26.1683 32.9169C26.5499 33.2367 27.743 33.718 27.4415 34.3538C27.1649 34.9368 26.0449 33.9383 25.6992 34.0442C25.5876 34.0783 25.3603 34.559 25.3262 34.6815C25.208 35.1081 25.3508 35.1755 25.6954 35.3566C26.7417 35.9055 28.3527 36.0214 28.9752 34.8254C29.5044 33.8091 29.1106 33.0053 28.29 32.335C28.0566 32.1442 27.3939 31.8206 27.2956 31.576C27.1917 31.3178 27.2338 30.7055 27.5977 30.7365C27.9797 30.7691 27.601 31.5155 27.9472 31.6681Z" fill="white"/>
<path d="M36.099 31.2699C36.246 31.162 36.9802 31.0867 37.2161 31.0587C37.4958 31.0259 38.1605 31.1179 38.3523 30.8668C38.4958 30.6791 38.6001 29.6697 38.2231 29.6243L34.7464 29.6507C34.4851 29.8126 34.6162 30.1269 34.5814 30.3893C34.4355 31.4966 34.3152 32.8265 34.2676 33.9551C34.2517 34.3327 34.2063 35.22 34.2685 35.5476C34.2898 35.6599 34.3436 35.7125 34.4543 35.7335C34.5927 35.7599 35.668 35.7508 35.7544 35.7087C35.8691 35.6528 35.9054 35.1759 35.9158 35.0197C35.9298 34.807 35.8678 33.9773 35.9386 33.8731C35.9944 33.7909 36.5639 33.644 36.6963 33.6214C36.9499 33.5779 37.7873 33.6081 37.9044 33.3419C37.9713 33.1899 37.9859 32.2262 37.7995 32.1739H36.0465C35.8392 32.1739 35.9014 31.4151 36.099 31.2699Z" fill="white"/>
<path d="M57.5665 35.4228C57.1645 35.9881 56.8759 36.7103 56.5249 37.3038C54.8224 40.1827 52.3756 43.357 49.4346 45.0385C49.0526 45.257 48.6045 45.427 48.238 45.6747C45.8578 46.5552 44.4122 47.0044 41.7818 46.8464C39.8189 46.7282 38.2561 45.9927 36.4454 45.4622C35.8717 45.1697 35.2724 44.9259 34.6988 44.6321C32.5516 43.5314 30.8376 42.2543 28.8988 40.8681C28.75 40.7617 28.1148 40.2833 28.0134 40.2622C27.8697 40.2325 27.7202 40.2789 27.6012 40.3597L25.4188 42.2155C25.2042 42.4823 25.4326 42.6844 25.6365 42.8566C26.5266 43.6072 27.791 44.4388 28.7795 45.0802C31.683 46.9636 34.9037 48.6298 38.3576 49.1828C41.4155 49.8185 44.4328 49.306 47.2338 48.0452C47.3454 47.9949 48.0068 47.6887 48.0508 47.6944C48.1963 47.7133 48.0679 47.8392 48.026 47.8815C47.1503 48.7664 44.4169 50.0574 43.2003 50.4408C42.2584 50.7378 41.3654 50.7963 40.4292 50.9902C40.1668 50.9465 39.9068 51.0347 39.6612 51.0456C33.2167 51.331 27.0212 47.0545 22.4209 42.9386C19.783 40.5785 17.4061 37.9609 15.0676 35.3076C14.9338 35.2214 14.7511 35.2493 14.5991 35.2703L13.657 35.8953C13.3011 36.0956 12.1689 36.7008 12.1175 37.0959C12.0821 37.369 12.232 37.4698 12.382 37.6493C12.6515 38.1297 13.0572 38.606 13.4169 39.0321C17.9582 44.4147 24.288 50.2863 31.0801 52.4785C37.9529 54.6965 44.3941 52.8022 49.404 47.7722C49.9145 47.4799 49.2689 48.1693 49.1423 48.3076C45.5378 52.2389 40.7214 54.4415 35.3827 54.5516L33.3445 54.3322C32.9091 54.244 32.4796 54.1669 32.0362 54.1263C32.0188 54.1248 32.0008 54.1277 31.9831 54.1263C31.8562 54.0251 31.6504 54.0512 31.5049 54.02C31.3577 53.9883 31.2664 53.9521 31.1331 53.9136C30.9763 53.8682 30.8279 53.7915 30.6549 53.8072C30.0831 53.6426 29.5555 53.4848 29.0083 53.2758C26.0498 52.1456 23.2949 50.5536 20.7047 48.7482L18.1186 46.7914C18.1002 46.7743 18.0838 46.7551 18.0654 46.7382C17.7773 46.4734 17.4424 46.2392 17.1625 45.9941C16.5366 45.446 15.9346 44.8577 15.3041 44.319C14.9455 44.0127 14.548 43.5274 14.0523 43.706C13.7642 43.8097 13.1715 44.1313 12.886 44.2928C12.6938 44.4016 11.8914 44.8996 11.8212 45.0405C11.7647 45.1542 11.8433 45.1657 11.8504 45.1967C11.9053 45.265 11.9662 45.3299 12.0227 45.3973C11.9623 45.3324 11.9038 45.2661 11.8504 45.1967C11.8719 45.2887 11.8462 45.3193 11.9257 45.4139C12.222 45.7663 12.6836 46.1408 13.0191 46.4723C13.0546 46.5073 13.0896 46.5432 13.1254 46.5787C13.267 46.7181 13.3941 46.9629 13.6036 47.0039C13.622 47.0203 13.6375 47.0403 13.6568 47.0571C14.5183 47.8697 15.4142 48.656 16.3406 49.3944C23.9276 55.4436 33.49 59.1964 42.7671 54.2597C47.803 51.5799 51.7964 46.7823 54.612 41.9012C55.3179 40.6775 56.0886 39.343 56.7218 38.0861C57.0303 37.4738 57.6183 36.3174 57.7822 35.6925C57.8597 35.3969 57.8473 35.0279 57.5665 35.4228ZM31.9093 46.732C31.9565 46.7484 32.0048 46.7637 32.0537 46.7761C32.0331 46.787 32.0112 46.7927 31.9869 46.7896C31.9612 46.769 31.9355 46.7497 31.9093 46.732ZM41.2567 51.0451C41.2596 51.0451 41.2624 51.0453 41.2653 51.0456C41.217 51.0451 41.1703 51.0476 41.1196 51.0431C41.1672 51.0471 41.211 51.0447 41.2567 51.0451ZM24.699 51.4775C24.6911 51.4726 24.6833 51.4671 24.6753 51.4622H24.6778C24.6851 51.4668 24.6917 51.4726 24.699 51.4775Z" fill="white"/>
<path d="M13.0725 19.1521C13.5218 18.8731 13.9048 18.5146 14.3517 18.2263C20.9149 13.989 27.8647 16.6356 33.7006 20.7025C34.5916 21.3234 35.4294 22.051 36.3373 22.6396L36.5401 22.626C37.4216 22.0463 38.1684 21.272 38.9974 20.617C39.0835 20.5057 39.0638 20.406 38.9974 20.2921C38.9088 20.1405 38.2244 19.6463 38.034 19.5025C32.4273 15.2634 24.8997 11.6049 17.8548 14.4501C17.6597 14.529 16.5731 15.0702 16.4996 15.0598C16.4254 15.0491 16.4229 14.9968 16.4712 14.9261C16.5567 14.8007 16.78 14.7473 16.844 14.5813C17.6714 14.0357 18.7163 13.4212 19.6235 13.0305C20.1067 12.8224 20.6197 12.6828 21.0936 12.4552C23.1042 11.9604 24.8875 11.6898 26.9629 11.9243C31.0418 12.3848 34.3646 14.3059 37.7201 16.4949C37.7584 16.57 37.8143 16.6285 37.8825 16.6775C40.2635 18.3894 42.556 20.3741 44.6257 22.4479C44.7648 22.5873 44.8935 22.7945 45.0235 22.927C46.5264 24.4598 47.9525 26.0549 49.3918 27.6478C49.5303 27.6884 49.6115 27.6306 49.7278 27.5791C50.1812 27.3784 51.5209 26.5301 51.9208 26.2125C52.1762 26.0097 52.3897 25.859 52.2145 25.5113C51.7614 24.6118 50.2682 23.083 49.5402 22.2876C47.9881 20.5921 46.2739 18.827 44.5196 17.3454C43.7139 16.5678 42.8054 15.8278 41.9113 15.1451C36.4533 10.9782 29.8516 8.03485 22.9115 10.155C22.0692 10.4122 21.1652 10.7537 20.4033 11.1799H20.4564C20.4407 11.1854 20.4192 11.1746 20.4033 11.1799C20.095 11.2851 19.8108 11.45 19.5262 11.6045C18.0293 12.4162 16.7162 13.5358 15.3827 14.5811C15.3165 14.6026 15.2764 14.5678 15.3043 14.5026C15.3355 14.4299 16.252 13.5384 16.3913 13.411C16.8225 13.0168 17.3398 12.6075 17.8003 12.2431L19.6653 10.9997C25.8879 7.02079 33.6523 8.09602 39.7373 11.7399C39.831 11.7959 39.8757 11.8471 40.0044 11.8179C42.4812 13.3142 44.7694 14.9011 46.9882 16.7623C47.8313 17.4695 48.665 18.3517 49.5121 19.0205C49.6676 19.1433 49.808 19.2643 50.0175 19.2641C50.2609 19.2641 51.3935 18.6354 51.6732 18.4709C51.8502 18.3668 52.0655 18.2695 52.1687 18.0898C52.1835 18.0833 52.2061 18.0957 52.2218 18.0898C52.2584 18.0758 52.2925 18.053 52.3281 18.0366C52.5808 17.9205 52.6482 17.7764 52.4344 17.5581C52.2759 17.3964 52.0635 17.1725 51.9034 17.0267C51.869 16.8661 51.7009 16.7342 51.5853 16.6274C45.3147 10.8238 38.1157 6.026 29.1967 6.45104C28.7987 6.4701 28.3817 6.40273 27.9994 6.55519C27.9817 6.55652 27.964 6.55364 27.9463 6.55519C27.5755 6.58555 27.1111 6.62012 26.7775 6.76771C23.6897 7.18544 20.0591 9.33568 17.669 11.2869C13.4583 14.7245 9.98003 20.09 7.55467 24.9254C7.26454 25.5038 6.56268 26.9148 6.4453 27.4827C6.4143 27.6332 6.39259 27.8597 6.58173 27.7507C6.61296 27.7327 6.88116 27.2137 6.93432 27.1198C6.96555 27.0646 6.95204 26.9852 6.96377 26.9653C8.76657 23.8883 10.3751 21.5315 13.0725 19.1521Z" fill="white"/>
<path d="M33.4393 32.7015C34.0428 31.9084 34.2125 30.3031 33.1985 29.7623C32.4723 29.3752 31.2668 29.6143 30.4684 29.7289C30.2126 29.7657 30.0093 29.6456 29.8328 29.9432L29.4975 35.5383C29.5108 35.585 29.5746 35.661 29.6158 35.6856C29.7329 35.7557 30.5683 35.7645 30.7331 35.7342C31.1915 35.6495 30.9687 34.7775 30.9716 34.489C30.9725 34.4068 31.0591 33.8474 31.0874 33.8297C31.1506 33.7905 31.5007 33.8013 31.5596 33.8999C31.7986 34.1424 32.3928 35.6668 32.6045 35.7291C32.6763 35.7501 32.7137 35.7313 32.7771 35.708C32.8608 35.6774 33.7367 35.0979 33.7611 35.0439C33.8098 34.9362 33.8016 34.8247 33.7746 34.7132C33.6822 34.3323 33.1946 33.792 33.0743 33.4481C32.9297 33.0348 33.2355 32.9694 33.4393 32.7015ZM32.4119 31.7264C32.2659 32.0881 31.4657 32.5829 31.0961 32.3172C31.0155 32.2592 30.9767 32.091 30.9694 31.991C30.9594 31.855 31.0279 31.164 31.0764 31.0811C31.1911 30.8852 31.8883 30.7682 32.1109 30.7972C32.6039 30.8615 32.5605 31.3581 32.4119 31.7264Z" fill="white"/>
<path d="M194.662 24.6095C194.315 23.5547 193.955 22.5061 193.583 21.4636C193.223 20.4212 192.875 19.3726 192.54 18.3177C192.18 19.3726 191.82 20.4212 191.46 21.4636C191.113 22.5061 190.759 23.5547 190.399 24.6095H194.662ZM200.247 29.952C200.247 30.1382 200.129 30.2312 199.893 30.2312C199.819 30.2312 199.744 30.2312 199.67 30.2312C199.595 30.2312 199.514 30.225 199.428 30.2126C199.117 30.1878 198.795 30.1754 198.46 30.1754C198.137 30.1754 197.814 30.1754 197.492 30.1754C197.082 30.1754 196.673 30.1754 196.263 30.1754C195.854 30.1754 195.438 30.1878 195.016 30.2126C194.966 30.225 194.917 30.2312 194.867 30.2312C194.817 30.2312 194.768 30.2312 194.718 30.2312C194.544 30.2312 194.457 30.1444 194.457 29.9706C194.457 29.8217 194.507 29.7348 194.606 29.71C194.718 29.6728 194.842 29.6604 194.979 29.6728C195.115 29.6852 195.227 29.6914 195.314 29.6914C195.537 29.6914 195.698 29.648 195.798 29.5611C195.909 29.4618 195.965 29.2943 195.965 29.0585C195.965 28.922 195.922 28.6862 195.835 28.3511C195.748 28.0037 195.643 27.6251 195.518 27.2156C195.394 26.8061 195.27 26.4276 195.146 26.0801C195.035 25.7202 194.954 25.4658 194.904 25.3169H190.157C190.133 25.3914 190.077 25.5589 189.99 25.8195C189.903 26.0801 189.798 26.3842 189.673 26.7316C189.562 27.0791 189.45 27.4204 189.338 27.7555C189.227 28.0905 189.134 28.3822 189.059 28.6304C188.985 28.8661 188.947 29.0089 188.947 29.0585C188.947 29.2943 189.009 29.4556 189.134 29.5425C189.258 29.6294 189.413 29.679 189.599 29.6914C189.785 29.6914 189.965 29.6914 190.139 29.6914C190.201 29.6914 190.25 29.7348 190.288 29.8217C190.325 29.8962 190.344 29.9644 190.344 30.0265C190.344 30.1009 190.313 30.1568 190.25 30.194C190.201 30.2312 190.145 30.2498 190.083 30.2498C189.673 30.2498 189.264 30.2374 188.854 30.2126C188.457 30.2002 188.06 30.194 187.663 30.194C187.464 30.194 187.266 30.2002 187.067 30.2126C186.869 30.225 186.664 30.2312 186.453 30.2312C186.391 30.2312 186.329 30.2064 186.267 30.1568C186.205 30.1071 186.174 30.0513 186.174 29.9892C186.174 29.8527 186.223 29.7659 186.323 29.7286C186.422 29.6914 186.534 29.679 186.658 29.6914C186.794 29.6914 186.906 29.6914 186.993 29.6914C187.154 29.6914 187.285 29.6294 187.384 29.5053C187.495 29.3687 187.576 29.2384 187.626 29.1143C188.358 27.2777 189.053 25.4348 189.711 23.5857C190.368 21.7242 191.007 19.8565 191.628 17.9826C191.678 17.8461 191.74 17.6538 191.814 17.4056C191.889 17.1574 191.926 16.9712 191.926 16.8471C191.926 16.7727 191.907 16.7106 191.87 16.661C191.845 16.5989 191.833 16.5431 191.833 16.4935C191.833 16.4438 191.895 16.4066 192.019 16.3818C192.143 16.3569 192.273 16.3383 192.41 16.3259C192.546 16.3135 192.633 16.3073 192.67 16.3073C192.931 16.2701 193.185 16.2328 193.434 16.1956C193.694 16.1584 193.955 16.1274 194.215 16.1025L198.776 28.9654C198.875 29.2633 199.006 29.4556 199.167 29.5425C199.341 29.6169 199.57 29.6542 199.856 29.6542C199.967 29.6542 200.061 29.6728 200.135 29.71C200.209 29.7348 200.247 29.8155 200.247 29.952Z" fill="white"/>
<path d="M182.484 26.3965C182.484 25.9001 182.428 25.4099 182.316 24.9259C182.217 24.4295 182.012 24.0138 181.702 23.6787C181.404 23.3436 180.945 23.1761 180.324 23.1761C179.902 23.1761 179.48 23.1885 179.058 23.2133C178.649 23.2257 178.233 23.2319 177.811 23.2319V29.0584C177.811 29.4059 177.898 29.6106 178.072 29.6727C178.258 29.7347 178.488 29.7658 178.761 29.7658C178.91 29.7658 179.058 29.7658 179.207 29.7658C179.369 29.7658 179.524 29.7596 179.673 29.7471C180.293 29.7099 180.808 29.5362 181.218 29.2259C181.64 28.9157 181.956 28.5124 182.167 28.016C182.378 27.5196 182.484 26.9797 182.484 26.3965ZM181.553 19.7509C181.553 19.0188 181.441 18.4665 181.218 18.0942C181.007 17.7095 180.678 17.4551 180.231 17.331C179.784 17.1945 179.226 17.1263 178.556 17.1263C178.432 17.1263 178.308 17.1325 178.184 17.1449C178.059 17.1449 177.935 17.1511 177.811 17.1635V22.6735H178.351C178.599 22.6735 178.872 22.6673 179.17 22.6549C179.468 22.6301 179.753 22.5742 180.026 22.4873C180.312 22.4005 180.548 22.264 180.734 22.0778C181.019 21.7924 181.224 21.4325 181.348 20.9981C181.485 20.5638 181.553 20.1481 181.553 19.7509ZM185.146 26.08C185.146 26.9239 184.947 27.6747 184.55 28.3324C184.165 28.9777 183.576 29.4679 182.781 29.803C182.335 30.0015 181.832 30.1256 181.274 30.1753C180.728 30.2373 180.213 30.2684 179.729 30.2684C179.617 30.2684 179.505 30.2684 179.394 30.2684C179.282 30.2684 179.17 30.2622 179.058 30.2497C178.153 30.2125 177.24 30.1939 176.322 30.1939C175.975 30.1939 175.627 30.2063 175.28 30.2311C174.932 30.2684 174.578 30.287 174.219 30.287C174.169 30.287 174.126 30.2622 174.088 30.2125C174.051 30.1753 174.032 30.1318 174.032 30.0822C174.032 29.9333 174.088 29.8464 174.2 29.8216C174.324 29.7844 174.467 29.7533 174.628 29.7285C174.789 29.7037 174.938 29.6292 175.075 29.5051C175.211 29.381 175.292 29.1453 175.317 28.7978C175.329 28.6489 175.335 28.4999 175.335 28.351C175.335 28.2021 175.335 28.0532 175.335 27.9043C175.335 26.3282 175.329 24.7584 175.317 23.1947C175.317 21.6186 175.317 20.0426 175.317 18.4665C175.317 17.9205 175.224 17.5854 175.038 17.4613C174.852 17.3372 174.504 17.2752 173.995 17.2752C173.908 17.2752 173.828 17.2441 173.753 17.1821C173.691 17.12 173.66 17.0456 173.66 16.9587C173.66 16.7229 173.79 16.605 174.051 16.605C174.299 16.605 174.554 16.6174 174.814 16.6423C175.075 16.6671 175.329 16.6795 175.577 16.6795C176.21 16.6795 176.843 16.6609 177.476 16.6236C178.109 16.574 178.742 16.5244 179.375 16.4747C179.499 16.4623 179.617 16.4561 179.729 16.4561C179.853 16.4437 179.971 16.4375 180.082 16.4375C180.79 16.4375 181.454 16.5244 182.074 16.6981C182.707 16.8594 183.216 17.1635 183.6 17.6102C183.998 18.057 184.196 18.7023 184.196 19.5462C184.196 20.0302 184.066 20.4893 183.805 20.9237C183.557 21.358 183.241 21.7179 182.856 22.0034C182.732 22.115 182.595 22.2143 182.446 22.3012C182.297 22.3756 182.142 22.4501 181.981 22.5246C181.956 22.537 181.907 22.5618 181.832 22.599C181.77 22.6238 181.739 22.6611 181.739 22.7107C181.739 22.7479 181.77 22.779 181.832 22.8038C181.907 22.8162 181.956 22.8286 181.981 22.841C182.18 22.8907 182.372 22.9465 182.558 23.0086C182.744 23.0582 182.93 23.1327 183.117 23.2319C183.687 23.505 184.165 23.8835 184.55 24.3674C184.947 24.8514 185.146 25.4223 185.146 26.08Z" fill="white"/>
<path d="M172.76 29.803C172.76 30.0637 172.654 30.194 172.444 30.194C171.997 30.194 171.55 30.1878 171.103 30.1753C170.669 30.1629 170.235 30.1567 169.8 30.1567C169.378 30.1567 168.956 30.1629 168.534 30.1753C168.112 30.2002 167.691 30.2126 167.269 30.2126C167.144 30.2126 167.058 30.1753 167.008 30.1009C166.958 30.014 166.934 29.9209 166.934 29.8217C166.934 29.7224 166.971 29.6479 167.045 29.5983C167.132 29.5362 167.219 29.5052 167.306 29.5052C167.418 29.5052 167.529 29.5114 167.641 29.5238C167.753 29.5362 167.864 29.5424 167.976 29.5424C168.001 29.5424 168.032 29.5424 168.069 29.5424C168.106 29.5424 168.137 29.5424 168.162 29.5424C168.373 29.5176 168.485 29.3997 168.497 29.1888C168.522 28.9654 168.534 28.7792 168.534 28.6303V18.9506C167.827 20.7128 167.107 22.4688 166.375 24.2186C165.655 25.956 164.948 27.712 164.253 29.4866H162.801C162.094 27.6499 161.361 25.8257 160.604 24.0138C159.86 22.202 159.128 20.3777 158.408 18.541C158.408 20.2412 158.42 21.9414 158.445 23.6415C158.47 25.3293 158.482 27.0232 158.482 28.7234C158.482 28.8723 158.489 29.0522 158.501 29.2632C158.526 29.4618 158.644 29.5611 158.855 29.5611C159.016 29.5611 159.171 29.5548 159.32 29.5424C159.469 29.53 159.624 29.5238 159.785 29.5238C159.872 29.5238 159.947 29.5611 160.009 29.6355C160.071 29.6976 160.102 29.772 160.102 29.8589C160.102 29.9209 160.077 29.9954 160.027 30.0823C159.978 30.1567 159.916 30.194 159.841 30.194C159.618 30.194 159.394 30.1878 159.171 30.1753C158.948 30.1629 158.724 30.1567 158.501 30.1567C158.104 30.1567 157.701 30.1629 157.291 30.1753C156.881 30.1878 156.478 30.194 156.081 30.194C155.957 30.194 155.876 30.1629 155.839 30.1009C155.802 30.0264 155.783 29.9333 155.783 29.8217C155.783 29.7224 155.82 29.6479 155.895 29.5983C155.982 29.5486 156.062 29.5238 156.137 29.5238C156.249 29.5238 156.36 29.53 156.472 29.5424C156.596 29.5548 156.714 29.5611 156.826 29.5611C157.037 29.5611 157.186 29.5362 157.272 29.4866C157.372 29.4245 157.421 29.2756 157.421 29.0398C157.421 27.1535 157.428 25.2672 157.44 23.3809C157.465 21.4822 157.477 19.5897 157.477 17.7034C157.477 17.5048 157.44 17.3621 157.365 17.2752C157.303 17.176 157.167 17.1263 156.956 17.1263C156.832 17.1263 156.708 17.1325 156.584 17.1449C156.46 17.1573 156.335 17.1635 156.211 17.1635C156.112 17.1635 156.025 17.1263 155.951 17.0519C155.876 16.9774 155.839 16.8905 155.839 16.7912C155.839 16.5555 155.963 16.4376 156.211 16.4376C156.509 16.4376 156.807 16.4438 157.105 16.4562C157.415 16.4686 157.719 16.4748 158.017 16.4748C158.377 16.4748 158.737 16.4748 159.097 16.4748C159.469 16.4748 159.835 16.4562 160.195 16.4189L164.346 26.6944C165.016 24.9942 165.717 23.3065 166.45 21.6311C167.194 19.9434 167.846 18.2246 168.404 16.4748C168.69 16.4872 168.975 16.4996 169.26 16.512C169.558 16.512 169.856 16.512 170.154 16.512C170.539 16.512 170.923 16.4996 171.308 16.4748C171.705 16.45 172.096 16.4376 172.481 16.4376C172.58 16.4376 172.648 16.481 172.686 16.5679C172.723 16.6423 172.741 16.7168 172.741 16.7912C172.741 16.8657 172.723 16.9526 172.686 17.0519C172.648 17.1387 172.58 17.1822 172.481 17.1822C172.307 17.1822 172.127 17.1822 171.941 17.1822C171.767 17.1697 171.593 17.1635 171.42 17.1635C171.296 17.1635 171.203 17.2194 171.14 17.3311C171.091 17.4304 171.066 17.5358 171.066 17.6475C171.066 18.3673 171.06 19.0995 171.047 19.8441C171.047 20.5763 171.047 21.3085 171.047 22.0406C171.047 23.1327 171.047 24.2248 171.047 25.3169C171.06 26.4089 171.066 27.501 171.066 28.5931C171.066 28.7048 171.072 28.8351 171.085 28.984C171.109 29.1329 171.153 29.2694 171.215 29.3935C171.289 29.5052 171.401 29.5611 171.55 29.5611C171.699 29.5611 171.848 29.5548 171.997 29.5424C172.146 29.53 172.301 29.5238 172.462 29.5238C172.537 29.5238 172.605 29.5486 172.667 29.5983C172.729 29.6479 172.76 29.7162 172.76 29.803Z" fill="white"/>
<path d="M149.69 24.6095C149.342 23.5547 148.982 22.5061 148.61 21.4636C148.25 20.4212 147.903 19.3726 147.567 18.3177C147.208 19.3726 146.848 20.4212 146.488 21.4636C146.14 22.5061 145.787 23.5547 145.427 24.6095H149.69ZM155.274 29.952C155.274 30.1382 155.156 30.2312 154.92 30.2312C154.846 30.2312 154.771 30.2312 154.697 30.2312C154.622 30.2312 154.542 30.225 154.455 30.2126C154.145 30.1878 153.822 30.1754 153.487 30.1754C153.164 30.1754 152.842 30.1754 152.519 30.1754C152.109 30.1754 151.7 30.1754 151.29 30.1754C150.881 30.1754 150.465 30.1878 150.043 30.2126C149.994 30.225 149.944 30.2312 149.894 30.2312C149.845 30.2312 149.795 30.2312 149.745 30.2312C149.572 30.2312 149.485 30.1444 149.485 29.9706C149.485 29.8217 149.534 29.7348 149.634 29.71C149.745 29.6728 149.87 29.6604 150.006 29.6728C150.143 29.6852 150.254 29.6914 150.341 29.6914C150.564 29.6914 150.726 29.648 150.825 29.5611C150.937 29.4618 150.993 29.2943 150.993 29.0585C150.993 28.922 150.949 28.6862 150.862 28.3511C150.775 28.0037 150.67 27.6251 150.546 27.2156C150.422 26.8061 150.298 26.4276 150.174 26.0801C150.062 25.7202 149.981 25.4658 149.932 25.3169H145.185C145.16 25.3914 145.104 25.5589 145.017 25.8195C144.93 26.0801 144.825 26.3842 144.701 26.7316C144.589 27.0791 144.477 27.4204 144.366 27.7555C144.254 28.0905 144.161 28.3822 144.086 28.6304C144.012 28.8661 143.975 29.0089 143.975 29.0585C143.975 29.2943 144.037 29.4556 144.161 29.5425C144.285 29.6294 144.44 29.679 144.626 29.6914C144.812 29.6914 144.992 29.6914 145.166 29.6914C145.228 29.6914 145.278 29.7348 145.315 29.8217C145.352 29.8962 145.371 29.9644 145.371 30.0265C145.371 30.1009 145.34 30.1568 145.278 30.194C145.228 30.2312 145.172 30.2498 145.11 30.2498C144.701 30.2498 144.291 30.2374 143.882 30.2126C143.485 30.2002 143.087 30.194 142.69 30.194C142.492 30.194 142.293 30.2002 142.095 30.2126C141.896 30.225 141.691 30.2312 141.48 30.2312C141.418 30.2312 141.356 30.2064 141.294 30.1568C141.232 30.1071 141.201 30.0513 141.201 29.9892C141.201 29.8527 141.251 29.7659 141.35 29.7286C141.449 29.6914 141.561 29.679 141.685 29.6914C141.822 29.6914 141.933 29.6914 142.02 29.6914C142.182 29.6914 142.312 29.6294 142.411 29.5053C142.523 29.3687 142.603 29.2384 142.653 29.1143C143.385 27.2777 144.08 25.4348 144.738 23.5857C145.396 21.7242 146.035 19.8565 146.655 17.9826C146.705 17.8461 146.767 17.6538 146.841 17.4056C146.916 17.1574 146.953 16.9712 146.953 16.8471C146.953 16.7727 146.935 16.7106 146.897 16.661C146.873 16.5989 146.86 16.5431 146.86 16.4935C146.86 16.4438 146.922 16.4066 147.046 16.3818C147.17 16.3569 147.301 16.3383 147.437 16.3259C147.574 16.3135 147.661 16.3073 147.698 16.3073C147.958 16.2701 148.213 16.2328 148.461 16.1956C148.722 16.1584 148.982 16.1274 149.243 16.1025L153.803 28.9654C153.903 29.2633 154.033 29.4556 154.194 29.5425C154.368 29.6169 154.598 29.6542 154.883 29.6542C154.995 29.6542 155.088 29.6728 155.162 29.71C155.237 29.7348 155.274 29.8155 155.274 29.952Z" fill="white"/>
<path d="M140.711 29.803C140.711 30.0637 140.606 30.194 140.395 30.194C139.948 30.194 139.501 30.1878 139.054 30.1753C138.62 30.1629 138.186 30.1567 137.751 30.1567C137.329 30.1567 136.908 30.1629 136.486 30.1753C136.064 30.2002 135.642 30.2126 135.22 30.2126C135.096 30.2126 135.009 30.1753 134.959 30.1009C134.91 30.014 134.885 29.9209 134.885 29.8217C134.885 29.7224 134.922 29.6479 134.996 29.5983C135.083 29.5362 135.17 29.5052 135.257 29.5052C135.369 29.5052 135.48 29.5114 135.592 29.5238C135.704 29.5362 135.815 29.5424 135.927 29.5424C135.952 29.5424 135.983 29.5424 136.02 29.5424C136.057 29.5424 136.088 29.5424 136.113 29.5424C136.324 29.5176 136.436 29.3997 136.448 29.1888C136.473 28.9654 136.486 28.7792 136.486 28.6303V18.9506C135.778 20.7128 135.058 22.4688 134.326 24.2186C133.606 25.956 132.899 27.712 132.204 29.4866H130.752C130.045 27.6499 129.313 25.8257 128.556 24.0138C127.811 22.202 127.079 20.3777 126.359 18.541C126.359 20.2412 126.371 21.9414 126.396 23.6415C126.421 25.3293 126.434 27.0232 126.434 28.7234C126.434 28.8723 126.44 29.0522 126.452 29.2632C126.477 29.4618 126.595 29.5611 126.806 29.5611C126.967 29.5611 127.122 29.5548 127.271 29.5424C127.42 29.53 127.575 29.5238 127.737 29.5238C127.823 29.5238 127.898 29.5611 127.96 29.6355C128.022 29.6976 128.053 29.772 128.053 29.8589C128.053 29.9209 128.028 29.9954 127.979 30.0823C127.929 30.1567 127.867 30.194 127.792 30.194C127.569 30.194 127.346 30.1878 127.122 30.1753C126.899 30.1629 126.676 30.1567 126.452 30.1567C126.055 30.1567 125.652 30.1629 125.242 30.1753C124.833 30.1878 124.429 30.194 124.032 30.194C123.908 30.194 123.827 30.1629 123.79 30.1009C123.753 30.0264 123.734 29.9333 123.734 29.8217C123.734 29.7224 123.772 29.6479 123.846 29.5983C123.933 29.5486 124.014 29.5238 124.088 29.5238C124.2 29.5238 124.311 29.53 124.423 29.5424C124.547 29.5548 124.665 29.5611 124.777 29.5611C124.988 29.5611 125.137 29.5362 125.224 29.4866C125.323 29.4245 125.372 29.2756 125.372 29.0398C125.372 27.1535 125.379 25.2672 125.391 23.3809C125.416 21.4822 125.428 19.5897 125.428 17.7034C125.428 17.5048 125.391 17.3621 125.317 17.2752C125.255 17.176 125.118 17.1263 124.907 17.1263C124.783 17.1263 124.659 17.1325 124.535 17.1449C124.411 17.1573 124.287 17.1635 124.163 17.1635C124.063 17.1635 123.976 17.1263 123.902 17.0519C123.827 16.9774 123.79 16.8905 123.79 16.7912C123.79 16.5555 123.914 16.4376 124.163 16.4376C124.46 16.4376 124.758 16.4438 125.056 16.4562C125.366 16.4686 125.67 16.4748 125.968 16.4748C126.328 16.4748 126.688 16.4748 127.048 16.4748C127.42 16.4748 127.786 16.4562 128.146 16.4189L132.297 26.6944C132.967 24.9942 133.669 23.3065 134.401 21.6311C135.145 19.9434 135.797 18.2246 136.355 16.4748C136.641 16.4872 136.926 16.4996 137.212 16.512C137.509 16.512 137.807 16.512 138.105 16.512C138.49 16.512 138.874 16.4996 139.259 16.4748C139.656 16.45 140.047 16.4376 140.432 16.4376C140.531 16.4376 140.599 16.481 140.637 16.5679C140.674 16.6423 140.693 16.7168 140.693 16.7912C140.693 16.8657 140.674 16.9526 140.637 17.0519C140.599 17.1387 140.531 17.1822 140.432 17.1822C140.258 17.1822 140.078 17.1822 139.892 17.1822C139.718 17.1697 139.545 17.1635 139.371 17.1635C139.247 17.1635 139.154 17.2194 139.092 17.3311C139.042 17.4304 139.017 17.5358 139.017 17.6475C139.017 18.3673 139.011 19.0995 138.999 19.8441C138.999 20.5763 138.999 21.3085 138.999 22.0406C138.999 23.1327 138.999 24.2248 138.999 25.3169C139.011 26.4089 139.017 27.501 139.017 28.5931C139.017 28.7048 139.023 28.8351 139.036 28.984C139.061 29.1329 139.104 29.2694 139.166 29.3935C139.241 29.5052 139.352 29.5611 139.501 29.5611C139.65 29.5611 139.799 29.5548 139.948 29.5424C140.097 29.53 140.252 29.5238 140.413 29.5238C140.488 29.5238 140.556 29.5486 140.618 29.5983C140.68 29.6479 140.711 29.7162 140.711 29.803Z" fill="white"/>
<path d="M117.641 24.6095C117.293 23.5547 116.933 22.5061 116.561 21.4636C116.201 20.4212 115.854 19.3726 115.519 18.3177C115.159 19.3726 114.799 20.4212 114.439 21.4636C114.091 22.5061 113.738 23.5547 113.378 24.6095H117.641ZM123.225 29.952C123.225 30.1382 123.107 30.2312 122.872 30.2312C122.797 30.2312 122.723 30.2312 122.648 30.2312C122.574 30.2312 122.493 30.225 122.406 30.2126C122.096 30.1878 121.773 30.1754 121.438 30.1754C121.116 30.1754 120.793 30.1754 120.47 30.1754C120.061 30.1754 119.651 30.1754 119.242 30.1754C118.832 30.1754 118.416 30.1878 117.994 30.2126C117.945 30.225 117.895 30.2312 117.845 30.2312C117.796 30.2312 117.746 30.2312 117.697 30.2312C117.523 30.2312 117.436 30.1444 117.436 29.9706C117.436 29.8217 117.486 29.7348 117.585 29.71C117.697 29.6728 117.821 29.6604 117.957 29.6728C118.094 29.6852 118.205 29.6914 118.292 29.6914C118.516 29.6914 118.677 29.648 118.776 29.5611C118.888 29.4618 118.944 29.2943 118.944 29.0585C118.944 28.922 118.9 28.6862 118.813 28.3511C118.727 28.0037 118.621 27.6251 118.497 27.2156C118.373 26.8061 118.249 26.4276 118.125 26.0801C118.013 25.7202 117.932 25.4658 117.883 25.3169H113.136C113.111 25.3914 113.055 25.5589 112.968 25.8195C112.882 26.0801 112.776 26.3842 112.652 26.7316C112.54 27.0791 112.429 27.4204 112.317 27.7555C112.205 28.0905 112.112 28.3822 112.038 28.6304C111.963 28.8661 111.926 29.0089 111.926 29.0585C111.926 29.2943 111.988 29.4556 112.112 29.5425C112.236 29.6294 112.391 29.679 112.577 29.6914C112.764 29.6914 112.944 29.6914 113.117 29.6914C113.179 29.6914 113.229 29.7348 113.266 29.8217C113.303 29.8962 113.322 29.9644 113.322 30.0265C113.322 30.1009 113.291 30.1568 113.229 30.194C113.179 30.2312 113.124 30.2498 113.061 30.2498C112.652 30.2498 112.242 30.2374 111.833 30.2126C111.436 30.2002 111.039 30.194 110.642 30.194C110.443 30.194 110.244 30.2002 110.046 30.2126C109.847 30.225 109.643 30.2312 109.432 30.2312C109.37 30.2312 109.307 30.2064 109.245 30.1568C109.183 30.1071 109.152 30.0513 109.152 29.9892C109.152 29.8527 109.202 29.7659 109.301 29.7286C109.401 29.6914 109.512 29.679 109.636 29.6914C109.773 29.6914 109.885 29.6914 109.971 29.6914C110.133 29.6914 110.263 29.6294 110.362 29.5053C110.474 29.3687 110.555 29.2384 110.604 29.1143C111.336 27.2777 112.031 25.4348 112.689 23.5857C113.347 21.7242 113.986 19.8565 114.607 17.9826C114.656 17.8461 114.718 17.6538 114.793 17.4056C114.867 17.1574 114.904 16.9712 114.904 16.8471C114.904 16.7727 114.886 16.7106 114.848 16.661C114.824 16.5989 114.811 16.5431 114.811 16.4935C114.811 16.4438 114.873 16.4066 114.997 16.3818C115.122 16.3569 115.252 16.3383 115.388 16.3259C115.525 16.3135 115.612 16.3073 115.649 16.3073C115.91 16.2701 116.164 16.2328 116.412 16.1956C116.673 16.1584 116.933 16.1274 117.194 16.1025L121.755 28.9654C121.854 29.2633 121.984 29.4556 122.146 29.5425C122.319 29.6169 122.549 29.6542 122.834 29.6542C122.946 29.6542 123.039 29.6728 123.114 29.71C123.188 29.7348 123.225 29.8155 123.225 29.952Z" fill="white"/>
<path d="M104.46 19.8999C104.46 18.9815 104.255 18.2742 103.846 17.7778C103.449 17.2814 102.772 17.0332 101.817 17.0332H101.482C101.382 17.0332 101.277 17.0332 101.165 17.0332C101.053 17.0332 100.948 17.0456 100.849 17.0704C100.725 17.1076 100.644 17.1635 100.607 17.2379C100.569 17.3124 100.551 17.4179 100.551 17.5544C100.551 18.2742 100.545 18.9939 100.532 19.7137C100.532 20.4211 100.532 21.1409 100.532 21.873V22.6363C100.619 22.6487 100.706 22.6611 100.793 22.6735C100.88 22.6735 100.967 22.6735 101.053 22.6735C101.699 22.6735 102.276 22.599 102.785 22.4501C103.306 22.2888 103.715 22.0096 104.013 21.6124C104.311 21.2029 104.46 20.6321 104.46 19.8999ZM109.188 29.8774C109.188 29.9891 109.083 30.076 108.872 30.1381C108.673 30.1877 108.431 30.2187 108.146 30.2311C107.873 30.2559 107.612 30.2684 107.364 30.2684C107.116 30.2808 106.948 30.287 106.861 30.287C106.39 30.287 105.962 30.2373 105.577 30.1381C105.205 30.0388 104.888 29.7596 104.627 29.3004C104.057 28.3076 103.498 27.3024 102.952 26.2848C102.406 25.2548 101.86 24.2309 101.314 23.2133L100.532 23.1947C100.532 24.1751 100.532 25.1617 100.532 26.1545C100.545 27.1349 100.551 28.1214 100.551 29.1142C100.551 29.2259 100.582 29.3376 100.644 29.4493C100.706 29.5486 100.799 29.5982 100.923 29.5982C101.072 29.5982 101.221 29.592 101.37 29.5796C101.519 29.5672 101.668 29.561 101.817 29.561C101.879 29.561 101.935 29.6044 101.984 29.6913C102.046 29.7658 102.077 29.834 102.077 29.8961C102.077 29.9829 102.052 30.0574 102.003 30.1194C101.966 30.1815 101.904 30.2125 101.817 30.2125C101.705 30.2125 101.599 30.2063 101.5 30.1939C101.401 30.1815 101.302 30.1753 101.202 30.1753C100.979 30.1505 100.756 30.1381 100.532 30.1381C100.309 30.1381 100.085 30.1381 99.8621 30.1381C99.3285 30.1381 98.7886 30.1505 98.2426 30.1753C97.709 30.2001 97.1691 30.2125 96.6231 30.2125C96.4121 30.2125 96.3066 30.1008 96.3066 29.8774C96.3066 29.7906 96.3439 29.7223 96.4183 29.6727C96.4928 29.6106 96.5735 29.5796 96.6603 29.5796C96.7844 29.5796 96.9085 29.5858 97.0326 29.5982C97.1567 29.6106 97.2808 29.6168 97.4049 29.6168C97.5787 29.6168 97.7276 29.5858 97.8517 29.5238C97.9758 29.4617 98.0378 29.3314 98.0378 29.1328V17.6289C98.0378 17.4427 98.0006 17.3186 97.9261 17.2566C97.8517 17.1821 97.7276 17.1449 97.5538 17.1449C97.4297 17.1449 97.3056 17.1511 97.1815 17.1635C97.0574 17.1759 96.9333 17.1821 96.8092 17.1821C96.7224 17.1821 96.6293 17.1511 96.53 17.089C96.4432 17.027 96.3997 16.9463 96.3997 16.847C96.3997 16.6112 96.5362 16.4933 96.8092 16.4933C96.9333 16.4933 97.0574 16.4996 97.1815 16.512C97.3056 16.512 97.4297 16.5182 97.5538 16.5306C97.802 16.543 98.0564 16.5554 98.317 16.5678C98.5777 16.5678 98.8321 16.5678 99.0803 16.5678C99.6759 16.5678 100.265 16.5492 100.849 16.512C101.444 16.4623 102.034 16.4375 102.617 16.4375C103.126 16.4375 103.647 16.4871 104.181 16.5864C104.714 16.6733 105.211 16.8346 105.67 17.0704C106.142 17.3062 106.52 17.6289 106.805 18.0384C107.091 18.4355 107.234 18.9443 107.234 19.5648C107.234 20.3218 107.078 20.9299 106.768 21.3891C106.47 21.8482 106.055 22.2019 105.521 22.4501C105 22.6983 104.404 22.8907 103.734 23.0272C104.28 24.02 104.869 24.9941 105.502 25.9497C106.135 26.9053 106.774 27.8484 107.42 28.7792C107.593 29.015 107.817 29.2259 108.09 29.4121C108.363 29.5858 108.642 29.6727 108.928 29.6727C109.014 29.6727 109.076 29.6851 109.114 29.7099C109.163 29.7223 109.188 29.7782 109.188 29.8774Z" fill="white"/>
<path d="M94.5926 16.8659C94.5926 17.0769 94.4934 17.1823 94.2948 17.1823C94.1459 17.1823 93.9908 17.1823 93.8294 17.1823C93.6805 17.1699 93.5316 17.1637 93.3827 17.1637C93.2586 17.1637 93.1717 17.2196 93.1221 17.3313C93.0724 17.4305 93.0476 17.536 93.0476 17.6477C93.0476 18.0821 93.0414 18.5226 93.029 18.9694C93.029 19.4037 93.029 19.8381 93.029 20.2724C93.029 21.6375 93.029 23.0088 93.029 24.3863C93.0414 25.7514 93.0476 27.1165 93.0476 28.4816C93.0476 28.5684 93.0414 28.705 93.029 28.8911C93.0166 29.0773 93.029 29.251 93.0662 29.4123C93.1159 29.5612 93.2089 29.6357 93.3454 29.6357C93.5068 29.6357 93.6681 29.6295 93.8294 29.6171C93.9908 29.6047 94.1521 29.5985 94.3134 29.5985C94.4003 29.5985 94.4623 29.6357 94.4996 29.7102C94.5368 29.7722 94.5554 29.8467 94.5554 29.9335C94.5554 30.0204 94.5244 30.0949 94.4623 30.1569C94.4127 30.2314 94.3382 30.2686 94.239 30.2686C93.817 30.2686 93.3951 30.2624 92.9731 30.25C92.5636 30.2376 92.1479 30.2314 91.7259 30.2314C91.304 30.2314 90.8821 30.2376 90.4601 30.25C90.0382 30.2624 89.6163 30.2686 89.1943 30.2686C89.0702 30.2686 88.9896 30.2438 88.9523 30.1941C88.9151 30.1445 88.8965 30.0638 88.8965 29.9522C88.8965 29.8529 88.9151 29.7722 88.9523 29.7102C89.002 29.6357 89.0764 29.5985 89.1757 29.5985C89.3122 29.5985 89.4487 29.6047 89.5852 29.6171C89.7217 29.6295 89.852 29.6357 89.9761 29.6357C90.1499 29.6357 90.2678 29.5799 90.3298 29.4682C90.3919 29.3565 90.4291 29.2262 90.4415 29.0773C90.4539 28.9159 90.4601 28.7794 90.4601 28.6677L90.4787 17.9828C90.4787 17.8711 90.4663 17.7098 90.4415 17.4988C90.4167 17.2754 90.3298 17.1575 90.1809 17.1451C90.1437 17.1451 90.1065 17.1451 90.0692 17.1451C90.0444 17.1451 90.0134 17.1451 89.9761 17.1451C89.852 17.1451 89.7279 17.1513 89.6039 17.1637C89.4922 17.1761 89.3743 17.1823 89.2502 17.1823C89.0144 17.1823 88.8965 17.0644 88.8965 16.8287C88.8965 16.7418 88.9213 16.6673 88.9709 16.6053C89.033 16.5432 89.1075 16.5122 89.1943 16.5122C89.7279 16.5122 90.2554 16.5246 90.7766 16.5494C91.3102 16.5743 91.8438 16.5867 92.3775 16.5867C92.7001 16.5867 93.0228 16.5743 93.3454 16.5494C93.6805 16.5246 94.0094 16.5122 94.332 16.5122C94.4313 16.5122 94.4996 16.5494 94.5368 16.6239C94.574 16.6984 94.5926 16.779 94.5926 16.8659Z" fill="white"/>
<path d="M87.5796 26.713C87.5796 27.4327 87.4183 28.0346 87.0957 28.5186C86.773 28.9902 86.3449 29.3625 85.8112 29.6355C85.29 29.9085 84.7192 30.1009 84.0987 30.2126C83.4782 30.3243 82.8701 30.3801 82.2744 30.3801C81.8152 30.3801 81.3747 30.3118 80.9527 30.1753C80.5308 30.0512 80.1027 29.9085 79.6683 29.7472C79.4574 29.6727 79.2464 29.6293 79.0354 29.6169C78.8369 29.5921 78.6259 29.5797 78.4025 29.5797C78.3653 29.2818 78.328 28.9902 78.2908 28.7048C78.2536 28.4069 78.2102 28.1091 78.1605 27.8112C78.1357 27.6003 78.1047 27.3955 78.0674 27.197C78.0302 26.9984 78.0116 26.7998 78.0116 26.6013C78.0116 26.4275 78.0426 26.2848 78.1047 26.1731C78.1791 26.0614 78.3094 26.0056 78.4956 26.0056C78.6693 26.0056 78.7996 26.0428 78.8865 26.1173C78.9858 26.1793 79.0602 26.291 79.1099 26.4524C79.1967 26.6757 79.265 26.9053 79.3146 27.1411C79.3767 27.3769 79.4511 27.6127 79.538 27.8485C79.749 28.4317 80.0903 28.8971 80.5618 29.2446C81.0458 29.5921 81.6105 29.7658 82.2558 29.7658C83.1245 29.7658 83.7884 29.5176 84.2476 29.0212C84.7192 28.5124 84.9549 27.8299 84.9549 26.9736C84.9549 26.4772 84.8495 26.0677 84.6385 25.745C84.4275 25.4099 84.1545 25.1245 83.8194 24.8887C83.4844 24.6529 83.1245 24.4295 82.7398 24.2186C82.3799 24.02 82.0138 23.8339 81.6415 23.6601C81.2692 23.4864 80.9031 23.3064 80.5432 23.1203C80.1461 22.9093 79.7552 22.6487 79.3705 22.3385C78.9982 22.0158 78.6879 21.6497 78.4397 21.2402C78.204 20.8183 78.0861 20.3653 78.0861 19.8813C78.0861 19.0623 78.297 18.3859 78.719 17.8523C79.1533 17.3187 79.7056 16.9215 80.3757 16.6609C81.0582 16.4003 81.7656 16.27 82.4978 16.27C82.9694 16.27 83.4223 16.3383 83.8567 16.4748C84.3034 16.5989 84.7378 16.7478 85.1597 16.9215C85.2962 16.9712 85.4203 17.0084 85.532 17.0332C85.6561 17.058 85.7864 17.0705 85.9229 17.0705C86.0222 17.0705 86.1153 17.0705 86.2021 17.0705C86.289 17.0581 86.3759 17.0456 86.4628 17.0332C86.5 17.4303 86.5434 17.8275 86.5931 18.2246C86.6427 18.6217 86.6923 19.0188 86.742 19.4159C86.7544 19.478 86.7606 19.5462 86.7606 19.6207C86.773 19.6827 86.7792 19.7448 86.7792 19.8068C86.7792 19.9806 86.742 20.1419 86.6675 20.2908C86.5931 20.4273 86.4503 20.4956 86.2394 20.4956C86.078 20.4956 85.9602 20.4584 85.8857 20.3839C85.8112 20.3094 85.743 20.204 85.6809 20.0675C85.532 19.6827 85.3893 19.3042 85.2528 18.9319C85.1163 18.5597 84.9177 18.2122 84.6571 17.8895C84.3841 17.542 84.0428 17.2876 83.6333 17.1263C83.2238 16.9526 82.8018 16.8657 82.3675 16.8657C81.9455 16.8657 81.5919 16.9836 81.3064 17.2194C81.021 17.4428 80.81 17.7344 80.6735 18.0943C80.537 18.4542 80.4688 18.8265 80.4688 19.2112C80.4688 19.8068 80.6239 20.2722 80.9341 20.6073C81.2568 20.9299 81.6539 21.2278 82.1255 21.5008C82.3861 21.6373 82.6467 21.7738 82.9073 21.9103C83.1803 22.0344 83.4471 22.1585 83.7078 22.2826C84.3282 22.5681 84.9301 22.9155 85.5134 23.3251C86.1091 23.7222 86.5993 24.2 86.984 24.7584C87.3811 25.3044 87.5796 25.956 87.5796 26.713Z" fill="white"/>
</svg>
