<svg width="23" height="22" viewBox="0 0 23 22" fill="none" xmlns="http://www.w3.org/2000/svg">
<path fill-rule="evenodd" clip-rule="evenodd" d="M6.26153 1.02344C3.64476 1.02344 1.52344 3.14476 1.52344 5.76153V16.2377C1.52344 18.8545 3.64476 20.9758 6.26153 20.9758H16.7377C19.3545 20.9758 21.4758 18.8545 21.4758 16.2377V5.76153C21.4758 3.14476 19.3545 1.02344 16.7377 1.02344H6.26153ZM0.523438 5.76153C0.523438 2.59247 3.09247 0.0234375 6.26153 0.0234375H16.7377C19.9068 0.0234375 22.4758 2.59247 22.4758 5.76153V16.2377C22.4758 19.4068 19.9068 21.9758 16.7377 21.9758H6.26153C3.09247 21.9758 0.523438 19.4068 0.523438 16.2377V5.76153ZM12.0863 7.30355C11.3184 7.18969 10.5342 7.32084 9.84523 7.67835C9.15622 8.03587 8.59748 8.60154 8.24849 9.2949C7.8995 9.98827 7.77802 10.774 7.90135 11.5404C8.02467 12.3068 8.3865 13.0148 8.93539 13.5637C9.48428 14.1126 10.1923 14.4744 10.9586 14.5977C11.725 14.721 12.5108 14.5996 13.2042 14.2506C13.8975 13.9016 14.4632 13.3428 14.8207 12.6538C15.1782 11.9648 15.3094 11.1806 15.1955 10.4128C15.0794 9.62954 14.7144 8.90443 14.1545 8.34455C13.5946 7.78466 12.8695 7.41969 12.0863 7.30355ZM9.38466 6.79073C10.2604 6.33634 11.2571 6.16965 12.233 6.31436C13.2284 6.46198 14.15 6.92584 14.8616 7.63744C15.5732 8.34903 16.0371 9.27063 16.1847 10.2661C16.3294 11.242 16.1627 12.2387 15.7083 13.1144C15.2539 13.9901 14.535 14.7002 13.6537 15.1438C12.7725 15.5874 11.7738 15.7417 10.7998 15.585C9.82573 15.4283 8.9259 14.9684 8.22828 14.2708C7.53067 13.5732 7.07078 12.6733 6.91405 11.6993C6.75731 10.7252 6.9117 9.72656 7.35525 8.84531C7.79881 7.96407 8.50895 7.24512 9.38466 6.79073ZM17.2615 4.73772C16.9854 4.73772 16.7615 4.96158 16.7615 5.23772C16.7615 5.51387 16.9854 5.73772 17.2615 5.73772H17.2715C17.5477 5.73772 17.7715 5.51387 17.7715 5.23772C17.7715 4.96158 17.5477 4.73772 17.2715 4.73772H17.2615Z" fill="white"/>
</svg>
