<svg width="23" height="23" viewBox="0 0 23 23" fill="none" xmlns="http://www.w3.org/2000/svg">
<path d="M18.5825 22.2345H3.78086C1.73547 22.2345 0.0644531 20.5635 0.0644531 18.5181V3.7164C0.0644531 1.67101 1.73547 0 3.78086 0H18.5825C20.6279 0 22.299 1.67101 22.299 3.7164V18.5181C22.299 20.5726 20.6371 22.2345 18.5825 22.2345Z" fill="white"/>
<path d="M11.1861 16.8289C9.66122 16.8289 8.22762 16.2353 7.15014 15.1579C6.07265 14.0804 5.47913 12.6468 5.47913 11.1219C5.47913 9.59695 6.07265 8.16335 7.15014 7.08587C8.22762 6.00838 9.66122 5.41486 11.1861 5.41486C12.711 5.41486 14.1446 6.00838 15.2221 7.08587C16.2996 8.16335 16.8931 9.59695 16.8931 11.1219C16.8931 12.6468 16.2996 14.0804 15.2221 15.1579C14.1355 16.2353 12.711 16.8289 11.1861 16.8289ZM11.1861 6.62931C8.71157 6.62931 6.69358 8.63817 6.69358 11.1219C6.69358 13.5964 8.70244 15.6144 11.1861 15.6144C13.6607 15.6144 15.6787 13.6056 15.6787 11.1219C15.6696 8.6473 13.6607 6.62931 11.1861 6.62931Z" fill="black"/>
<path d="M18.0057 5.22731C18.6109 5.22731 19.1015 4.73672 19.1015 4.13154C19.1015 3.52636 18.6109 3.03577 18.0057 3.03577C17.4005 3.03577 16.9099 3.52636 16.9099 4.13154C16.9099 4.73672 17.4005 5.22731 18.0057 5.22731Z" fill="black"/>
</svg>
