<svg width="24" height="24" viewBox="0 0 24 24" fill="none" xmlns="http://www.w3.org/2000/svg">
<path d="M6.19449 8.31612H1.54578V23.1406H6.19449V8.31612Z" stroke="black"/>
<path d="M18.7697 7.99447C18.5983 7.97305 18.4162 7.96234 18.2341 7.95163C15.6313 7.84451 14.1638 9.38694 13.6497 10.051C13.5104 10.2331 13.4462 10.3403 13.4462 10.3403V8.35866H9.00098V23.1831H13.4462H13.6497C13.6497 21.6728 13.6497 20.1732 13.6497 18.6629C13.6497 17.8489 13.6497 17.0348 13.6497 16.2208C13.6497 15.2139 13.5747 14.1428 14.0781 13.2216C14.5066 12.4504 15.2778 12.0648 16.1454 12.0648C18.7161 12.0648 18.7697 14.3891 18.7697 14.6034C18.7697 14.6141 18.7697 14.6248 18.7697 14.6248V23.2474H23.4184V13.5751C23.4184 10.2653 21.7367 8.31581 18.7697 7.99447Z" stroke="black"/>
<path d="M3.86966 6.39851C5.36041 6.39851 6.56892 5.19001 6.56892 3.69925C6.56892 2.2085 5.36041 1 3.86966 1C2.3789 1 1.17041 2.2085 1.17041 3.69925C1.17041 5.19001 2.3789 6.39851 3.86966 6.39851Z" stroke="black"/>
</svg>
