<svg width="23" height="23" viewBox="0 0 23 23" fill="none" xmlns="http://www.w3.org/2000/svg">
<path d="M5.74156 7.90625H1.35352V21.8995H5.74156V7.90625Z" stroke="white"/>
<path d="M17.6116 7.60307C17.4498 7.58285 17.2779 7.57274 17.1061 7.56263C14.6491 7.46152 13.264 8.91746 12.7787 9.54432C12.6472 9.71621 12.5866 9.81731 12.5866 9.81731V7.94683H8.39062V21.9401H12.5866H12.7787C12.7787 20.5144 12.7787 19.0989 12.7787 17.6733C12.7787 16.9049 12.7787 16.1365 12.7787 15.3681C12.7787 14.4177 12.7079 13.4066 13.1831 12.5371C13.5875 11.8091 14.3155 11.4451 15.1345 11.4451C17.561 11.4451 17.6116 13.6392 17.6116 13.8414C17.6116 13.8515 17.6116 13.8616 17.6116 13.8616V22.0007H21.9996V12.8707C21.9996 9.74654 20.4123 7.90639 17.6116 7.60307Z" stroke="white"/>
<path d="M3.54789 6.0958C4.95506 6.0958 6.0958 4.95506 6.0958 3.5479C6.0958 2.14073 4.95506 1 3.54789 1C2.14073 1 1 2.14073 1 3.5479C1 4.95506 2.14073 6.0958 3.54789 6.0958Z" stroke="white"/>
</svg>
