<svg width="26" height="25" viewBox="0 0 26 25" fill="none" xmlns="http://www.w3.org/2000/svg">
<path d="M6.46384 8.20526H1.25V24.8319H6.46384V8.20526Z" fill="black"/>
<path d="M20.5677 7.84478C20.3755 7.82075 20.1713 7.80874 19.967 7.79672C17.0478 7.67659 15.4019 9.40652 14.8253 10.1514C14.6691 10.3556 14.597 10.4757 14.597 10.4757V8.25323H9.61145V24.8798H14.597H14.8253C14.8253 23.1859 14.8253 21.5041 14.8253 19.8102C14.8253 18.8971 14.8253 17.9841 14.8253 17.0711C14.8253 15.9418 14.7412 14.7405 15.3058 13.7073C15.7864 12.8424 16.6513 12.4099 17.6244 12.4099C20.5076 12.4099 20.5677 15.0168 20.5677 15.2571C20.5677 15.2691 20.5677 15.2811 20.5677 15.2811V24.9519H25.7815V14.1038C25.7815 10.3916 23.8954 8.20518 20.5677 7.84478Z" fill="black"/>
<path d="M3.8571 6.05478C5.52908 6.05478 6.88449 4.69937 6.88449 3.02739C6.88449 1.35541 5.52908 0 3.8571 0C2.18511 0 0.829712 1.35541 0.829712 3.02739C0.829712 4.69937 2.18511 6.05478 3.8571 6.05478Z" fill="black"/>
</svg>
