<svg width="1512" height="293" viewBox="0 0 1512 293" fill="none" xmlns="http://www.w3.org/2000/svg">
<path d="M615.484 169.519C611.321 169.519 607.17 169.432 603.024 169.252C565.485 167.628 527.641 157.855 490.535 140.204C457.641 124.559 425.067 102.621 393.725 74.9993C364.409 49.1684 331.139 29.8633 294.847 17.6193C260.296 5.97215 223.667 0.907798 185.975 2.56666C112.135 5.82295 38.4316 34.9891 -21.5611 84.6935L-23 82.9513C37.3732 32.9353 111.549 3.58919 185.874 0.310959C223.846 -1.36546 260.75 3.74279 295.56 15.4821C332.136 27.8182 365.664 47.2726 395.204 73.3053C426.392 100.786 458.787 122.606 491.493 138.163C528.327 155.682 565.879 165.381 603.116 166.992C643.471 168.738 684.701 161.91 725.655 146.699C764.082 132.428 800.479 111.521 833.841 84.5531L835.253 86.3129C801.703 113.434 765.092 134.464 726.438 148.819C689.407 162.572 652.144 169.519 615.484 169.519Z" fill="#E76F51"/>
<path d="M614.334 226.711C588.276 226.711 562.901 223.648 538.54 217.539C501.417 208.231 467.386 192.011 437.396 169.322C425.443 160.282 414.036 150.79 403.01 141.613C376.555 119.596 351.564 98.8033 319.492 83.6014C298.433 73.6219 276.22 66.3984 253.464 62.1284C230.778 57.8759 207.458 56.5418 184.151 58.1611C147.579 60.7065 111.2 69.3606 76.0183 83.8779C41.41 98.1625 9.35589 117.533 -19.2518 141.451L-20.6951 139.713C8.08755 115.646 40.3385 96.1526 75.1567 81.7846C110.557 67.1752 147.177 58.4683 183.989 55.901C207.489 54.2641 230.997 55.6114 253.871 59.899C276.815 64.1997 299.216 71.4847 320.446 81.5476C352.775 96.8723 377.871 117.753 404.441 139.862C415.449 149.021 426.833 158.496 438.743 167.506C468.492 190.006 502.252 206.098 539.078 215.332C574.333 224.17 611.741 226.588 650.259 222.525C683.45 218.654 716.633 209.355 748.884 194.894C779.022 181.378 808.386 163.35 836.154 141.306L837.55 143.079C809.633 165.237 780.107 183.366 749.798 196.957C717.341 211.514 683.931 220.87 650.504 224.771C638.323 226.057 626.252 226.702 614.325 226.702L614.334 226.711Z" fill="#299D8F"/>
<path d="M614.78 290.384C588.722 290.384 563.347 287.321 538.986 281.212C501.863 271.904 467.832 255.684 437.842 232.996C425.889 223.955 414.482 214.463 403.457 205.286C377.001 183.269 352.01 162.476 319.938 147.275C298.88 137.295 276.666 130.072 253.91 125.801C231.224 121.549 207.904 120.215 184.597 121.834C148.025 124.38 111.646 133.034 76.4644 147.551C41.8561 161.836 9.802 181.207 -18.8057 205.124L-20.249 203.386C8.53366 179.32 40.7846 159.826 75.6028 145.458C111.003 130.848 147.623 122.141 184.435 119.574C207.935 117.937 231.443 119.285 254.317 123.572C277.261 127.873 299.662 135.158 320.892 145.221C353.221 160.545 378.317 181.426 404.887 203.535C415.895 212.694 427.28 222.169 439.189 231.179C468.938 253.679 502.698 269.771 539.524 279.005C574.779 287.843 612.187 290.261 650.705 286.198C683.896 282.327 717.079 273.028 749.33 258.568C779.468 245.051 808.832 227.023 836.6 204.979L837.996 206.752C810.079 228.91 780.553 247.039 750.244 260.63C717.787 275.187 684.377 284.543 650.95 288.445C638.769 289.73 626.698 290.376 614.771 290.376L614.78 290.384Z" fill="#E9C369"/>
<path d="M1471.48 171.519C1467.32 171.519 1463.17 171.432 1459.02 171.252C1421.49 169.628 1383.64 159.855 1346.53 142.204C1313.64 126.559 1281.07 104.621 1249.73 76.9993C1220.41 51.1684 1187.14 31.8633 1150.85 19.6193C1116.3 7.97215 1079.67 2.9078 1041.97 4.56666C968.135 7.82295 894.432 36.9891 834.439 86.6935L833 84.9513C893.373 34.9353 967.549 5.58919 1041.87 2.31096C1079.85 0.634542 1116.75 5.74279 1151.56 17.4821C1188.14 29.8182 1221.66 49.2726 1251.2 75.3053C1282.39 102.786 1314.79 124.606 1347.49 140.163C1384.33 157.682 1421.88 167.381 1459.12 168.992C1499.47 170.738 1540.7 163.91 1581.66 148.699C1620.08 134.428 1656.48 113.521 1689.84 86.5531L1691.25 88.3129C1657.7 115.434 1621.09 136.464 1582.44 150.819C1545.41 164.572 1508.14 171.519 1471.48 171.519Z" fill="#E76F51"/>
<path d="M1470.33 228.711C1444.28 228.711 1418.9 225.648 1394.54 219.539C1357.42 210.231 1323.39 194.011 1293.4 171.322C1281.44 162.282 1270.04 152.79 1259.01 143.613C1232.55 121.596 1207.56 100.803 1175.49 85.6014C1154.43 75.6219 1132.22 68.3984 1109.46 64.1284C1086.78 59.8759 1063.46 58.5418 1040.15 60.1611C1003.58 62.7065 967.2 71.3606 932.018 85.8779C897.41 100.163 865.356 119.533 836.748 143.451L835.305 141.713C864.088 117.646 896.338 98.1526 931.157 83.7846C966.557 69.1752 1003.18 60.4683 1039.99 57.901C1063.49 56.2641 1087 57.6114 1109.87 61.899C1132.81 66.1997 1155.22 73.4847 1176.45 83.5476C1208.78 98.8723 1233.87 119.753 1260.44 141.862C1271.45 151.021 1282.83 160.496 1294.74 169.506C1324.49 192.006 1358.25 208.098 1395.08 217.332C1430.33 226.17 1467.74 228.588 1506.26 224.525C1539.45 220.654 1572.63 211.355 1604.88 196.894C1635.02 183.378 1664.39 165.35 1692.15 143.306L1693.55 145.079C1665.63 167.237 1636.11 185.366 1605.8 198.957C1573.34 213.514 1539.93 222.87 1506.5 226.771C1494.32 228.057 1482.25 228.702 1470.33 228.702L1470.33 228.711Z" fill="#299D8F"/>
<path d="M1470.78 292.384C1444.72 292.384 1419.35 289.321 1394.99 283.212C1357.86 273.904 1323.83 257.684 1293.84 234.996C1281.89 225.955 1270.48 216.463 1259.46 207.286C1233 185.269 1208.01 164.476 1175.94 149.275C1154.88 139.295 1132.67 132.072 1109.91 127.801C1087.22 123.549 1063.9 122.215 1040.6 123.834C1004.03 126.38 967.646 135.034 932.464 149.551C897.856 163.836 865.802 183.207 837.194 207.124L835.751 205.386C864.534 181.32 896.785 161.826 931.603 147.458C967.003 132.848 1003.62 124.141 1040.44 121.574C1063.93 119.937 1087.44 121.285 1110.32 125.572C1133.26 129.873 1155.66 137.158 1176.89 147.221C1209.22 162.545 1234.32 183.426 1260.89 205.535C1271.9 214.694 1283.28 224.169 1295.19 233.179C1324.94 255.679 1358.7 271.771 1395.52 281.005C1430.78 289.843 1468.19 292.261 1506.7 288.198C1539.9 284.327 1573.08 275.028 1605.33 260.568C1635.47 247.051 1664.83 229.023 1692.6 206.979L1694 208.752C1666.08 230.91 1636.55 249.039 1606.24 262.63C1573.79 277.187 1540.38 286.543 1506.95 290.445C1494.77 291.73 1482.7 292.376 1470.77 292.376L1470.78 292.384Z" fill="#E9C369"/>
</svg>
